AdventPro-SemiBold.ufo
<glyph name="exclam" format="1">
  <advance width="257"/>
  <unicode hex="0021"/>
  <outline>
    <contour>
      <point x="160" y="120" type="line"/>
      <point x="94" y="120" type="line"/>
      <point x="78" y="652" type="line"/>
      <point x="78" y="710"/>
      <point x="126" y="710" type="qcurve"/>
      <point x="177" y="710"/>
      <point x="177" y="653" type="qcurve"/>
    </contour>
    <contour>
      <point x="127" y="89" type="qcurve"/>
      <point x="146" y="89"/>
      <point x="172" y="63"/>
      <point x="172" y="26"/>
      <point x="146" y="0"/>
      <point x="109" y="0"/>
      <point x="83" y="26"/>
      <point x="83" y="63"/>
      <point x="109" y="89"/>
    </contour>
  </outline>
</glyph>
<glyph name="quotedbl" format="1">
  <advance width="426"/>
  <unicode hex="0022"/>
  <outline>
    <contour>
      <point x="173" y="512" type="line"/>
      <point x="119" y="512" type="line"/>
      <point x="105" y="697" type="line"/>
      <point x="105" y="721"/>
      <point x="126" y="732" type="qcurve"/>
      <point x="136" y="737"/>
      <point x="146" y="737" type="qcurve"/>
      <point x="166" y="732" type="line"/>
      <point x="187" y="722"/>
      <point x="187" y="697" type="qcurve"/>
    </contour>
    <contour>
      <point x="317" y="512" type="line"/>
      <point x="263" y="512" type="line"/>
      <point x="249" y="697" type="line"/>
      <point x="249" y="721"/>
      <point x="270" y="732" type="qcurve"/>
      <point x="280" y="737"/>
      <point x="290" y="737" type="qcurve"/>
      <point x="310" y="732" type="line"/>
      <point x="331" y="722"/>
      <point x="331" y="697" type="qcurve"/>
    </contour>
  </outline>
</glyph>
<glyph name="numbersign" format="1">
  <advance width="613"/>
  <unicode hex="0023"/>
  <outline>
    <contour>
      <point x="582" y="175" type="line"/>
      <point x="417" y="175" type="line"/>
      <point x="376" y="0" type="line"/>
      <point x="284" y="0" type="line"/>
      <point x="323" y="175" type="line"/>
      <point x="205" y="175" type="line"/>
      <point x="165" y="0" type="line"/>
      <point x="77" y="0" type="line"/>
      <point x="118" y="175" type="line"/>
      <point x="34" y="175" type="line"/>
      <point x="34" y="261" type="line"/>
      <point x="138" y="261" type="line"/>
      <point x="166" y="377" type="line"/>
      <point x="34" y="377" type="line"/>
      <point x="34" y="469" type="line"/>
      <point x="188" y="469" type="line"/>
      <point x="241" y="700" type="line"/>
      <point x="329" y="700" type="line"/>
      <point x="275" y="469" type="line"/>
      <point x="394" y="469" type="line"/>
      <point x="448" y="700" type="line"/>
      <point x="541" y="700" type="line"/>
      <point x="487" y="469" type="line"/>
      <point x="582" y="469" type="line"/>
      <point x="582" y="377" type="line"/>
      <point x="465" y="377" type="line"/>
      <point x="438" y="261" type="line"/>
      <point x="582" y="261" type="line"/>
    </contour>
    <contour>
      <point x="344" y="261" type="line"/>
      <point x="372" y="377" type="line"/>
      <point x="253" y="377" type="line"/>
      <point x="226" y="261" type="line"/>
    </contour>
  </outline>
</glyph>
<glyph name="dollar" format="1">
  <advance width="540"/>
  <unicode hex="0024"/>
  <outline>
    <contour>
      <point x="316" y="-114" type="line"/>
      <point x="225" y="-114" type="line"/>
      <point x="225" y="-7" type="line"/>
      <point x="136" y="4"/>
      <point x="36" y="113"/>
      <point x="34" y="178" type="qcurve"/>
      <point x="131" y="189" type="line"/>
      <point x="134" y="152"/>
      <point x="184" y="94"/>
      <point x="225" y="85" type="qcurve"/>
      <point x="225" y="352" type="line"/>
      <point x="93" y="404"/>
      <point x="64" y="468" type="qcurve"/>
      <point x="51" y="498"/>
      <point x="51" y="537" type="qcurve"/>
      <point x="51" y="597"/>
      <point x="141" y="693"/>
      <point x="225" y="706" type="qcurve"/>
      <point x="225" y="817" type="line"/>
      <point x="316" y="817" type="line"/>
      <point x="316" y="708" type="line"/>
      <point x="371" y="704"/>
      <point x="423" y="680" type="qcurve"/>
      <point x="418" y="666" type="line"/>
      <point x="414" y="653"/>
      <point x="399" y="609"/>
      <point x="394" y="594" type="qcurve"/>
      <point x="355" y="609"/>
      <point x="316" y="615" type="qcurve"/>
      <point x="316" y="413" type="line"/>
      <point x="396" y="379"/>
      <point x="446" y="336" type="qcurve"/>
      <point x="509" y="284"/>
      <point x="509" y="112"/>
      <point x="414" y="3"/>
      <point x="316" y="-8" type="qcurve"/>
    </contour>
    <contour>
      <point x="316" y="310" type="qcurve"/>
      <point x="316" y="84" type="line"/>
      <point x="359" y="94"/>
      <point x="409" y="148"/>
      <point x="409" y="229"/>
      <point x="360" y="287"/>
    </contour>
    <contour>
      <point x="225" y="453" type="qcurve"/>
      <point x="225" y="612" type="line"/>
      <point x="146" y="593"/>
      <point x="149" y="530" type="qcurve"/>
      <point x="150" y="486"/>
    </contour>
  </outline>
</glyph>
<glyph name="percent" format="1">
  <advance width="680"/>
  <unicode hex="0025"/>
  <outline>
    <contour>
      <point x="100" y="0" type="line"/>
      <point x="34" y="59" type="line"/>
      <point x="578" y="743" type="line"/>
      <point x="649" y="686" type="line"/>
    </contour>
    <contour>
      <point x="600" y="31" type="qcurve"/>
      <point x="558" y="-11"/>
      <point x="438" y="-11"/>
      <point x="354" y="73"/>
      <point x="354" y="193"/>
      <point x="438" y="277"/>
      <point x="558" y="277"/>
      <point x="642" y="193"/>
      <point x="642" y="73"/>
    </contour>
    <contour>
      <point x="538" y="94" type="qcurve"/>
      <point x="553" y="111"/>
      <point x="553" y="155"/>
      <point x="523" y="188"/>
      <point x="473" y="188"/>
      <point x="443" y="155"/>
      <point x="443" y="111"/>
      <point x="473" y="78"/>
      <point x="523" y="78"/>
    </contour>
    <contour>
      <point x="289" y="481" type="qcurve"/>
      <point x="247" y="439"/>
      <point x="127" y="439"/>
      <point x="43" y="523"/>
      <point x="43" y="643"/>
      <point x="127" y="727"/>
      <point x="247" y="727"/>
      <point x="331" y="643"/>
      <point x="331" y="523"/>
    </contour>
    <contour>
      <point x="227" y="544" type="qcurve"/>
      <point x="243" y="561"/>
      <point x="243" y="605"/>
      <point x="212" y="639"/>
      <point x="163" y="639"/>
      <point x="132" y="605"/>
      <point x="132" y="561"/>
      <point x="163" y="527"/>
      <point x="212" y="527"/>
    </contour>
  </outline>
</glyph>
<glyph name="ampersand" format="1">
  <advance width="556"/>
  <unicode hex="0026"/>
  <outline>
    <contour>
      <point x="498" y="61" type="qcurve"/>
      <point x="482" y="-11" type="line"/>
      <point x="399" y="-2"/>
      <point x="362" y="58" type="qcurve"/>
      <point x="317" y="-11"/>
      <point x="123" y="-11"/>
      <point x="76" y="52" type="qcurve"/>
      <point x="35" y="107"/>
      <point x="35" y="179" type="qcurve"/>
      <point x="35" y="233"/>
      <point x="72" y="313"/>
      <point x="111" y="358"/>
      <point x="137" y="377" type="qcurve"/>
      <point x="176" y="406"/>
      <point x="218" y="421" type="qcurve"/>
      <point x="185" y="432"/>
      <point x="162" y="468" type="qcurve"/>
      <point x="138" y="506"/>
      <point x="138" y="556" type="qcurve"/>
      <point x="138" y="641"/>
      <point x="212" y="684" type="qcurve"/>
      <point x="259" y="712"/>
      <point x="344" y="712"/>
      <point x="381" y="699" type="qcurve"/>
      <point x="329" y="620" type="line"/>
      <point x="316" y="625"/>
      <point x="285" y="625"/>
      <point x="266" y="614" type="qcurve"/>
      <point x="232" y="594"/>
      <point x="232" y="509"/>
      <point x="289" y="469"/>
      <point x="314" y="469" type="qcurve"/>
      <point x="319" y="469"/>
      <point x="324" y="470" type="qcurve"/>
      <point x="341" y="472" type="line"/>
      <point x="341" y="600" type="line"/>
      <point x="432" y="609" type="line"/>
      <point x="432" y="484" type="line"/>
      <point x="505" y="500" type="line"/>
      <point x="525" y="409" type="line"/>
      <point x="432" y="390" type="line"/>
      <point x="432" y="168" type="line"/>
      <point x="432" y="83"/>
    </contour>
    <contour>
      <point x="341" y="222" type="qcurve"/>
      <point x="341" y="370" type="line"/>
      <point x="199" y="337"/>
      <point x="152" y="272" type="qcurve"/>
      <point x="124" y="234"/>
      <point x="124" y="145"/>
      <point x="170" y="81"/>
      <point x="277" y="81"/>
      <point x="341" y="167"/>
    </contour>
  </outline>
</glyph>
<glyph name="quotesingle" format="1">
  <advance width="173"/>
  <unicode hex="0027"/>
  <outline>
    <contour>
      <point x="114" y="589" type="line"/>
      <point x="60" y="589" type="line"/>
      <point x="46" y="697" type="line"/>
      <point x="46" y="721"/>
      <point x="66" y="732" type="qcurve"/>
      <point x="77" y="737"/>
      <point x="88" y="737" type="qcurve"/>
      <point x="108" y="732" type="line"/>
      <point x="128" y="722"/>
      <point x="128" y="697" type="qcurve"/>
    </contour>
  </outline>
</glyph>
<glyph name="parenleft" format="1">
  <advance width="315"/>
  <unicode hex="0028"/>
  <outline>
    <contour>
      <point x="235" y="-51" type="qcurve"/>
      <point x="193" y="-117" type="line"/>
      <point x="132" y="-82"/>
      <point x="78" y="-5"/>
      <point x="78" y="71" type="qcurve"/>
      <point x="78" y="627" type="line"/>
      <point x="78" y="703"/>
      <point x="132" y="783"/>
      <point x="192" y="817" type="qcurve"/>
      <point x="234" y="747" type="line"/>
      <point x="168" y="719"/>
      <point x="168" y="617" type="qcurve"/>
      <point x="168" y="82" type="line"/>
      <point x="168" y="12"/>
      <point x="189" y="-14" type="qcurve"/>
      <point x="201" y="-28"/>
      <point x="217" y="-40"/>
    </contour>
  </outline>
</glyph>
<glyph name="parenright" format="1">
  <advance width="315"/>
  <unicode hex="0029"/>
  <outline>
    <contour>
      <point x="120" y="-117" type="qcurve"/>
      <point x="78" y="-51" type="line"/>
      <point x="102" y="-37"/>
      <point x="123" y="-19"/>
      <point x="144" y="37"/>
      <point x="144" y="82" type="qcurve"/>
      <point x="144" y="617" type="line"/>
      <point x="144" y="719"/>
      <point x="79" y="747" type="qcurve"/>
      <point x="121" y="817" type="line"/>
      <point x="181" y="783"/>
      <point x="235" y="703"/>
      <point x="235" y="627" type="qcurve"/>
      <point x="235" y="71" type="line"/>
      <point x="235" y="-5"/>
      <point x="181" y="-82"/>
    </contour>
  </outline>
</glyph>
<glyph name="asterisk" format="1">
  <advance width="352"/>
  <unicode hex="002A"/>
  <outline>
    <contour>
      <point x="304" y="460" type="line"/>
      <point x="223" y="404" type="line"/>
      <point x="175" y="515" type="line"/>
      <point x="127" y="404" type="line"/>
      <point x="47" y="461" type="line"/>
      <point x="130" y="541" type="line"/>
      <point x="17" y="561" type="line"/>
      <point x="48" y="645" type="line"/>
      <point x="148" y="587" type="line"/>
      <point x="127" y="700" type="line"/>
      <point x="223" y="700" type="line"/>
      <point x="201" y="587" type="line"/>
      <point x="300" y="646" type="line"/>
      <point x="336" y="560" type="line"/>
      <point x="219" y="540" type="line"/>
    </contour>
  </outline>
</glyph>
<glyph name="plus" format="1">
  <advance width="385"/>
  <unicode hex="002B"/>
  <outline>
    <contour>
      <point x="240" y="205" type="line"/>
      <point x="148" y="205" type="line"/>
      <point x="148" y="325" type="line"/>
      <point x="34" y="325" type="line"/>
      <point x="34" y="413" type="line"/>
      <point x="148" y="413" type="line"/>
      <point x="148" y="545" type="line"/>
      <point x="240" y="545" type="line"/>
      <point x="240" y="413" type="line"/>
      <point x="354" y="413" type="line"/>
      <point x="354" y="325" type="line"/>
      <point x="240" y="325" type="line"/>
    </contour>
  </outline>
</glyph>
<glyph name="hyphen" format="1">
  <advance width="410"/>
  <unicode hex="002D"/>
  <outline>
    <contour>
      <point x="365" y="325" type="line"/>
      <point x="45" y="325" type="line"/>
      <point x="45" y="413" type="line"/>
      <point x="365" y="413" type="line"/>
    </contour>
  </outline>
</glyph>
<glyph name="period" format="1">
  <advance width="135"/>
  <unicode hex="002E"/>
  <outline>
    <contour>
      <point x="80" y="13" type="qcurve"/>
      <point x="67" y="0"/>
      <point x="31" y="0"/>
      <point x="4" y="26"/>
      <point x="4" y="63"/>
      <point x="31" y="89"/>
      <point x="67" y="89"/>
      <point x="93" y="63"/>
      <point x="93" y="26"/>
    </contour>
  </outline>
</glyph>
<glyph name="slash" format="1">
  <advance width="455"/>
  <unicode hex="002F"/>
  <outline>
    <contour>
      <point x="114" y="-114" type="line"/>
      <point x="17" y="-114" type="line"/>
      <point x="341" y="817" type="line"/>
      <point x="439" y="817" type="line"/>
    </contour>
  </outline>
</glyph>
<glyph name="one" format="1">
  <advance width="235"/>
  <unicode hex="0031"/>
  <outline>
    <contour>
      <point x="219" y="0" type="line"/>
      <point x="127" y="0" type="line"/>
      <point x="128" y="577" type="line"/>
      <point x="100" y="560"/>
      <point x="57" y="554" type="qcurve"/>
      <point x="42" y="552" type="line"/>
      <point x="17" y="633" type="line"/>
      <point x="44" y="637"/>
      <point x="107" y="672"/>
      <point x="128" y="700" type="qcurve"/>
      <point x="219" y="700" type="line"/>
    </contour>
  </outline>
</glyph>
<glyph name="two" format="1">
  <advance width="400"/>
  <unicode hex="0032"/>
  <outline>
    <contour>
      <point x="383" y="0" type="line"/>
      <point x="17" y="0" type="line"/>
      <point x="17" y="84" type="line"/>
      <point x="255" y="438" type="line"/>
      <point x="289" y="495"/>
      <point x="289" y="536" type="qcurve"/>
      <point x="289" y="555"/>
      <point x="282" y="570" type="qcurve"/>
      <point x="260" y="621"/>
      <point x="199" y="621" type="qcurve"/>
      <point x="168" y="621"/>
      <point x="120" y="579"/>
      <point x="114" y="549" type="qcurve"/>
      <point x="32" y="590" type="line"/>
      <point x="50" y="642"/>
      <point x="142" y="710"/>
      <point x="279" y="710"/>
      <point x="328" y="666" type="qcurve"/>
      <point x="380" y="617"/>
      <point x="380" y="480"/>
      <point x="336" y="406" type="qcurve"/>
      <point x="123" y="84" type="line"/>
      <point x="383" y="84" type="line"/>
    </contour>
  </outline>
</glyph>
<glyph name="three" format="1">
  <advance width="423"/>
  <unicode hex="0033"/>
  <outline>
    <contour>
      <point x="17" y="83" type="qcurve"/>
      <point x="77" y="144" type="line"/>
      <point x="94" y="114"/>
      <point x="157" y="77"/>
      <point x="193" y="77" type="qcurve"/>
      <point x="248" y="77"/>
      <point x="316" y="150"/>
      <point x="316" y="257"/>
      <point x="234" y="322"/>
      <point x="169" y="325" type="qcurve"/>
      <point x="59" y="325" type="line"/>
      <point x="248" y="609" type="line"/>
      <point x="61" y="609" type="line"/>
      <point x="61" y="700" type="line"/>
      <point x="349" y="700" type="line"/>
      <point x="349" y="611" type="line"/>
      <point x="217" y="413" type="line"/>
      <point x="221" y="412" type="line"/>
      <point x="296" y="403"/>
      <point x="407" y="286"/>
      <point x="407" y="112"/>
      <point x="282" y="-12"/>
      <point x="194" y="-12" type="qcurve"/>
      <point x="140" y="-12"/>
      <point x="46" y="39"/>
    </contour>
  </outline>
</glyph>
<glyph name="four" format="1">
  <advance width="509"/>
  <unicode hex="0034"/>
  <outline>
    <contour>
      <point x="423" y="0" type="line"/>
      <point x="332" y="0" type="line"/>
      <point x="332" y="325" type="line"/>
      <point x="17" y="325" type="line"/>
      <point x="210" y="700" type="line"/>
      <point x="303" y="700" type="line"/>
      <point x="166" y="413" type="line"/>
      <point x="332" y="413" type="line"/>
      <point x="332" y="700" type="line"/>
      <point x="423" y="700" type="line"/>
      <point x="423" y="413" type="line"/>
      <point x="493" y="413" type="line"/>
      <point x="474" y="325" type="line"/>
      <point x="423" y="325" type="line"/>
    </contour>
  </outline>
</glyph>
<glyph name="five" format="1">
  <advance width="423"/>
  <unicode hex="0035"/>
  <outline>
    <contour>
      <point x="17" y="83" type="qcurve"/>
      <point x="77" y="145" type="line"/>
      <point x="125" y="78"/>
      <point x="252" y="78"/>
      <point x="316" y="150"/>
      <point x="316" y="257"/>
      <point x="233" y="325"/>
      <point x="167" y="325" type="qcurve"/>
      <point x="45" y="325" type="line"/>
      <point x="85" y="700" type="line"/>
      <point x="351" y="700" type="line"/>
      <point x="351" y="609" type="line"/>
      <point x="169" y="609" type="line"/>
      <point x="149" y="413" type="line"/>
      <point x="194" y="413" type="line"/>
      <point x="283" y="413"/>
      <point x="407" y="289"/>
      <point x="407" y="112"/>
      <point x="282" y="-12"/>
      <point x="194" y="-12" type="qcurve"/>
      <point x="140" y="-12"/>
      <point x="46" y="39"/>
    </contour>
  </outline>
</glyph>
<glyph name="six" format="1">
  <advance width="458"/>
  <unicode hex="0036"/>
  <outline>
    <contour>
      <point x="17" y="201" type="qcurve"/>
      <point x="17" y="461" type="line"/>
      <point x="17" y="544"/>
      <point x="68" y="616" type="qcurve"/>
      <point x="94" y="653"/>
      <point x="194" y="700"/>
      <point x="261" y="700" type="qcurve"/>
      <point x="296" y="700" type="line"/>
      <point x="296" y="609" type="line"/>
      <point x="265" y="609" type="line"/>
      <point x="108" y="609"/>
      <point x="108" y="445" type="qcurve"/>
      <point x="108" y="368" type="line"/>
      <point x="126" y="387"/>
      <point x="196" y="413"/>
      <point x="229" y="413" type="qcurve"/>
      <point x="318" y="413"/>
      <point x="442" y="289"/>
      <point x="442" y="112"/>
      <point x="318" y="-12"/>
      <point x="141" y="-12"/>
      <point x="17" y="112"/>
    </contour>
    <contour>
      <point x="107" y="206" type="qcurve"/>
      <point x="107" y="201" type="line"/>
      <point x="107" y="150"/>
      <point x="178" y="78"/>
      <point x="280" y="78"/>
      <point x="351" y="150"/>
      <point x="351" y="252"/>
      <point x="280" y="322"/>
      <point x="179" y="322"/>
      <point x="108" y="255"/>
    </contour>
  </outline>
</glyph>
<glyph name="seven" format="1">
  <advance width="439"/>
  <unicode hex="0037"/>
  <outline>
    <contour>
      <point x="122" y="0" type="line"/>
      <point x="21" y="0" type="line"/>
      <point x="321" y="609" type="line"/>
      <point x="29" y="609" type="line"/>
      <point x="29" y="700" type="line"/>
      <point x="423" y="700" type="line"/>
      <point x="423" y="609" type="line"/>
    </contour>
  </outline>
</glyph>
<glyph name="eight" format="1">
  <advance width="459"/>
  <unicode hex="0038"/>
  <outline>
    <contour>
      <point x="226" y="324" type="qcurve"/>
      <point x="177" y="323"/>
      <point x="108" y="251"/>
      <point x="108" y="150"/>
      <point x="179" y="79"/>
      <point x="281" y="79"/>
      <point x="352" y="150"/>
      <point x="352" y="252"/>
      <point x="282" y="323"/>
    </contour>
    <contour>
      <point x="330" y="388" type="qcurve"/>
      <point x="381" y="360"/>
      <point x="443" y="261"/>
      <point x="443" y="201" type="qcurve"/>
      <point x="443" y="112"/>
      <point x="318" y="-12"/>
      <point x="142" y="-12"/>
      <point x="17" y="112"/>
      <point x="17" y="201" type="qcurve"/>
      <point x="17" y="262"/>
      <point x="79" y="362"/>
      <point x="131" y="389" type="qcurve"/>
      <point x="56" y="440"/>
      <point x="56" y="533" type="qcurve"/>
      <point x="56" y="606"/>
      <point x="158" y="709"/>
      <point x="304" y="709"/>
      <point x="407" y="606"/>
      <point x="407" y="533" type="qcurve"/>
      <point x="407" y="439"/>
    </contour>
    <contour>
      <point x="144" y="533" type="qcurve"/>
      <point x="144" y="498"/>
      <point x="193" y="449"/>
      <point x="265" y="449"/>
      <point x="316" y="498"/>
      <point x="316" y="569"/>
      <point x="266" y="620"/>
      <point x="195" y="620"/>
      <point x="144" y="569"/>
    </contour>
  </outline>
</glyph>
<glyph name="nine" format="1">
  <advance width="458"/>
  <unicode hex="0039"/>
  <outline>
    <contour>
      <point x="198" y="0" type="qcurve"/>
      <point x="163" y="0" type="line"/>
      <point x="163" y="85" type="line"/>
      <point x="202" y="85" type="line"/>
      <point x="270" y="85"/>
      <point x="352" y="177"/>
      <point x="352" y="257" type="qcurve"/>
      <point x="352" y="329" type="line"/>
      <point x="301" y="285"/>
      <point x="230" y="285" type="qcurve"/>
      <point x="141" y="285"/>
      <point x="17" y="409"/>
      <point x="17" y="586"/>
      <point x="142" y="710"/>
      <point x="318" y="710"/>
      <point x="442" y="586"/>
      <point x="442" y="497" type="qcurve"/>
      <point x="442" y="239" type="line"/>
      <point x="442" y="156"/>
      <point x="392" y="84" type="qcurve"/>
      <point x="365" y="47"/>
      <point x="265" y="0"/>
    </contour>
    <contour>
      <point x="144" y="411" type="qcurve"/>
      <point x="180" y="376"/>
      <point x="280" y="376"/>
      <point x="352" y="447"/>
      <point x="352" y="550"/>
      <point x="279" y="620"/>
      <point x="180" y="620"/>
      <point x="108" y="547"/>
      <point x="108" y="447"/>
    </contour>
  </outline>
</glyph>
<glyph name="colon" format="1">
  <advance width="128"/>
  <unicode hex="003A"/>
  <outline>
    <contour>
      <point x="97" y="338" type="qcurve"/>
      <point x="84" y="325"/>
      <point x="46" y="325"/>
      <point x="18" y="352"/>
      <point x="18" y="390"/>
      <point x="46" y="418"/>
      <point x="84" y="418"/>
      <point x="111" y="390"/>
      <point x="111" y="352"/>
    </contour>
    <contour>
      <point x="112" y="158" type="qcurve"/>
      <point x="112" y="138"/>
      <point x="84" y="110"/>
      <point x="45" y="110"/>
      <point x="17" y="138"/>
      <point x="17" y="178"/>
      <point x="45" y="206"/>
      <point x="84" y="206"/>
      <point x="112" y="178"/>
    </contour>
  </outline>
</glyph>
<glyph name="semicolon" format="1">
  <advance width="158"/>
  <unicode hex="003B"/>
  <outline>
    <contour>
      <point x="127" y="229" type="qcurve"/>
      <point x="114" y="216"/>
      <point x="76" y="216"/>
      <point x="50" y="243"/>
      <point x="50" y="281"/>
      <point x="76" y="307"/>
      <point x="114" y="307"/>
      <point x="141" y="281"/>
      <point x="141" y="243"/>
    </contour>
    <contour>
      <point x="76" y="-84" type="qcurve"/>
      <point x="17" y="-55" type="line"/>
      <point x="61" y="-30"/>
      <point x="86" y="-3" type="qcurve"/>
      <point x="74" y="0" type="line"/>
      <point x="49" y="14"/>
      <point x="49" y="64"/>
      <point x="76" y="89"/>
      <point x="94" y="89" type="qcurve"/>
      <point x="118" y="89"/>
      <point x="142" y="53"/>
      <point x="142" y="35" type="qcurve"/>
      <point x="142" y="-24"/>
    </contour>
  </outline>
</glyph>
<glyph name="less" format="1">
  <advance width="373"/>
  <unicode hex="003C"/>
  <outline>
    <contour>
      <point x="355" y="136" type="line"/>
      <point x="295" y="80" type="line"/>
      <point x="17" y="358" type="line"/>
      <point x="17" y="359" type="line"/>
      <point x="295" y="637" type="line"/>
      <point x="357" y="578" type="line"/>
      <point x="135" y="358" type="line"/>
    </contour>
  </outline>
</glyph>
<glyph name="equal" format="1">
  <advance width="353"/>
  <unicode hex="003D"/>
  <outline>
    <contour>
      <point x="337" y="357" type="line"/>
      <point x="17" y="357" type="line"/>
      <point x="17" y="445" type="line"/>
      <point x="337" y="445" type="line"/>
    </contour>
    <contour>
      <point x="337" y="221" type="line"/>
      <point x="17" y="221" type="line"/>
      <point x="17" y="309" type="line"/>
      <point x="337" y="309" type="line"/>
    </contour>
  </outline>
</glyph>
<glyph name="greater" format="1">
  <advance width="373"/>
  <unicode hex="003E"/>
  <outline>
    <contour>
      <point x="78" y="80" type="line"/>
      <point x="18" y="136" type="line"/>
      <point x="238" y="358" type="line"/>
      <point x="16" y="578" type="line"/>
      <point x="78" y="637" type="line"/>
      <point x="356" y="359" type="line"/>
      <point x="356" y="358" type="line"/>
    </contour>
  </outline>
</glyph>
<glyph name="question" format="1">
  <advance width="398"/>
  <unicode hex="003F"/>
  <outline>
    <contour>
      <point x="227" y="119" type="line"/>
      <point x="139" y="119" type="line"/>
      <point x="139" y="212" type="line"/>
      <point x="139" y="258"/>
      <point x="167" y="336"/>
      <point x="200" y="380"/>
      <point x="252" y="440"/>
      <point x="288" y="496"/>
      <point x="288" y="529" type="qcurve"/>
      <point x="288" y="571"/>
      <point x="233" y="622"/>
      <point x="159" y="622"/>
      <point x="109" y="574"/>
      <point x="109" y="532" type="qcurve"/>
      <point x="17" y="532" type="line"/>
      <point x="17" y="607"/>
      <point x="110" y="709"/>
      <point x="195" y="709" type="qcurve"/>
      <point x="236" y="709"/>
      <point x="274" y="692" type="qcurve"/>
      <point x="344" y="660"/>
      <point x="373" y="580" type="qcurve"/>
      <point x="382" y="555"/>
      <point x="382" y="535" type="qcurve"/>
      <point x="382" y="472"/>
      <point x="346" y="420" type="qcurve"/>
      <point x="328" y="393"/>
      <point x="275" y="338"/>
      <point x="249" y="307"/>
      <point x="228" y="236"/>
      <point x="227" y="182" type="qcurve"/>
    </contour>
    <contour>
      <point x="182" y="89" type="qcurve"/>
      <point x="200" y="89"/>
      <point x="227" y="63"/>
      <point x="227" y="26"/>
      <point x="200" y="0"/>
      <point x="164" y="0"/>
      <point x="138" y="26"/>
      <point x="138" y="63"/>
      <point x="164" y="89"/>
    </contour>
  </outline>
</glyph>
<glyph name="at" format="1">
  <advance width="747"/>
  <unicode hex="0040"/>
  <outline>
    <contour>
      <point x="542" y="91" type="line"/>
      <point x="411" y="53"/>
      <point x="324" y="53" type="qcurve"/>
      <point x="280" y="53"/>
      <point x="212" y="77"/>
      <point x="161" y="147"/>
      <point x="157" y="204" type="qcurve"/>
      <point x="157" y="305" type="line"/>
      <point x="157" y="416"/>
      <point x="245" y="449" type="qcurve"/>
      <point x="272" y="461"/>
      <point x="314" y="461"/>
      <point x="339" y="459" type="qcurve"/>
      <point x="396" y="455"/>
      <point x="450" y="431" type="qcurve"/>
      <point x="445" y="473"/>
      <point x="410" y="492" type="qcurve"/>
      <point x="373" y="513"/>
      <point x="323" y="513" type="qcurve"/>
      <point x="229" y="513"/>
      <point x="102" y="428"/>
      <point x="102" y="334" type="qcurve"/>
      <point x="102" y="190" type="line"/>
      <point x="102" y="120"/>
      <point x="177" y="31"/>
      <point x="278" y="0"/>
      <point x="340" y="0" type="qcurve"/>
      <point x="445" y="0"/>
      <point x="605" y="82"/>
      <point x="605" y="162" type="qcurve"/>
      <point x="604" y="337" type="line"/>
      <point x="604" y="425"/>
      <point x="625" y="454" type="qcurve"/>
      <point x="651" y="489"/>
      <point x="704" y="500" type="qcurve"/>
      <point x="731" y="429" type="line"/>
      <point x="706" y="419"/>
      <point x="691" y="382"/>
      <point x="691" y="353" type="qcurve"/>
      <point x="692" y="176" type="line"/>
      <point x="692" y="117"/>
      <point x="645" y="23"/>
      <point x="572" y="-32"/>
      <point x="523" y="-50" type="qcurve"/>
      <point x="437" y="-83"/>
      <point x="338" y="-83" type="qcurve"/>
      <point x="336" y="-83"/>
      <point x="334" y="-83" type="qcurve"/>
      <point x="199" y="-83"/>
      <point x="17" y="56"/>
      <point x="17" y="183" type="qcurve"/>
      <point x="17" y="342" type="line"/>
      <point x="17" y="398"/>
      <point x="54" y="488"/>
      <point x="86" y="516" type="qcurve"/>
      <point x="147" y="571"/>
      <point x="222" y="585" type="qcurve"/>
      <point x="279" y="594"/>
      <point x="360" y="594"/>
      <point x="437" y="571"/>
      <point x="503" y="529"/>
      <point x="542" y="450"/>
      <point x="542" y="399" type="qcurve"/>
      <point x="579" y="384" type="line"/>
      <point x="579" y="298" type="line"/>
      <point x="542" y="314" type="line"/>
    </contour>
    <contour>
      <point x="268" y="160" type="qcurve"/>
      <point x="282" y="145"/>
      <point x="319" y="134"/>
      <point x="388" y="134"/>
      <point x="451" y="155" type="qcurve"/>
      <point x="451" y="344" type="line"/>
      <point x="386" y="377"/>
      <point x="322" y="377" type="qcurve"/>
      <point x="286" y="377"/>
      <point x="242" y="337"/>
      <point x="242" y="298" type="qcurve"/>
      <point x="242" y="228" type="line"/>
      <point x="242" y="185"/>
    </contour>
  </outline>
</glyph>
<glyph name="A" format="1">
  <advance width="527"/>
  <unicode hex="0041"/>
  <outline>
    <contour>
      <point x="517" y="0" type="line"/>
      <point x="411" y="0" type="line"/>
      <point x="356" y="205" type="line"/>
      <point x="172" y="205" type="line"/>
      <point x="119" y="0" type="line"/>
      <point x="18" y="0" type="line"/>
      <point x="203" y="700" type="line"/>
      <point x="322" y="700" type="line"/>
    </contour>
    <contour>
      <point x="334" y="300" type="line"/>
      <point x="262" y="550" type="line"/>
      <point x="194" y="300" type="line"/>
    </contour>
  </outline>
</glyph>
<glyph name="B" format="1">
  <advance width="548"/>
  <unicode hex="0042"/>
  <outline>
    <contour>
      <point x="301" y="0" type="qcurve"/>
      <point x="78" y="0" type="line"/>
      <point x="78" y="700" type="line"/>
      <point x="288" y="700" type="line"/>
      <point x="370" y="700"/>
      <point x="475" y="610"/>
      <point x="475" y="432"/>
      <point x="409" y="387" type="qcurve"/>
      <point x="408" y="386"/>
      <point x="408" y="385" type="qcurve"/>
      <point x="408" y="384" type="line"/>
      <point x="452" y="364"/>
      <point x="511" y="275"/>
      <point x="511" y="206" type="qcurve"/>
      <point x="511" y="127"/>
      <point x="467" y="68" type="qcurve"/>
      <point x="444" y="37"/>
      <point x="359" y="0"/>
    </contour>
    <contour>
      <point x="169" y="413" type="line"/>
      <point x="257" y="413" type="line"/>
      <point x="371" y="413"/>
      <point x="371" y="514" type="qcurve"/>
      <point x="371" y="568"/>
      <point x="315" y="610"/>
      <point x="262" y="610" type="qcurve"/>
      <point x="169" y="610" type="line"/>
    </contour>
    <contour>
      <point x="169" y="84" type="line"/>
      <point x="269" y="84" type="line"/>
      <point x="337" y="84"/>
      <point x="408" y="135"/>
      <point x="408" y="271"/>
      <point x="336" y="325"/>
      <point x="281" y="325" type="qcurve"/>
      <point x="169" y="325" type="line"/>
    </contour>
  </outline>
</glyph>
<glyph name="E" format="1">
  <advance width="465"/>
  <unicode hex="0045"/>
  <outline>
    <contour>
      <point x="410" y="0" type="line"/>
      <point x="78" y="0" type="line"/>
      <point x="78" y="700" type="line"/>
      <point x="412" y="700" type="line"/>
      <point x="412" y="610" type="line"/>
      <point x="169" y="610" type="line"/>
      <point x="169" y="413" type="line"/>
      <point x="325" y="413" type="line"/>
      <point x="298" y="325" type="line"/>
      <point x="169" y="325" type="line"/>
      <point x="169" y="82" type="line"/>
      <point x="410" y="82" type="line"/>
    </contour>
  </outline>
</glyph>
<glyph name="F" format="1">
  <advance width="449"/>
  <unicode hex="0046"/>
  <outline>
    <contour>
      <point x="169" y="0" type="line"/>
      <point x="78" y="0" type="line"/>
      <point x="78" y="700" type="line"/>
      <point x="412" y="700" type="line"/>
      <point x="412" y="610" type="line"/>
      <point x="169" y="610" type="line"/>
      <point x="169" y="413" type="line"/>
      <point x="320" y="413" type="line"/>
      <point x="288" y="325" type="line"/>
      <point x="169" y="325" type="line"/>
    </contour>
  </outline>
</glyph>
<glyph name="H" format="1">
  <advance width="588"/>
  <unicode hex="0048"/>
  <outline>
    <contour>
      <point x="508" y="0" type="line"/>
      <point x="418" y="0" type="line"/>
      <point x="418" y="325" type="line"/>
      <point x="169" y="325" type="line"/>
      <point x="169" y="0" type="line"/>
      <point x="78" y="0" type="line"/>
      <point x="78" y="700" type="line"/>
      <point x="169" y="700" type="line"/>
      <point x="169" y="413" type="line"/>
      <point x="418" y="413" type="line"/>
      <point x="418" y="700" type="line"/>
      <point x="508" y="700" type="line"/>
    </contour>
  </outline>
</glyph>
<glyph name="I" format="1">
  <advance width="296"/>
  <unicode hex="0049"/>
  <outline>
    <contour>
      <point x="218" y="0" type="line"/>
      <point x="126" y="0" type="line"/>
      <point x="126" y="612" type="line"/>
      <point x="63" y="614" type="line"/>
      <point x="63" y="700" type="line"/>
      <point x="218" y="700" type="line"/>
    </contour>
  </outline>
</glyph>
<glyph name="J" format="1">
  <advance width="221"/>
  <unicode hex="004A"/>
  <outline>
    <contour>
      <point x="23" y="-37" type="qcurve"/>
      <point x="-5" y="37" type="line"/>
      <point x="18" y="37"/>
      <point x="57" y="49"/>
      <point x="92" y="99"/>
      <point x="92" y="141" type="qcurve"/>
      <point x="92" y="612" type="line"/>
      <point x="30" y="614" type="line"/>
      <point x="30" y="700" type="line"/>
      <point x="182" y="700" type="line"/>
      <point x="182" y="132" type="line"/>
      <point x="182" y="44"/>
      <point x="109" y="-36"/>
    </contour>
  </outline>
</glyph>
<glyph name="K" format="1">
  <advance width="512"/>
  <unicode hex="004B"/>
  <outline>
    <contour>
      <point x="511" y="0" type="line"/>
      <point x="399" y="0" type="line"/>
      <point x="197" y="301" type="line"/>
      <point x="175" y="268" type="line"/>
      <point x="175" y="0" type="line"/>
      <point x="79" y="0" type="line"/>
      <point x="79" y="701" type="line"/>
      <point x="175" y="701" type="line"/>
      <point x="175" y="427" type="line"/>
      <point x="359" y="701" type="line"/>
      <point x="468" y="701" type="line"/>
      <point x="251" y="384" type="line"/>
    </contour>
  </outline>
</glyph>
<glyph name="M" format="1">
  <advance width="694"/>
  <unicode hex="004D"/>
  <outline>
    <contour>
      <point x="614" y="0" type="line"/>
      <point x="523" y="0" type="line"/>
      <point x="523" y="428" type="line"/>
      <point x="383" y="0" type="line"/>
      <point x="307" y="0" type="line"/>
      <point x="169" y="427" type="line"/>
      <point x="169" y="0" type="line"/>
      <point x="78" y="0" type="line"/>
      <point x="78" y="700" type="line"/>
      <point x="169" y="700" type="line"/>
      <point x="345" y="184" type="line"/>
      <point x="523" y="700" type="line"/>
      <point x="614" y="700" type="line"/>
    </contour>
  </outline>
</glyph>
<glyph name="N" format="1">
  <advance width="650"/>
  <unicode hex="004E"/>
  <outline>
    <contour>
      <point x="570" y="0" type="line"/>
      <point x="478" y="0" type="line"/>
      <point x="169" y="516" type="line"/>
      <point x="169" y="0" type="line"/>
      <point x="78" y="0" type="line"/>
      <point x="78" y="700" type="line"/>
      <point x="169" y="700" type="line"/>
      <point x="478" y="186" type="line"/>
      <point x="478" y="700" type="line"/>
      <point x="570" y="700" type="line"/>
    </contour>
  </outline>
</glyph>
<glyph name="P" format="1">
  <advance width="549"/>
  <unicode hex="0050"/>
  <outline>
    <contour>
      <point x="169" y="300" type="line"/>
      <point x="299" y="300" type="line"/>
      <point x="344" y="300"/>
      <point x="378" y="322" type="qcurve"/>
      <point x="395" y="333"/>
      <point x="412" y="377" type="qcurve"/>
      <point x="421" y="398"/>
      <point x="421" y="423" type="qcurve"/>
      <point x="421" y="423"/>
      <point x="421" y="470" type="qcurve"/>
      <point x="421" y="548"/>
      <point x="357" y="610"/>
      <point x="295" y="610" type="qcurve"/>
      <point x="169" y="610" type="line"/>
    </contour>
    <contour>
      <point x="169" y="0" type="line"/>
      <point x="78" y="0" type="line"/>
      <point x="78" y="700" type="line"/>
      <point x="312" y="700" type="line"/>
      <point x="413" y="700"/>
      <point x="512" y="572"/>
      <point x="512" y="471" type="qcurve"/>
      <point x="512" y="212"/>
      <point x="321" y="212" type="qcurve"/>
      <point x="169" y="212" type="line"/>
    </contour>
  </outline>
</glyph>
<glyph name="Q" format="1">
  <advance width="549"/>
  <unicode hex="0051"/>
  <outline>
    <contour>
      <point x="430" y="-28" type="qcurve"/>
      <point x="421" y="-108" type="line"/>
      <point x="417" y="-108"/>
      <point x="414" y="-108" type="qcurve"/>
      <point x="288" y="-108"/>
      <point x="246" y="-9" type="qcurve"/>
      <point x="181" y="-5"/>
      <point x="126" y="36" type="qcurve"/>
      <point x="97" y="57"/>
      <point x="63" y="134"/>
      <point x="63" y="185" type="qcurve"/>
      <point x="63" y="507" type="line"/>
      <point x="63" y="610"/>
      <point x="176" y="716"/>
      <point x="374" y="716"/>
      <point x="483" y="604"/>
      <point x="483" y="506" type="qcurve"/>
      <point x="483" y="185" type="line"/>
      <point x="483" y="100"/>
      <point x="397" y="9"/>
      <point x="339" y="-2" type="qcurve"/>
      <point x="352" y="-18"/>
      <point x="390" y="-28"/>
      <point x="424" y="-28"/>
    </contour>
    <contour>
      <point x="392" y="187" type="qcurve"/>
      <point x="392" y="509" type="line"/>
      <point x="392" y="557"/>
      <point x="335" y="621"/>
      <point x="273" y="621" type="qcurve"/>
      <point x="154" y="621"/>
      <point x="154" y="509" type="qcurve"/>
      <point x="154" y="186" type="line"/>
      <point x="154" y="150"/>
      <point x="191" y="82"/>
      <point x="228" y="81" type="qcurve"/>
      <point x="226" y="93"/>
      <point x="226" y="137" type="qcurve"/>
      <point x="226" y="174" type="line"/>
      <point x="318" y="174" type="line"/>
      <point x="318" y="138" type="line"/>
      <point x="318" y="90"/>
      <point x="319" y="82" type="qcurve"/>
      <point x="357" y="84"/>
      <point x="392" y="146"/>
    </contour>
  </outline>
</glyph>
<glyph name="R" format="1">
  <advance width="564"/>
  <unicode hex="0052"/>
  <outline>
    <contour>
      <point x="513" y="0" type="line"/>
      <point x="420" y="0" type="line"/>
      <point x="347" y="214" type="line"/>
      <point x="339" y="212"/>
      <point x="324" y="212" type="qcurve"/>
      <point x="169" y="212" type="line"/>
      <point x="169" y="0" type="line"/>
      <point x="78" y="0" type="line"/>
      <point x="78" y="700" type="line"/>
      <point x="318" y="700" type="line"/>
      <point x="414" y="700"/>
      <point x="512" y="570"/>
      <point x="512" y="470" type="qcurve"/>
      <point x="512" y="347"/>
      <point x="477" y="293" type="qcurve"/>
      <point x="459" y="265"/>
      <point x="431" y="244" type="qcurve"/>
    </contour>
    <contour>
      <point x="169" y="300" type="line"/>
      <point x="304" y="300" type="line"/>
      <point x="361" y="300"/>
      <point x="384" y="331" type="qcurve"/>
      <point x="409" y="366"/>
      <point x="412" y="395" type="qcurve"/>
      <point x="417" y="431"/>
      <point x="417" y="470" type="qcurve"/>
      <point x="417" y="548"/>
      <point x="352" y="609"/>
      <point x="290" y="609" type="qcurve"/>
      <point x="169" y="609" type="line"/>
    </contour>
  </outline>
</glyph>
<glyph name="T" format="1">
  <advance width="402"/>
  <unicode hex="0054"/>
  <outline>
    <contour>
      <point x="244" y="0" type="line"/>
      <point x="153" y="0" type="line"/>
      <point x="153" y="610" type="line"/>
      <point x="0" y="610" type="line"/>
      <point x="0" y="700" type="line"/>
      <point x="402" y="700" type="line"/>
      <point x="402" y="610" type="line"/>
      <point x="244" y="610" type="line"/>
    </contour>
  </outline>
</glyph>
<glyph name="U" format="1">
  <advance width="566"/>
  <unicode hex="0055"/>
  <outline>
    <contour>
      <point x="404" y="212" type="qcurve"/>
      <point x="404" y="701" type="line"/>
      <point x="495" y="701" type="line"/>
      <point x="495" y="186" type="line"/>
      <point x="495" y="133"/>
      <point x="458" y="55"/>
      <point x="395" y="13"/>
      <point x="325" y="-7"/>
      <point x="245" y="-7"/>
      <point x="174" y="13"/>
      <point x="111" y="55"/>
      <point x="74" y="133"/>
      <point x="74" y="186" type="qcurve"/>
      <point x="74" y="701" type="line"/>
      <point x="165" y="701" type="line"/>
      <point x="165" y="212" type="line"/>
      <point x="165" y="81"/>
      <point x="404" y="81"/>
    </contour>
  </outline>
</glyph>
<glyph name="V" format="1">
  <advance width="593"/>
  <unicode hex="0056"/>
  <outline>
    <contour>
      <point x="373" y="0" type="line"/>
      <point x="262" y="0" type="line"/>
      <point x="78" y="700" type="line"/>
      <point x="180" y="700" type="line"/>
      <point x="317" y="165" type="line"/>
      <point x="452" y="700" type="line"/>
      <point x="556" y="700" type="line"/>
    </contour>
  </outline>
</glyph>
<glyph name="W" format="1">
  <advance width="811"/>
  <unicode hex="0057"/>
  <outline>
    <contour>
      <point x="630" y="0" type="line"/>
      <point x="519" y="0" type="line"/>
      <point x="427" y="439" type="line"/>
      <point x="336" y="0" type="line"/>
      <point x="223" y="0" type="line"/>
      <point x="78" y="700" type="line"/>
      <point x="178" y="700" type="line"/>
      <point x="281" y="188" type="line"/>
      <point x="388" y="700" type="line"/>
      <point x="466" y="700" type="line"/>
      <point x="573" y="188" type="line"/>
      <point x="671" y="700" type="line"/>
      <point x="774" y="700" type="line"/>
    </contour>
  </outline>
</glyph>
<glyph name="Y" format="1">
  <advance width="552"/>
  <unicode hex="0059"/>
  <outline>
    <contour>
      <point x="362" y="-15" type="qcurve"/>
      <point x="335" y="53" type="line"/>
      <point x="405" y="66"/>
      <point x="405" y="160" type="qcurve"/>
      <point x="405" y="246" type="line"/>
      <point x="356" y="212"/>
      <point x="281" y="212" type="qcurve"/>
      <point x="177" y="212"/>
      <point x="52" y="326"/>
      <point x="52" y="427" type="qcurve"/>
      <point x="52" y="700" type="line"/>
      <point x="143" y="700" type="line"/>
      <point x="143" y="430" type="line"/>
      <point x="143" y="366"/>
      <point x="215" y="302"/>
      <point x="332" y="302"/>
      <point x="395" y="337"/>
      <point x="405" y="363" type="qcurve"/>
      <point x="405" y="700" type="line"/>
      <point x="496" y="700" type="line"/>
      <point x="496" y="156" type="line"/>
      <point x="496" y="0"/>
    </contour>
  </outline>
</glyph>
<glyph name="bracketleft" format="1">
  <advance width="319"/>
  <unicode hex="005B"/>
  <outline>
    <contour>
      <point x="239" y="-114" type="line"/>
      <point x="78" y="-114" type="line"/>
      <point x="78" y="817" type="line"/>
      <point x="239" y="817" type="line"/>
      <point x="239" y="733" type="line"/>
      <point x="169" y="723" type="line"/>
      <point x="169" y="-20" type="line"/>
      <point x="239" y="-30" type="line"/>
    </contour>
  </outline>
</glyph>
<glyph name="backslash" format="1">
  <advance width="537"/>
  <unicode hex="005C"/>
  <outline>
    <contour>
      <point x="497" y="-114" type="line"/>
      <point x="400" y="-114" type="line"/>
      <point x="75" y="817" type="line"/>
      <point x="173" y="817" type="line"/>
    </contour>
  </outline>
</glyph>
<glyph name="bracketright" format="1">
  <advance width="319"/>
  <unicode hex="005D"/>
  <outline>
    <contour>
      <point x="239" y="-114" type="line"/>
      <point x="78" y="-114" type="line"/>
      <point x="78" y="-30" type="line"/>
      <point x="148" y="-20" type="line"/>
      <point x="148" y="723" type="line"/>
      <point x="78" y="733" type="line"/>
      <point x="78" y="817" type="line"/>
      <point x="239" y="817" type="line"/>
    </contour>
  </outline>
</glyph>
<glyph name="asciicircum" format="1">
  <advance width="405"/>
  <unicode hex="005E"/>
  <outline>
    <contour>
      <point x="368" y="758" type="line"/>
      <point x="311" y="719" type="line"/>
      <point x="225" y="809" type="line"/>
      <point x="134" y="719" type="line"/>
      <point x="78" y="758" type="line"/>
      <point x="226" y="899" type="line"/>
    </contour>
  </outline>
</glyph>
<glyph name="underscore" format="1">
  <advance width="347"/>
  <unicode hex="005F"/>
  <outline>
    <contour>
      <point x="390" y="-68" type="line"/>
      <point x="70" y="-68" type="line"/>
      <point x="70" y="0" type="line"/>
      <point x="390" y="0" type="line"/>
    </contour>
  </outline>
</glyph>
<glyph name="grave" format="1">
  <advance width="222"/>
  <unicode hex="0060"/>
  <outline>
    <contour>
      <point x="177" y="590" type="line"/>
      <point x="114" y="590" type="line"/>
      <point x="58" y="663" type="line"/>
      <point x="46" y="679"/>
      <point x="46" y="688" type="qcurve"/>
      <point x="46" y="718"/>
      <point x="70" y="728" type="qcurve"/>
      <point x="77" y="731"/>
      <point x="85" y="731" type="qcurve"/>
      <point x="117" y="731"/>
      <point x="129" y="701" type="qcurve"/>
    </contour>
  </outline>
</glyph>
<glyph name="a" format="1">
  <advance width="458"/>
  <unicode hex="0061"/>
  <outline>
    <contour>
      <point x="181" y="401" type="qcurve"/>
      <point x="268" y="401"/>
      <point x="331" y="361" type="qcurve"/>
      <point x="331" y="445"/>
      <point x="207" y="445" type="qcurve"/>
      <point x="214" y="509" type="line"/>
      <point x="295" y="509"/>
      <point x="334" y="490" type="qcurve"/>
      <point x="355" y="479"/>
      <point x="387" y="457"/>
      <point x="405" y="421"/>
      <point x="417" y="394"/>
      <point x="419" y="371" type="qcurve"/>
      <point x="422" y="336"/>
      <point x="422" y="298" type="qcurve"/>
      <point x="422" y="0" type="line"/>
      <point x="318" y="-10"/>
      <point x="256" y="-10" type="qcurve"/>
      <point x="37" y="-10"/>
      <point x="37" y="169" type="qcurve"/>
      <point x="37" y="252" type="line"/>
      <point x="37" y="351"/>
      <point x="106" y="385" type="qcurve"/>
      <point x="140" y="401"/>
    </contour>
    <contour>
      <point x="331" y="79" type="qcurve"/>
      <point x="331" y="270" type="line"/>
      <point x="278" y="301"/>
      <point x="210" y="309" type="qcurve"/>
      <point x="203" y="310"/>
      <point x="170" y="310"/>
      <point x="128" y="281"/>
      <point x="128" y="242" type="qcurve"/>
      <point x="128" y="176" type="line"/>
      <point x="128" y="73"/>
      <point x="258" y="73" type="qcurve"/>
      <point x="291" y="73"/>
    </contour>
  </outline>
</glyph>
<glyph name="b" format="1">
  <advance width="484"/>
  <unicode hex="0062"/>
  <outline>
    <contour>
      <point x="169" y="491" type="line"/>
      <point x="213" y="510"/>
      <point x="312" y="510"/>
      <point x="362" y="490" type="qcurve"/>
      <point x="447" y="451"/>
      <point x="447" y="346" type="qcurve"/>
      <point x="447" y="157" type="line"/>
      <point x="447" y="58"/>
      <point x="369" y="18" type="qcurve"/>
      <point x="310" y="-12"/>
      <point x="164" y="-12"/>
      <point x="78" y="0" type="qcurve"/>
      <point x="78" y="700" type="line"/>
      <point x="169" y="700" type="line"/>
    </contour>
    <contour>
      <point x="169" y="397" type="qcurve"/>
      <point x="169" y="79" type="line"/>
      <point x="197" y="73"/>
      <point x="259" y="73"/>
      <point x="318" y="86"/>
      <point x="357" y="125"/>
      <point x="357" y="155" type="qcurve"/>
      <point x="357" y="325" type="line"/>
      <point x="357" y="368"/>
      <point x="334" y="392" type="qcurve"/>
      <point x="308" y="419"/>
      <point x="204" y="419"/>
    </contour>
  </outline>
</glyph>
<glyph name="c" format="1">
  <advance width="383"/>
  <unicode hex="0063"/>
  <outline>
    <contour>
      <point x="247" y="79" type="qcurve"/>
      <point x="293" y="79"/>
      <point x="334" y="92" type="qcurve"/>
      <point x="358" y="6" type="line"/>
      <point x="294" y="-11"/>
      <point x="190" y="-11"/>
      <point x="140" y="5" type="qcurve"/>
      <point x="36" y="39"/>
      <point x="36" y="180" type="qcurve"/>
      <point x="36" y="308" type="line"/>
      <point x="36" y="379"/>
      <point x="64" y="427" type="qcurve"/>
      <point x="112" y="510"/>
      <point x="222" y="510" type="qcurve"/>
      <point x="288" y="510"/>
      <point x="356" y="478" type="qcurve"/>
      <point x="331" y="402" type="line"/>
      <point x="279" y="422"/>
      <point x="208" y="422"/>
      <point x="184" y="412" type="qcurve"/>
      <point x="127" y="387"/>
      <point x="127" y="314" type="qcurve"/>
      <point x="127" y="169" type="line"/>
      <point x="127" y="79"/>
    </contour>
  </outline>
</glyph>
<glyph name="e" format="1">
  <advance width="434"/>
  <unicode hex="0065"/>
  <outline>
    <contour>
      <point x="205" y="72" type="qcurve"/>
      <point x="261" y="72"/>
      <point x="336" y="112" type="qcurve"/>
      <point x="370" y="35" type="line"/>
      <point x="293" y="-12"/>
      <point x="209" y="-12" type="qcurve"/>
      <point x="35" y="-12"/>
      <point x="35" y="134" type="qcurve"/>
      <point x="35" y="339" type="line"/>
      <point x="35" y="420"/>
      <point x="136" y="510"/>
      <point x="302" y="510"/>
      <point x="395" y="421"/>
      <point x="395" y="342" type="qcurve"/>
      <point x="395" y="198" type="line"/>
      <point x="127" y="183" type="line"/>
      <point x="127" y="144" type="line"/>
      <point x="127" y="104"/>
      <point x="174" y="72"/>
    </contour>
    <contour>
      <point x="303" y="278" type="line"/>
      <point x="303" y="343" type="line"/>
      <point x="303" y="384"/>
      <point x="251" y="423"/>
      <point x="174" y="423"/>
      <point x="127" y="376"/>
      <point x="127" y="338" type="qcurve"/>
      <point x="127" y="268" type="line"/>
    </contour>
  </outline>
</glyph>
<glyph name="f" format="1">
  <advance width="314"/>
  <unicode hex="0066"/>
  <outline>
    <contour>
      <point x="170" y="0" type="line"/>
      <point x="78" y="0" type="line"/>
      <point x="78" y="549" type="line"/>
      <point x="78" y="638"/>
      <point x="124" y="674" type="qcurve"/>
      <point x="171" y="711"/>
      <point x="220" y="711" type="qcurve"/>
      <point x="243" y="711"/>
      <point x="277" y="707" type="qcurve"/>
      <point x="262" y="625" type="line"/>
      <point x="250" y="628"/>
      <point x="217" y="628"/>
      <point x="198" y="616" type="qcurve"/>
      <point x="170" y="600"/>
      <point x="170" y="549" type="qcurve"/>
      <point x="170" y="501" type="line"/>
      <point x="267" y="501" type="line"/>
      <point x="243" y="415" type="line"/>
      <point x="170" y="415" type="line"/>
    </contour>
  </outline>
</glyph>
<glyph name="g" format="1">
  <advance width="448"/>
  <unicode hex="0067"/>
  <outline>
    <contour>
      <point x="274" y="-210" type="qcurve"/>
      <point x="252" y="-139" type="line"/>
      <point x="323" y="-130"/>
      <point x="323" y="-52" type="qcurve"/>
      <point x="323" y="27" type="line"/>
      <point x="298" y="-12"/>
      <point x="135" y="-12"/>
      <point x="37" y="84"/>
      <point x="37" y="176" type="qcurve"/>
      <point x="37" y="325" type="line"/>
      <point x="37" y="413"/>
      <point x="140" y="510"/>
      <point x="301" y="510"/>
      <point x="325" y="474" type="qcurve"/>
      <point x="337" y="501" type="line"/>
      <point x="414" y="501" type="line"/>
      <point x="414" y="-64" type="line"/>
      <point x="414" y="-199"/>
    </contour>
    <contour>
      <point x="323" y="211" type="qcurve"/>
      <point x="323" y="322" type="line"/>
      <point x="323" y="370"/>
      <point x="272" y="421"/>
      <point x="178" y="421"/>
      <point x="128" y="367"/>
      <point x="128" y="320" type="qcurve"/>
      <point x="128" y="183" type="line"/>
      <point x="128" y="133"/>
      <point x="175" y="75"/>
      <point x="223" y="75" type="qcurve"/>
      <point x="323" y="75"/>
    </contour>
  </outline>
</glyph>
<glyph name="h" format="1">
  <advance width="493"/>
  <unicode hex="0068"/>
  <outline>
    <contour>
      <point x="155" y="489" type="line"/>
      <point x="192" y="510"/>
      <point x="302" y="510"/>
      <point x="348" y="491" type="qcurve"/>
      <point x="433" y="452"/>
      <point x="433" y="346" type="qcurve"/>
      <point x="433" y="0" type="line"/>
      <point x="342" y="0" type="line"/>
      <point x="342" y="320" type="line"/>
      <point x="342" y="368"/>
      <point x="299" y="420"/>
      <point x="268" y="424" type="qcurve"/>
      <point x="256" y="425"/>
      <point x="244" y="425" type="qcurve"/>
      <point x="192" y="425"/>
      <point x="155" y="402" type="qcurve"/>
      <point x="155" y="0" type="line"/>
      <point x="64" y="0" type="line"/>
      <point x="64" y="700" type="line"/>
      <point x="155" y="700" type="line"/>
    </contour>
  </outline>
</glyph>
<glyph name="i" format="1">
  <advance width="258"/>
  <unicode hex="0069"/>
  <outline>
    <contour>
      <point x="178" y="660" type="qcurve"/>
      <point x="178" y="641"/>
      <point x="148" y="610"/>
      <point x="109" y="610"/>
      <point x="78" y="641"/>
      <point x="78" y="680"/>
      <point x="109" y="710"/>
      <point x="148" y="710"/>
      <point x="178" y="680"/>
    </contour>
    <contour>
      <point x="172" y="0" type="line"/>
      <point x="81" y="0" type="line"/>
      <point x="81" y="501" type="line"/>
      <point x="172" y="501" type="line"/>
    </contour>
  </outline>
</glyph>
<glyph name="j" format="1">
  <advance width="221"/>
  <unicode hex="006A"/>
  <outline>
    <contour>
      <point x="71" y="-42" type="qcurve"/>
      <point x="71" y="415" type="line"/>
      <point x="22" y="423" type="line"/>
      <point x="-1" y="501" type="line"/>
      <point x="162" y="501" type="line"/>
      <point x="162" y="-75" type="line"/>
      <point x="160" y="-131"/>
      <point x="76" y="-209"/>
      <point x="20" y="-209" type="qcurve"/>
      <point x="-2" y="-139" type="line"/>
      <point x="7" y="-139"/>
      <point x="36" y="-125"/>
      <point x="46" y="-116" type="qcurve"/>
      <point x="71" y="-90"/>
    </contour>
    <contour>
      <point x="152" y="625" type="qcurve"/>
      <point x="138" y="610"/>
      <point x="98" y="610"/>
      <point x="67" y="641"/>
      <point x="67" y="681"/>
      <point x="98" y="710"/>
      <point x="138" y="710"/>
      <point x="167" y="681"/>
      <point x="167" y="641"/>
    </contour>
  </outline>
</glyph>
<glyph name="k" format="1">
  <advance width="460"/>
  <unicode hex="006B"/>
  <outline>
    <contour>
      <point x="461" y="0" type="qcurve"/>
      <point x="348" y="0" type="line"/>
      <point x="183" y="276" type="line"/>
      <point x="156" y="251" type="line"/>
      <point x="156" y="0" type="line"/>
      <point x="65" y="0" type="line"/>
      <point x="65" y="700" type="line"/>
      <point x="156" y="700" type="line"/>
      <point x="156" y="366" type="line"/>
      <point x="323" y="520" type="line"/>
      <point x="390" y="456" type="line"/>
      <point x="253" y="339" type="line"/>
      <point x="385" y="120"/>
    </contour>
  </outline>
</glyph>
<glyph name="l" format="1">
  <advance width="249"/>
  <unicode hex="006C"/>
  <outline>
    <contour>
      <point x="169" y="0" type="line"/>
      <point x="78" y="0" type="line"/>
      <point x="78" y="700" type="line"/>
      <point x="169" y="700" type="line"/>
    </contour>
  </outline>
</glyph>
<glyph name="m" format="1">
  <advance width="739"/>
  <unicode hex="006D"/>
  <outline>
    <contour>
      <point x="385" y="461" type="qcurve"/>
      <point x="470" y="509"/>
      <point x="546" y="509" type="qcurve"/>
      <point x="618" y="509"/>
      <point x="702" y="417"/>
      <point x="702" y="346" type="qcurve"/>
      <point x="702" y="0" type="line"/>
      <point x="611" y="0" type="line"/>
      <point x="611" y="318" type="line"/>
      <point x="611" y="424"/>
      <point x="532" y="424" type="qcurve"/>
      <point x="502" y="424"/>
      <point x="461" y="409" type="qcurve"/>
      <point x="437" y="399" type="line"/>
      <point x="446" y="379"/>
      <point x="446" y="352" type="qcurve"/>
      <point x="446" y="0" type="line"/>
      <point x="355" y="0" type="line"/>
      <point x="355" y="316" type="line"/>
      <point x="355" y="371"/>
      <point x="298" y="425"/>
      <point x="216" y="425"/>
      <point x="169" y="398" type="qcurve"/>
      <point x="169" y="0" type="line"/>
      <point x="78" y="0" type="line"/>
      <point x="78" y="501" type="line"/>
      <point x="161" y="501" type="line"/>
      <point x="167" y="485" type="line"/>
      <point x="209" y="509"/>
      <point x="261" y="509" type="qcurve"/>
      <point x="340" y="509"/>
    </contour>
  </outline>
</glyph>
<glyph name="n" format="1">
  <advance width="500"/>
  <unicode hex="006E"/>
  <outline>
    <contour>
      <point x="154" y="485" type="line"/>
      <point x="198" y="509"/>
      <point x="304" y="509"/>
      <point x="348" y="491" type="qcurve"/>
      <point x="433" y="452"/>
      <point x="433" y="346" type="qcurve"/>
      <point x="433" y="0" type="line"/>
      <point x="342" y="0" type="line"/>
      <point x="342" y="325" type="line"/>
      <point x="342" y="373"/>
      <point x="284" y="423"/>
      <point x="198" y="423"/>
      <point x="154" y="400" type="qcurve"/>
      <point x="154" y="0" type="line"/>
      <point x="64" y="0" type="line"/>
      <point x="64" y="501" type="line"/>
      <point x="147" y="501" type="line"/>
    </contour>
  </outline>
</glyph>
<glyph name="o" format="1">
  <advance width="488"/>
  <unicode hex="006F"/>
  <outline>
    <contour>
      <point x="451" y="316" type="qcurve"/>
      <point x="451" y="184" type="line"/>
      <point x="451" y="100"/>
      <point x="359" y="-10"/>
      <point x="173" y="-10"/>
      <point x="78" y="101"/>
      <point x="78" y="184" type="qcurve"/>
      <point x="78" y="316" type="line"/>
      <point x="78" y="411"/>
      <point x="175" y="512"/>
      <point x="353" y="512"/>
      <point x="451" y="407"/>
    </contour>
    <contour>
      <point x="361" y="174" type="qcurve"/>
      <point x="361" y="316" type="line"/>
      <point x="361" y="422"/>
      <point x="266" y="422" type="qcurve"/>
      <point x="169" y="422"/>
      <point x="169" y="316" type="qcurve"/>
      <point x="169" y="174" type="line"/>
      <point x="169" y="127"/>
      <point x="223" y="78"/>
      <point x="309" y="78"/>
      <point x="361" y="128"/>
    </contour>
  </outline>
</glyph>
<glyph name="p" format="1">
  <advance width="492"/>
  <unicode hex="0070"/>
  <outline>
    <contour>
      <point x="169" y="-188" type="line"/>
      <point x="78" y="-210" type="line"/>
      <point x="78" y="501" type="line"/>
      <point x="165" y="501" type="line"/>
      <point x="167" y="479" type="line"/>
      <point x="202" y="509"/>
      <point x="265" y="509" type="qcurve"/>
      <point x="358" y="509"/>
      <point x="455" y="401"/>
      <point x="455" y="315" type="qcurve"/>
      <point x="455" y="176" type="line"/>
      <point x="455" y="85"/>
      <point x="353" y="-12"/>
      <point x="269" y="-12" type="qcurve"/>
      <point x="208" y="-12"/>
      <point x="169" y="16" type="qcurve"/>
    </contour>
    <contour>
      <point x="364" y="189" type="qcurve"/>
      <point x="364" y="319" type="line"/>
      <point x="364" y="370"/>
      <point x="314" y="421"/>
      <point x="224" y="421"/>
      <point x="170" y="371"/>
      <point x="169" y="324" type="qcurve"/>
      <point x="169" y="180" type="line"/>
      <point x="169" y="77"/>
      <point x="269" y="77" type="qcurve"/>
      <point x="364" y="77"/>
    </contour>
  </outline>
</glyph>
<glyph name="q" format="1">
  <advance width="448"/>
  <unicode hex="0071"/>
  <outline>
    <contour>
      <point x="414" y="-210" type="line"/>
      <point x="324" y="-188" type="line"/>
      <point x="324" y="17" type="line"/>
      <point x="289" y="-12"/>
      <point x="139" y="-12"/>
      <point x="37" y="85"/>
      <point x="37" y="176" type="qcurve"/>
      <point x="37" y="314" type="line"/>
      <point x="37" y="400"/>
      <point x="134" y="509"/>
      <point x="227" y="509" type="qcurve"/>
      <point x="281" y="509"/>
      <point x="325" y="476" type="qcurve"/>
      <point x="328" y="501" type="line"/>
      <point x="414" y="501" type="line"/>
    </contour>
    <contour>
      <point x="324" y="184" type="qcurve"/>
      <point x="324" y="317" type="line"/>
      <point x="321" y="399"/>
      <point x="255" y="417" type="qcurve"/>
      <point x="240" y="421"/>
      <point x="208" y="421"/>
      <point x="181" y="413"/>
      <point x="164" y="402" type="qcurve"/>
      <point x="127" y="380"/>
      <point x="127" y="308" type="qcurve"/>
      <point x="127" y="174" type="line"/>
      <point x="127" y="127"/>
      <point x="177" y="77"/>
      <point x="223" y="77" type="qcurve"/>
      <point x="324" y="77"/>
    </contour>
  </outline>
</glyph>
<glyph name="r" format="1">
  <advance width="364"/>
  <unicode hex="0072"/>
  <outline>
    <contour>
      <point x="151" y="486" type="line"/>
      <point x="196" y="509"/>
      <point x="254" y="509" type="qcurve"/>
      <point x="272" y="509"/>
      <point x="330" y="498" type="qcurve"/>
      <point x="308" y="411" type="line"/>
      <point x="281" y="424"/>
      <point x="229" y="424"/>
      <point x="206" y="416" type="qcurve"/>
      <point x="152" y="396"/>
      <point x="152" y="346" type="qcurve"/>
      <point x="152" y="0" type="line"/>
      <point x="61" y="0" type="line"/>
      <point x="61" y="501" type="line"/>
      <point x="147" y="501" type="line"/>
    </contour>
  </outline>
</glyph>
<glyph name="s" format="1">
  <advance width="431"/>
  <unicode hex="0073"/>
  <outline>
    <contour>
      <point x="36" y="127" type="qcurve"/>
      <point x="126" y="134" type="line"/>
      <point x="128" y="107"/>
      <point x="180" y="70"/>
      <point x="258" y="70"/>
      <point x="307" y="107"/>
      <point x="307" y="167"/>
      <point x="257" y="207"/>
      <point x="184" y="230"/>
      <point x="110" y="258"/>
      <point x="82" y="288" type="qcurve"/>
      <point x="47" y="324"/>
      <point x="47" y="426"/>
      <point x="128" y="513"/>
      <point x="219" y="513" type="qcurve"/>
      <point x="251" y="513"/>
      <point x="307" y="498"/>
      <point x="319" y="491" type="qcurve"/>
      <point x="331" y="484" type="line"/>
      <point x="304" y="402" type="line"/>
      <point x="276" y="426"/>
      <point x="176" y="426"/>
      <point x="145" y="394"/>
      <point x="145" y="373" type="qcurve"/>
      <point x="145" y="346"/>
      <point x="204" y="314"/>
      <point x="278" y="289"/>
      <point x="351" y="255"/>
      <point x="402" y="185"/>
      <point x="402" y="72"/>
      <point x="311" y="-15"/>
      <point x="136" y="-15"/>
      <point x="38" y="67"/>
    </contour>
  </outline>
</glyph>
<glyph name="t" format="1">
  <advance width="263"/>
  <unicode hex="0074"/>
  <outline>
    <contour>
      <point x="207" y="59" type="qcurve"/>
      <point x="180" y="-13" type="line"/>
      <point x="44" y="-1"/>
      <point x="44" y="132" type="qcurve"/>
      <point x="44" y="700" type="line"/>
      <point x="136" y="700" type="line"/>
      <point x="136" y="501" type="line"/>
      <point x="240" y="501" type="line"/>
      <point x="216" y="415" type="line"/>
      <point x="136" y="415" type="line"/>
      <point x="136" y="132" type="line"/>
      <point x="136" y="69"/>
    </contour>
  </outline>
</glyph>
<glyph name="u" format="1">
  <advance width="447"/>
  <unicode hex="0075"/>
  <outline>
    <contour>
      <point x="409" y="0" type="line"/>
      <point x="323" y="0" type="line"/>
      <point x="320" y="22" type="line"/>
      <point x="280" y="-11"/>
      <point x="224" y="-11" type="qcurve"/>
      <point x="36" y="-11"/>
      <point x="36" y="172" type="qcurve"/>
      <point x="36" y="501" type="line"/>
      <point x="127" y="501" type="line"/>
      <point x="127" y="180" type="line"/>
      <point x="127" y="77"/>
      <point x="224" y="77" type="qcurve"/>
      <point x="318" y="77"/>
      <point x="318" y="183" type="qcurve"/>
      <point x="318" y="501" type="line"/>
      <point x="409" y="501" type="line"/>
    </contour>
  </outline>
</glyph>
<glyph name="v" format="1">
  <advance width="443"/>
  <unicode hex="0076"/>
  <outline>
    <contour>
      <point x="267" y="0" type="line"/>
      <point x="172" y="0" type="line"/>
      <point x="14" y="501" type="line"/>
      <point x="113" y="501" type="line"/>
      <point x="220" y="147" type="line"/>
      <point x="326" y="501" type="line"/>
      <point x="424" y="501" type="line"/>
    </contour>
  </outline>
</glyph>
<glyph name="w" format="1">
  <advance width="708"/>
  <unicode hex="0077"/>
  <outline>
    <contour>
      <point x="529" y="0" type="line"/>
      <point x="434" y="0" type="line"/>
      <point x="352" y="315" type="line"/>
      <point x="269" y="0" type="line"/>
      <point x="172" y="0" type="line"/>
      <point x="14" y="501" type="line"/>
      <point x="113" y="501" type="line"/>
      <point x="218" y="147" type="line"/>
      <point x="311" y="501" type="line"/>
      <point x="398" y="501" type="line"/>
      <point x="491" y="147" type="line"/>
      <point x="591" y="501" type="line"/>
      <point x="689" y="501" type="line"/>
    </contour>
  </outline>
</glyph>
<glyph name="x" format="1">
  <advance width="529"/>
  <unicode hex="0078"/>
  <outline>
    <contour>
      <point x="487" y="0" type="line"/>
      <point x="379" y="0" type="line"/>
      <point x="279" y="160" type="line"/>
      <point x="179" y="0" type="line"/>
      <point x="67" y="0" type="line"/>
      <point x="223" y="249" type="line"/>
      <point x="67" y="501" type="line"/>
      <point x="179" y="501" type="line"/>
      <point x="279" y="338" type="line"/>
      <point x="382" y="501" type="line"/>
      <point x="492" y="501" type="line"/>
      <point x="334" y="250" type="line"/>
    </contour>
  </outline>
</glyph>
<glyph name="y" format="1">
  <advance width="497"/>
  <unicode hex="0079"/>
  <outline>
    <contour>
      <point x="288" y="-210" type="qcurve"/>
      <point x="255" y="-138" type="line"/>
      <point x="322" y="-127"/>
      <point x="322" y="-58" type="qcurve"/>
      <point x="322" y="18" type="line"/>
      <point x="290" y="-12"/>
      <point x="132" y="-12"/>
      <point x="37" y="83"/>
      <point x="37" y="176" type="qcurve"/>
      <point x="37" y="501" type="line"/>
      <point x="127" y="501" type="line"/>
      <point x="127" y="192" type="line"/>
      <point x="127" y="129"/>
      <point x="173" y="77"/>
      <point x="270" y="77"/>
      <point x="322" y="128"/>
      <point x="322" y="192" type="qcurve"/>
      <point x="322" y="363" type="line"/>
      <point x="322" y="418"/>
      <point x="377" y="501"/>
      <point x="431" y="510" type="qcurve"/>
      <point x="463" y="438" type="line"/>
      <point x="412" y="424"/>
      <point x="412" y="366" type="qcurve"/>
      <point x="412" y="-61" type="line"/>
      <point x="412" y="-125"/>
      <point x="356" y="-198"/>
    </contour>
  </outline>
</glyph>
<glyph name="z" format="1">
  <advance width="482"/>
  <unicode hex="007A"/>
  <outline>
    <contour>
      <point x="445" y="0" type="line"/>
      <point x="78" y="0" type="line"/>
      <point x="78" y="85" type="line"/>
      <point x="310" y="416" type="line"/>
      <point x="87" y="416" type="line"/>
      <point x="87" y="501" type="line"/>
      <point x="431" y="501" type="line"/>
      <point x="431" y="418" type="line"/>
      <point x="198" y="85" type="line"/>
      <point x="445" y="85" type="line"/>
    </contour>
  </outline>
</glyph>
<glyph name="braceleft" format="1">
  <advance width="344"/>
  <unicode hex="007B"/>
  <outline>
    <contour>
      <point x="307" y="-39" type="qcurve"/>
      <point x="281" y="-116" type="line"/>
      <point x="229" y="-97"/>
      <point x="177" y="-49"/>
      <point x="152" y="44"/>
      <point x="152" y="127" type="qcurve"/>
      <point x="152" y="247" type="line"/>
      <point x="152" y="266"/>
      <point x="120" y="315"/>
      <point x="99" y="335"/>
      <point x="78" y="354" type="qcurve"/>
      <point x="102" y="373"/>
      <point x="150" y="435"/>
      <point x="150" y="462" type="qcurve"/>
      <point x="150" y="567" type="line"/>
      <point x="150" y="692"/>
      <point x="204" y="801"/>
      <point x="280" y="822" type="qcurve"/>
      <point x="305" y="749" type="line"/>
      <point x="241" y="732"/>
      <point x="241" y="631" type="qcurve"/>
      <point x="241" y="456" type="line"/>
      <point x="241" y="413"/>
      <point x="183" y="355" type="qcurve"/>
      <point x="243" y="295"/>
      <point x="243" y="253" type="qcurve"/>
      <point x="243" y="79" type="line"/>
      <point x="243" y="-22"/>
    </contour>
  </outline>
</glyph>
<glyph name="braceright" format="1">
  <advance width="344"/>
  <unicode hex="007D"/>
  <outline>
    <contour>
      <point x="104" y="-116" type="qcurve"/>
      <point x="78" y="-39" type="line"/>
      <point x="142" y="-22"/>
      <point x="142" y="79" type="qcurve"/>
      <point x="142" y="253" type="line"/>
      <point x="142" y="295"/>
      <point x="202" y="355" type="qcurve"/>
      <point x="144" y="413"/>
      <point x="144" y="456" type="qcurve"/>
      <point x="144" y="631" type="line"/>
      <point x="144" y="732"/>
      <point x="80" y="749" type="qcurve"/>
      <point x="105" y="822" type="line"/>
      <point x="181" y="801"/>
      <point x="235" y="692"/>
      <point x="235" y="567" type="qcurve"/>
      <point x="235" y="462" type="line"/>
      <point x="235" y="435"/>
      <point x="283" y="373"/>
      <point x="307" y="354" type="qcurve"/>
      <point x="286" y="335"/>
      <point x="265" y="315"/>
      <point x="233" y="266"/>
      <point x="233" y="247" type="qcurve"/>
      <point x="233" y="127" type="line"/>
      <point x="233" y="44"/>
      <point x="208" y="-49"/>
      <point x="156" y="-97"/>
    </contour>
  </outline>
</glyph>
<glyph name="asciitilde" format="1">
  <advance width="531"/>
  <unicode hex="007E"/>
  <outline>
    <contour>
      <point x="371" y="342" type="qcurve"/>
      <point x="425" y="342"/>
      <point x="456" y="379" type="qcurve"/>
      <point x="494" y="320" type="line"/>
      <point x="450" y="263"/>
      <point x="380" y="263" type="qcurve"/>
      <point x="351" y="263"/>
      <point x="261" y="291" type="qcurve"/>
      <point x="233" y="299"/>
      <point x="206" y="299" type="qcurve"/>
      <point x="149" y="299"/>
      <point x="114" y="260" type="qcurve"/>
      <point x="78" y="319" type="line"/>
      <point x="124" y="376"/>
      <point x="195" y="376" type="qcurve"/>
      <point x="222" y="376"/>
      <point x="343" y="342"/>
    </contour>
  </outline>
</glyph>
<glyph name="exclamdown" format="1">
  <advance width="257"/>
  <unicode hex="00A1"/>
  <outline>
    <contour>
      <point x="78" y="58" type="qcurve"/>
      <point x="94" y="590" type="line"/>
      <point x="160" y="590" type="line"/>
      <point x="177" y="57" type="line"/>
      <point x="177" y="0"/>
      <point x="126" y="0" type="qcurve"/>
      <point x="78" y="0"/>
    </contour>
    <contour>
      <point x="172" y="665" type="qcurve"/>
      <point x="172" y="647"/>
      <point x="146" y="621"/>
      <point x="109" y="621"/>
      <point x="83" y="647"/>
      <point x="83" y="684"/>
      <point x="109" y="710"/>
      <point x="146" y="710"/>
      <point x="172" y="684"/>
    </contour>
  </outline>
</glyph>
<glyph name="cent" format="1">
  <advance width="437"/>
  <unicode hex="00A2"/>
  <outline>
    <contour>
      <point x="316" y="-114" type="line"/>
      <point x="226" y="-114" type="line"/>
      <point x="226" y="-6" type="line"/>
      <point x="211" y="-4"/>
      <point x="190" y="2" type="qcurve"/>
      <point x="131" y="22"/>
      <point x="78" y="105"/>
      <point x="78" y="180" type="qcurve"/>
      <point x="78" y="308" type="line"/>
      <point x="78" y="395"/>
      <point x="159" y="496"/>
      <point x="226" y="507" type="qcurve"/>
      <point x="226" y="623" type="line"/>
      <point x="316" y="623" type="line"/>
      <point x="316" y="504" type="line"/>
      <point x="354" y="497"/>
      <point x="398" y="478" type="qcurve"/>
      <point x="373" y="402" type="line"/>
      <point x="345" y="413"/>
      <point x="316" y="418" type="qcurve"/>
      <point x="316" y="80" type="line"/>
      <point x="344" y="83"/>
      <point x="376" y="92" type="qcurve"/>
      <point x="400" y="6" type="line"/>
      <point x="355" y="-5"/>
      <point x="316" y="-8" type="qcurve"/>
    </contour>
    <contour>
      <point x="226" y="87" type="qcurve"/>
      <point x="226" y="412" type="line"/>
      <point x="169" y="387"/>
      <point x="169" y="314" type="qcurve"/>
      <point x="169" y="169" type="line"/>
      <point x="169" y="108"/>
    </contour>
  </outline>
</glyph>
<glyph name="sterling" format="1">
  <advance width="475"/>
  <unicode hex="00A3"/>
  <outline>
    <contour>
      <point x="283" y="228" type="qcurve"/>
      <point x="283" y="149"/>
      <point x="231" y="85" type="qcurve"/>
      <point x="438" y="85" type="line"/>
      <point x="438" y="0" type="line"/>
      <point x="78" y="0" type="line"/>
      <point x="78" y="83" type="line"/>
      <point x="132" y="92"/>
      <point x="192" y="168"/>
      <point x="192" y="225" type="qcurve"/>
      <point x="192" y="254"/>
      <point x="178" y="303" type="qcurve"/>
      <point x="101" y="303" type="line"/>
      <point x="101" y="393" type="line"/>
      <point x="149" y="393" type="line"/>
      <point x="125" y="465"/>
      <point x="125" y="515" type="qcurve"/>
      <point x="125" y="602"/>
      <point x="234" y="709"/>
      <point x="387" y="709"/>
      <point x="427" y="684" type="qcurve"/>
      <point x="399" y="602" type="line"/>
      <point x="361" y="623"/>
      <point x="265" y="623"/>
      <point x="215" y="553"/>
      <point x="215" y="477"/>
      <point x="242" y="393" type="qcurve"/>
      <point x="421" y="393" type="line"/>
      <point x="421" y="303" type="line"/>
      <point x="271" y="303" type="line"/>
      <point x="283" y="256"/>
    </contour>
  </outline>
</glyph>
<glyph name="currency" format="1">
  <advance width="491"/>
  <unicode hex="00A4"/>
  <outline>
    <contour>
      <point x="391" y="134" type="line"/>
      <point x="354" y="172" type="line"/>
      <point x="315" y="148"/>
      <point x="215" y="148"/>
      <point x="179" y="172" type="qcurve"/>
      <point x="144" y="133" type="line"/>
      <point x="84" y="195" type="line"/>
      <point x="118" y="228" type="line"/>
      <point x="92" y="264"/>
      <point x="92" y="370"/>
      <point x="116" y="411" type="qcurve"/>
      <point x="79" y="447" type="line"/>
      <point x="145" y="509" type="line"/>
      <point x="177" y="474" type="line"/>
      <point x="214" y="499"/>
      <point x="324" y="499"/>
      <point x="354" y="474" type="qcurve"/>
      <point x="390" y="510" type="line"/>
      <point x="453" y="447" type="line"/>
      <point x="417" y="415" type="line"/>
      <point x="443" y="363"/>
      <point x="443" y="285"/>
      <point x="416" y="229" type="qcurve"/>
      <point x="450" y="196" type="line"/>
    </contour>
    <contour>
      <point x="330" y="260" type="qcurve"/>
      <point x="357" y="286"/>
      <point x="357" y="360"/>
      <point x="304" y="414"/>
      <point x="229" y="414"/>
      <point x="175" y="361"/>
      <point x="175" y="286"/>
      <point x="229" y="234"/>
      <point x="304" y="234"/>
    </contour>
  </outline>
</glyph>
<glyph name="yen" format="1">
  <advance width="587"/>
  <unicode hex="00A5"/>
  <outline>
    <contour>
      <point x="360" y="0" type="line"/>
      <point x="268" y="0" type="line"/>
      <point x="268" y="221" type="line"/>
      <point x="156" y="221" type="line"/>
      <point x="156" y="309" type="line"/>
      <point x="268" y="309" type="line"/>
      <point x="268" y="324" type="line"/>
      <point x="251" y="357" type="line"/>
      <point x="156" y="357" type="line"/>
      <point x="156" y="445" type="line"/>
      <point x="207" y="445" type="line"/>
      <point x="78" y="700" type="line"/>
      <point x="175" y="700" type="line"/>
      <point x="302" y="445" type="line"/>
      <point x="323" y="445" type="line"/>
      <point x="452" y="700" type="line"/>
      <point x="550" y="700" type="line"/>
      <point x="421" y="445" type="line"/>
      <point x="476" y="445" type="line"/>
      <point x="476" y="357" type="line"/>
      <point x="376" y="357" type="line"/>
      <point x="360" y="324" type="line"/>
      <point x="360" y="309" type="line"/>
      <point x="476" y="309" type="line"/>
      <point x="476" y="221" type="line"/>
      <point x="360" y="221" type="line"/>
    </contour>
  </outline>
</glyph>
<glyph name="section" format="1">
  <advance width="591"/>
  <unicode hex="00A7"/>
  <outline>
    <contour>
      <point x="128" y="445" type="qcurve"/>
      <point x="96" y="485"/>
      <point x="96" y="540" type="qcurve"/>
      <point x="96" y="610"/>
      <point x="212" y="712"/>
      <point x="321" y="712" type="qcurve"/>
      <point x="404" y="712"/>
      <point x="467" y="682" type="qcurve"/>
      <point x="462" y="668" type="line"/>
      <point x="454" y="646"/>
      <point x="437" y="596" type="qcurve"/>
      <point x="380" y="625"/>
      <point x="323" y="625" type="qcurve"/>
      <point x="190" y="625"/>
      <point x="190" y="537" type="qcurve"/>
      <point x="190" y="502"/>
      <point x="262" y="454"/>
      <point x="365" y="421"/>
      <point x="470" y="377"/>
      <point x="510" y="332" type="qcurve"/>
      <point x="554" y="282"/>
      <point x="554" y="198" type="qcurve"/>
      <point x="554" y="137"/>
      <point x="530" y="92" type="qcurve"/>
      <point x="553" y="57"/>
      <point x="553" y="6" type="qcurve"/>
      <point x="553" y="-86"/>
      <point x="436" y="-197"/>
      <point x="205" y="-197"/>
      <point x="80" y="-82"/>
      <point x="78" y="-8" type="qcurve"/>
      <point x="172" y="-8" type="line"/>
      <point x="174" y="-47"/>
      <point x="248" y="-113"/>
      <point x="371" y="-113"/>
      <point x="459" y="-63"/>
      <point x="459" y="-4" type="qcurve"/>
      <point x="459" y="62"/>
      <point x="385" y="96" type="qcurve"/>
      <point x="352" y="111"/>
      <point x="272" y="139"/>
      <point x="193" y="173"/>
      <point x="129" y="218"/>
      <point x="93" y="293"/>
      <point x="93" y="401"/>
    </contour>
    <contour>
      <point x="455" y="160" type="qcurve"/>
      <point x="462" y="186"/>
      <point x="462" y="209" type="qcurve"/>
      <point x="462" y="250"/>
      <point x="395" y="314"/>
      <point x="314" y="345"/>
      <point x="217" y="380"/>
      <point x="200" y="392" type="qcurve"/>
      <point x="186" y="370"/>
      <point x="186" y="295"/>
      <point x="246" y="240"/>
      <point x="284" y="228" type="qcurve"/>
      <point x="414" y="187"/>
    </contour>
  </outline>
</glyph>
<glyph name="dieresis" format="1">
  <advance width="222"/>
  <unicode hex="00A8"/>
  <outline>
    <contour>
      <point x="69" y="733" type="qcurve"/>
      <point x="81" y="721"/>
      <point x="81" y="687"/>
      <point x="57" y="664"/>
      <point x="24" y="664"/>
      <point x="0" y="688"/>
      <point x="0" y="721"/>
      <point x="23" y="745"/>
      <point x="57" y="745"/>
    </contour>
    <contour>
      <point x="210" y="676" type="qcurve"/>
      <point x="198" y="664"/>
      <point x="164" y="664"/>
      <point x="140" y="688"/>
      <point x="140" y="722"/>
      <point x="164" y="746"/>
      <point x="198" y="746"/>
      <point x="222" y="722"/>
      <point x="222" y="688"/>
    </contour>
  </outline>
</glyph>
<glyph name="copyright" format="1">
  <advance width="800"/>
  <unicode hex="00A9"/>
  <outline>
    <contour>
      <point x="774" y="248" type="qcurve"/>
      <point x="774" y="89"/>
      <point x="556" y="-127"/>
      <point x="245" y="-127"/>
      <point x="25" y="89"/>
      <point x="25" y="407"/>
      <point x="243" y="621"/>
      <point x="558" y="621"/>
      <point x="774" y="407"/>
    </contour>
    <contour>
      <point x="118" y="247" type="qcurve"/>
      <point x="118" y="123"/>
      <point x="281" y="-38"/>
      <point x="519" y="-38"/>
      <point x="682" y="124"/>
      <point x="682" y="367"/>
      <point x="518" y="532"/>
      <point x="282" y="532"/>
      <point x="118" y="372"/>
    </contour>
    <contour>
      <point x="507" y="175" type="qcurve"/>
      <point x="599" y="175" type="line"/>
      <point x="583" y="103"/>
      <point x="475" y="16"/>
      <point x="405" y="16" type="qcurve"/>
      <point x="306" y="16"/>
      <point x="191" y="146"/>
      <point x="191" y="343"/>
      <point x="305" y="478"/>
      <point x="403" y="478" type="qcurve"/>
      <point x="476" y="478"/>
      <point x="586" y="392"/>
      <point x="598" y="323" type="qcurve"/>
      <point x="507" y="323" type="line"/>
      <point x="501" y="348"/>
      <point x="441" y="385"/>
      <point x="402" y="385" type="qcurve"/>
      <point x="340" y="385"/>
      <point x="281" y="306"/>
      <point x="281" y="188"/>
      <point x="344" y="108"/>
      <point x="403" y="108" type="qcurve"/>
      <point x="444" y="108"/>
      <point x="505" y="146"/>
    </contour>
  </outline>
</glyph>
<glyph name="ordfeminine" format="1">
  <advance width="384"/>
  <unicode hex="00AA"/>
  <outline>
    <contour>
      <point x="347" y="391" type="line"/>
      <point x="278" y="380"/>
      <point x="216" y="380"/>
      <point x="155" y="386"/>
      <point x="109" y="414"/>
      <point x="78" y="474"/>
      <point x="78" y="519" type="qcurve"/>
      <point x="78" y="598"/>
      <point x="137" y="624" type="qcurve"/>
      <point x="158" y="633"/>
      <point x="223" y="633"/>
      <point x="272" y="604" type="qcurve"/>
      <point x="272" y="632"/>
      <point x="240" y="655"/>
      <point x="190" y="655"/>
      <point x="173" y="654" type="qcurve"/>
      <point x="181" y="709" type="line"/>
      <point x="191" y="709"/>
      <point x="201" y="709" type="qcurve"/>
      <point x="284" y="709"/>
      <point x="347" y="642"/>
      <point x="347" y="555" type="qcurve"/>
    </contour>
    <contour>
      <point x="148" y="513" type="qcurve"/>
      <point x="148" y="447"/>
      <point x="227" y="447" type="qcurve"/>
      <point x="248" y="447"/>
      <point x="272" y="452" type="qcurve"/>
      <point x="272" y="538" type="line"/>
      <point x="221" y="566"/>
      <point x="187" y="566" type="qcurve"/>
      <point x="171" y="566"/>
      <point x="148" y="542"/>
    </contour>
  </outline>
</glyph>
<glyph name="guillemotleft" format="1">
  <advance width="511"/>
  <unicode hex="00AB"/>
  <outline>
    <contour>
      <point x="288" y="136" type="line"/>
      <point x="229" y="80" type="line"/>
      <point x="42" y="267" type="line"/>
      <point x="42" y="268" type="line"/>
      <point x="229" y="455" type="line"/>
      <point x="289" y="395" type="line"/>
      <point x="159" y="267" type="line"/>
    </contour>
    <contour>
      <point x="508" y="136" type="line"/>
      <point x="449" y="80" type="line"/>
      <point x="262" y="267" type="line"/>
      <point x="262" y="268" type="line"/>
      <point x="449" y="455" type="line"/>
      <point x="509" y="395" type="line"/>
      <point x="379" y="267" type="line"/>
    </contour>
  </outline>
</glyph>
<glyph name="registered" format="1">
  <advance width="800"/>
  <unicode hex="00AE"/>
  <outline>
    <contour>
      <point x="566" y="39" type="line"/>
      <point x="473" y="39" type="line"/>
      <point x="393" y="229" type="line"/>
      <point x="360" y="229" type="line"/>
      <point x="360" y="39" type="line"/>
      <point x="273" y="39" type="line"/>
      <point x="273" y="476" type="line"/>
      <point x="403" y="476" type="line"/>
      <point x="480" y="476"/>
      <point x="557" y="411"/>
      <point x="557" y="351" type="qcurve"/>
      <point x="557" y="267"/>
      <point x="476" y="239" type="qcurve"/>
    </contour>
    <contour>
      <point x="360" y="302" type="line"/>
      <point x="400" y="302" type="line"/>
      <point x="468" y="302"/>
      <point x="468" y="351" type="qcurve"/>
      <point x="468" y="374"/>
      <point x="435" y="402"/>
      <point x="413" y="402" type="qcurve"/>
      <point x="360" y="402" type="line"/>
    </contour>
    <contour>
      <point x="774" y="248" type="qcurve"/>
      <point x="774" y="89"/>
      <point x="556" y="-127"/>
      <point x="245" y="-127"/>
      <point x="25" y="89"/>
      <point x="25" y="407"/>
      <point x="243" y="621"/>
      <point x="558" y="621"/>
      <point x="774" y="407"/>
    </contour>
    <contour>
      <point x="118" y="247" type="qcurve"/>
      <point x="118" y="123"/>
      <point x="281" y="-38"/>
      <point x="519" y="-38"/>
      <point x="682" y="124"/>
      <point x="682" y="367"/>
      <point x="518" y="532"/>
      <point x="282" y="532"/>
      <point x="118" y="372"/>
    </contour>
  </outline>
</glyph>
<glyph name="overscore" format="1">
  <advance width="336"/>
  <unicode hex="00AF"/>
  <outline>
    <contour>
      <point x="299" y="619" type="line"/>
      <point x="78" y="619" type="line"/>
      <point x="78" y="698" type="line"/>
      <point x="299" y="698" type="line"/>
    </contour>
  </outline>
</glyph>
<glyph name="degree" format="1">
  <advance width="403"/>
  <unicode hex="00B0"/>
  <outline>
    <contour>
      <point x="324" y="463" type="qcurve"/>
      <point x="282" y="421"/>
      <point x="162" y="421"/>
      <point x="78" y="505"/>
      <point x="78" y="625"/>
      <point x="162" y="709"/>
      <point x="282" y="709"/>
      <point x="366" y="625"/>
      <point x="366" y="505"/>
    </contour>
    <contour>
      <point x="269" y="519" type="qcurve"/>
      <point x="288" y="539"/>
      <point x="288" y="591"/>
      <point x="251" y="631"/>
      <point x="193" y="631"/>
      <point x="156" y="591"/>
      <point x="156" y="539"/>
      <point x="193" y="499"/>
      <point x="251" y="499"/>
    </contour>
  </outline>
</glyph>
<glyph name="plusminus" format="1">
  <advance width="435"/>
  <unicode hex="00B1"/>
  <outline>
    <contour>
      <point x="398" y="218" type="line"/>
      <point x="78" y="218" type="line"/>
      <point x="78" y="301" type="line"/>
      <point x="195" y="301" type="line"/>
      <point x="195" y="351" type="line"/>
      <point x="78" y="351" type="line"/>
      <point x="78" y="429" type="line"/>
      <point x="195" y="429" type="line"/>
      <point x="195" y="545" type="line"/>
      <point x="280" y="545" type="line"/>
      <point x="280" y="429" type="line"/>
      <point x="398" y="429" type="line"/>
      <point x="398" y="351" type="line"/>
      <point x="280" y="351" type="line"/>
      <point x="280" y="301" type="line"/>
      <point x="398" y="301" type="line"/>
    </contour>
  </outline>
</glyph>
<glyph name="acute" format="1">
  <advance width="222"/>
  <unicode hex="00B4"/>
  <outline>
    <contour>
      <point x="109" y="588" type="line"/>
      <point x="46" y="588" type="line"/>
      <point x="94" y="699" type="line"/>
      <point x="106" y="729"/>
      <point x="139" y="729" type="qcurve"/>
      <point x="146" y="729"/>
      <point x="153" y="726" type="qcurve"/>
      <point x="177" y="716"/>
      <point x="177" y="677"/>
      <point x="165" y="661" type="qcurve"/>
    </contour>
  </outline>
</glyph>
<glyph name="mu" format="1">
  <advance width="478"/>
  <unicode hex="00B5"/>
  <outline>
    <contour>
      <point x="346" y="13" type="qcurve"/>
      <point x="318" y="-12"/>
      <point x="205" y="-12"/>
      <point x="128" y="21" type="qcurve"/>
      <point x="128" y="-210" type="line"/>
      <point x="37" y="-201" type="line"/>
      <point x="37" y="501" type="line"/>
      <point x="128" y="501" type="line"/>
      <point x="128" y="109" type="line"/>
      <point x="136" y="101"/>
      <point x="209" y="74"/>
      <point x="244" y="74" type="qcurve"/>
      <point x="325" y="74"/>
      <point x="325" y="180" type="qcurve"/>
      <point x="325" y="497" type="line"/>
      <point x="417" y="510" type="line"/>
      <point x="417" y="69" type="line"/>
      <point x="420" y="41"/>
      <point x="444" y="27" type="qcurve"/>
      <point x="370" y="-6" type="line"/>
      <point x="367" y="-7"/>
      <point x="352" y="4"/>
    </contour>
  </outline>
</glyph>
<glyph name="cedilla" format="1">
  <advance width="260"/>
  <unicode hex="00B8"/>
  <outline>
    <contour>
      <point x="70" y="-204" type="qcurve"/>
      <point x="101" y="-138" type="line"/>
      <point x="138" y="-163"/>
      <point x="170" y="-163" type="qcurve"/>
      <point x="239" y="-163"/>
      <point x="239" y="-122" type="qcurve"/>
      <point x="239" y="-100"/>
      <point x="219" y="-93" type="qcurve"/>
      <point x="213" y="-91"/>
      <point x="188" y="-91"/>
      <point x="164" y="-101" type="qcurve"/>
      <point x="123" y="-120" type="line"/>
      <point x="94" y="-78" type="line"/>
      <point x="155" y="0" type="line"/>
      <point x="216" y="0" type="line"/>
      <point x="184" y="-44" type="line"/>
      <point x="200" y="-37"/>
      <point x="253" y="-37"/>
      <point x="303" y="-82"/>
      <point x="303" y="-175"/>
      <point x="220" y="-224"/>
      <point x="125" y="-224"/>
    </contour>
  </outline>
</glyph>
<glyph name="guillemotright" format="1">
  <advance width="517"/>
  <unicode hex="00BB"/>
  <outline>
    <contour>
      <point x="281" y="80" type="line"/>
      <point x="222" y="136" type="line"/>
      <point x="352" y="267" type="line"/>
      <point x="221" y="395" type="line"/>
      <point x="281" y="455" type="line"/>
      <point x="468" y="268" type="line"/>
      <point x="468" y="267" type="line"/>
    </contour>
    <contour>
      <point x="61" y="80" type="line"/>
      <point x="2" y="136" type="line"/>
      <point x="132" y="267" type="line"/>
      <point x="1" y="395" type="line"/>
      <point x="61" y="455" type="line"/>
      <point x="248" y="268" type="line"/>
      <point x="248" y="267" type="line"/>
    </contour>
  </outline>
</glyph>
<glyph name="questiondown" format="1">
  <advance width="480"/>
  <unicode hex="00BF"/>
  <outline>
    <contour>
      <point x="350" y="177" type="qcurve"/>
      <point x="443" y="177" type="line"/>
      <point x="443" y="102"/>
      <point x="350" y="0"/>
      <point x="265" y="0" type="qcurve"/>
      <point x="224" y="0"/>
      <point x="186" y="17" type="qcurve"/>
      <point x="116" y="49"/>
      <point x="87" y="130" type="qcurve"/>
      <point x="78" y="154"/>
      <point x="78" y="174" type="qcurve"/>
      <point x="78" y="237"/>
      <point x="114" y="289" type="qcurve"/>
      <point x="132" y="315"/>
      <point x="185" y="371"/>
      <point x="198" y="386" type="qcurve"/>
      <point x="230" y="427"/>
      <point x="232" y="527" type="qcurve"/>
      <point x="232" y="590" type="line"/>
      <point x="321" y="590" type="line"/>
      <point x="321" y="497" type="line"/>
      <point x="321" y="451"/>
      <point x="293" y="373"/>
      <point x="259" y="329"/>
      <point x="208" y="270"/>
      <point x="172" y="213"/>
      <point x="172" y="180" type="qcurve"/>
      <point x="172" y="138"/>
      <point x="227" y="87"/>
      <point x="301" y="87"/>
      <point x="350" y="135"/>
    </contour>
    <contour>
      <point x="322" y="664" type="qcurve"/>
      <point x="322" y="646"/>
      <point x="296" y="620"/>
      <point x="259" y="620"/>
      <point x="233" y="646"/>
      <point x="233" y="683"/>
      <point x="259" y="709"/>
      <point x="296" y="709"/>
      <point x="322" y="683"/>
    </contour>
  </outline>
</glyph>
<glyph name="Agrave" format="1">
  <advance width="527"/>
  <unicode hex="00C0"/>
  <outline>
    <contour>
      <point x="517" y="0" type="line"/>
      <point x="411" y="0" type="line"/>
      <point x="356" y="205" type="line"/>
      <point x="172" y="205" type="line"/>
      <point x="119" y="0" type="line"/>
      <point x="18" y="0" type="line"/>
      <point x="203" y="700" type="line"/>
      <point x="322" y="700" type="line"/>
    </contour>
    <contour>
      <point x="334" y="300" type="line"/>
      <point x="262" y="550" type="line"/>
      <point x="194" y="300" type="line"/>
    </contour>
    <contour>
      <point x="282" y="733" type="line"/>
      <point x="219" y="733" type="line"/>
      <point x="163" y="806" type="line"/>
      <point x="151" y="822"/>
      <point x="151" y="832" type="qcurve"/>
      <point x="151" y="861"/>
      <point x="175" y="871" type="qcurve"/>
      <point x="182" y="874"/>
      <point x="190" y="874" type="qcurve"/>
      <point x="222" y="874"/>
      <point x="234" y="844" type="qcurve"/>
    </contour>
  </outline>
</glyph>
<glyph name="Aacute" format="1">
  <advance width="527"/>
  <unicode hex="00C1"/>
  <outline>
    <contour>
      <point x="517" y="0" type="line"/>
      <point x="411" y="0" type="line"/>
      <point x="356" y="205" type="line"/>
      <point x="172" y="205" type="line"/>
      <point x="119" y="0" type="line"/>
      <point x="18" y="0" type="line"/>
      <point x="203" y="700" type="line"/>
      <point x="322" y="700" type="line"/>
    </contour>
    <contour>
      <point x="334" y="300" type="line"/>
      <point x="262" y="550" type="line"/>
      <point x="194" y="300" type="line"/>
    </contour>
    <contour>
      <point x="297" y="731" type="line"/>
      <point x="234" y="731" type="line"/>
      <point x="282" y="842" type="line"/>
      <point x="294" y="872"/>
      <point x="327" y="872" type="qcurve"/>
      <point x="334" y="872"/>
      <point x="341" y="869" type="qcurve"/>
      <point x="365" y="859"/>
      <point x="365" y="820"/>
      <point x="353" y="804" type="qcurve"/>
    </contour>
  </outline>
</glyph>
<glyph name="Acircumflex" format="1">
  <advance width="527"/>
  <unicode hex="00C2"/>
  <outline>
    <contour>
      <point x="517" y="0" type="line"/>
      <point x="411" y="0" type="line"/>
      <point x="356" y="205" type="line"/>
      <point x="172" y="205" type="line"/>
      <point x="119" y="0" type="line"/>
      <point x="18" y="0" type="line"/>
      <point x="203" y="700" type="line"/>
      <point x="322" y="700" type="line"/>
    </contour>
    <contour>
      <point x="334" y="300" type="line"/>
      <point x="262" y="550" type="line"/>
      <point x="194" y="300" type="line"/>
    </contour>
    <contour>
      <point x="409" y="771" type="line"/>
      <point x="352" y="732" type="line"/>
      <point x="266" y="822" type="line"/>
      <point x="175" y="732" type="line"/>
      <point x="119" y="771" type="line"/>
      <point x="267" y="912" type="line"/>
    </contour>
  </outline>
</glyph>
<glyph name="Atilde" format="1">
  <advance width="527"/>
  <unicode hex="00C3"/>
  <outline>
    <contour>
      <point x="517" y="0" type="line"/>
      <point x="411" y="0" type="line"/>
      <point x="356" y="205" type="line"/>
      <point x="172" y="205" type="line"/>
      <point x="119" y="0" type="line"/>
      <point x="18" y="0" type="line"/>
      <point x="203" y="700" type="line"/>
      <point x="322" y="700" type="line"/>
    </contour>
    <contour>
      <point x="334" y="300" type="line"/>
      <point x="262" y="550" type="line"/>
      <point x="194" y="300" type="line"/>
    </contour>
    <contour>
      <point x="335" y="802" type="qcurve"/>
      <point x="374" y="802"/>
      <point x="405" y="837" type="qcurve"/>
      <point x="441" y="781" type="line"/>
      <point x="396" y="728"/>
      <point x="345" y="728" type="qcurve"/>
      <point x="327" y="728"/>
      <point x="281" y="747"/>
      <point x="231" y="770"/>
      <point x="206" y="770" type="qcurve"/>
      <point x="164" y="770"/>
      <point x="130" y="734" type="qcurve"/>
      <point x="96" y="790" type="line"/>
      <point x="143" y="843"/>
      <point x="196" y="843" type="qcurve"/>
      <point x="214" y="843"/>
      <point x="259" y="825"/>
      <point x="310" y="802"/>
    </contour>
  </outline>
</glyph>
<glyph name="Adieresis" format="1">
  <advance width="527"/>
  <unicode hex="00C4"/>
  <outline>
    <contour>
      <point x="517" y="0" type="line"/>
      <point x="411" y="0" type="line"/>
      <point x="356" y="205" type="line"/>
      <point x="172" y="205" type="line"/>
      <point x="119" y="0" type="line"/>
      <point x="18" y="0" type="line"/>
      <point x="203" y="700" type="line"/>
      <point x="322" y="700" type="line"/>
    </contour>
    <contour>
      <point x="334" y="300" type="line"/>
      <point x="262" y="550" type="line"/>
      <point x="194" y="300" type="line"/>
    </contour>
    <contour>
      <point x="220" y="800" type="qcurve"/>
      <point x="232" y="788"/>
      <point x="232" y="754"/>
      <point x="208" y="731"/>
      <point x="174" y="731"/>
      <point x="151" y="754"/>
      <point x="151" y="788"/>
      <point x="174" y="812"/>
      <point x="208" y="812"/>
    </contour>
    <contour>
      <point x="361" y="743" type="qcurve"/>
      <point x="349" y="731"/>
      <point x="315" y="731"/>
      <point x="291" y="755"/>
      <point x="291" y="788"/>
      <point x="316" y="813"/>
      <point x="349" y="813"/>
      <point x="373" y="789"/>
      <point x="373" y="755"/>
    </contour>
  </outline>
</glyph>
<glyph name="Aring" format="1">
  <advance width="527"/>
  <unicode hex="00C5"/>
  <outline>
    <contour>
      <point x="517" y="0" type="line"/>
      <point x="411" y="0" type="line"/>
      <point x="356" y="205" type="line"/>
      <point x="172" y="205" type="line"/>
      <point x="119" y="0" type="line"/>
      <point x="18" y="0" type="line"/>
      <point x="198" y="682" type="line"/>
      <point x="154" y="715"/>
      <point x="154" y="815"/>
      <point x="218" y="879"/>
      <point x="308" y="879"/>
      <point x="372" y="815"/>
      <point x="372" y="714"/>
      <point x="327" y="681" type="qcurve"/>
    </contour>
    <contour>
      <point x="334" y="300" type="line"/>
      <point x="262" y="550" type="line"/>
      <point x="194" y="300" type="line"/>
    </contour>
    <contour>
      <point x="293" y="739" type="qcurve"/>
      <point x="306" y="752"/>
      <point x="306" y="788"/>
      <point x="281" y="813"/>
      <point x="245" y="813"/>
      <point x="220" y="788"/>
      <point x="220" y="752"/>
      <point x="245" y="727"/>
      <point x="281" y="727"/>
    </contour>
  </outline>
</glyph>
<glyph name="AE" format="1">
  <advance width="816"/>
  <unicode hex="00C6"/>
  <outline>
    <contour>
      <point x="777" y="0" type="line"/>
      <point x="444" y="0" type="line"/>
      <point x="445" y="212" type="line"/>
      <point x="293" y="212" type="line"/>
      <point x="183" y="0" type="line"/>
      <point x="78" y="0" type="line"/>
      <point x="444" y="700" type="line"/>
      <point x="779" y="700" type="line"/>
      <point x="779" y="610" type="line"/>
      <point x="536" y="610" type="line"/>
      <point x="536" y="413" type="line"/>
      <point x="702" y="413" type="line"/>
      <point x="673" y="325" type="line"/>
      <point x="536" y="325" type="line"/>
      <point x="536" y="83" type="line"/>
      <point x="777" y="83" type="line"/>
    </contour>
    <contour>
      <point x="445" y="300" type="line"/>
      <point x="445" y="507" type="line"/>
      <point x="338" y="300" type="line"/>
    </contour>
  </outline>
</glyph>
<glyph name="Ccedilla" format="1">
  <advance width="432"/>
  <unicode hex="00C7"/>
  <outline>
    <contour>
      <point x="412" y="107" type="qcurve"/>
      <point x="427" y="23" type="line"/>
      <point x="345" y="-9"/>
      <point x="266" y="-10" type="qcurve"/>
      <point x="242" y="-44" type="line"/>
      <point x="258" y="-37"/>
      <point x="311" y="-37"/>
      <point x="361" y="-82"/>
      <point x="361" y="-175"/>
      <point x="278" y="-224"/>
      <point x="183" y="-224"/>
      <point x="128" y="-204" type="qcurve"/>
      <point x="159" y="-138" type="line"/>
      <point x="196" y="-163"/>
      <point x="228" y="-163" type="qcurve"/>
      <point x="297" y="-163"/>
      <point x="297" y="-122" type="qcurve"/>
      <point x="297" y="-100"/>
      <point x="277" y="-93" type="qcurve"/>
      <point x="271" y="-91"/>
      <point x="246" y="-91"/>
      <point x="222" y="-101" type="qcurve"/>
      <point x="181" y="-120" type="line"/>
      <point x="152" y="-78" type="line"/>
      <point x="208" y="-6" type="line"/>
      <point x="143" y="6"/>
      <point x="66" y="98"/>
      <point x="66" y="183" type="qcurve"/>
      <point x="66" y="504" type="line"/>
      <point x="66" y="580"/>
      <point x="109" y="658"/>
      <point x="153" y="685" type="qcurve"/>
      <point x="198" y="710"/>
      <point x="260" y="710" type="qcurve"/>
      <point x="337" y="710"/>
      <point x="402" y="677" type="qcurve"/>
      <point x="376" y="599" type="line"/>
      <point x="328" y="617"/>
      <point x="225" y="617"/>
      <point x="157" y="566"/>
      <point x="157" y="513" type="qcurve"/>
      <point x="157" y="185" type="line"/>
      <point x="157" y="140"/>
      <point x="179" y="115" type="qcurve"/>
      <point x="207" y="83"/>
      <point x="331" y="83"/>
    </contour>
  </outline>
</glyph>
<glyph name="Egrave" format="1">
  <advance width="465"/>
  <unicode hex="00C8"/>
  <outline>
    <contour>
      <point x="410" y="0" type="line"/>
      <point x="78" y="0" type="line"/>
      <point x="78" y="700" type="line"/>
      <point x="412" y="700" type="line"/>
      <point x="412" y="610" type="line"/>
      <point x="169" y="610" type="line"/>
      <point x="169" y="413" type="line"/>
      <point x="325" y="413" type="line"/>
      <point x="298" y="325" type="line"/>
      <point x="169" y="325" type="line"/>
      <point x="169" y="82" type="line"/>
      <point x="410" y="82" type="line"/>
    </contour>
    <contour>
      <point x="276" y="732" type="line"/>
      <point x="213" y="732" type="line"/>
      <point x="157" y="805" type="line"/>
      <point x="145" y="821"/>
      <point x="145" y="830" type="qcurve"/>
      <point x="145" y="860"/>
      <point x="169" y="870" type="qcurve"/>
      <point x="176" y="873"/>
      <point x="184" y="873" type="qcurve"/>
      <point x="216" y="873"/>
      <point x="228" y="843" type="qcurve"/>
    </contour>
  </outline>
</glyph>
<glyph name="Eacute" format="1">
  <advance width="465"/>
  <unicode hex="00C9"/>
  <outline>
    <contour>
      <point x="410" y="0" type="line"/>
      <point x="78" y="0" type="line"/>
      <point x="78" y="700" type="line"/>
      <point x="412" y="700" type="line"/>
      <point x="412" y="610" type="line"/>
      <point x="169" y="610" type="line"/>
      <point x="169" y="413" type="line"/>
      <point x="325" y="413" type="line"/>
      <point x="298" y="325" type="line"/>
      <point x="169" y="325" type="line"/>
      <point x="169" y="82" type="line"/>
      <point x="410" y="82" type="line"/>
    </contour>
    <contour>
      <point x="300" y="730" type="line"/>
      <point x="237" y="730" type="line"/>
      <point x="285" y="841" type="line"/>
      <point x="297" y="871"/>
      <point x="330" y="871" type="qcurve"/>
      <point x="337" y="871"/>
      <point x="344" y="868" type="qcurve"/>
      <point x="368" y="858"/>
      <point x="368" y="819"/>
      <point x="356" y="803" type="qcurve"/>
    </contour>
  </outline>
</glyph>
<glyph name="Ecircumflex" format="1">
  <advance width="465"/>
  <unicode hex="00CA"/>
  <outline>
    <contour>
      <point x="410" y="0" type="line"/>
      <point x="78" y="0" type="line"/>
      <point x="78" y="700" type="line"/>
      <point x="412" y="700" type="line"/>
      <point x="412" y="610" type="line"/>
      <point x="169" y="610" type="line"/>
      <point x="169" y="413" type="line"/>
      <point x="325" y="413" type="line"/>
      <point x="298" y="325" type="line"/>
      <point x="169" y="325" type="line"/>
      <point x="169" y="82" type="line"/>
      <point x="410" y="82" type="line"/>
    </contour>
    <contour>
      <point x="392" y="771" type="line"/>
      <point x="335" y="732" type="line"/>
      <point x="249" y="822" type="line"/>
      <point x="158" y="732" type="line"/>
      <point x="102" y="771" type="line"/>
      <point x="250" y="912" type="line"/>
    </contour>
  </outline>
</glyph>
<glyph name="Edieresis" format="1">
  <advance width="465"/>
  <unicode hex="00CB"/>
  <outline>
    <contour>
      <point x="410" y="0" type="line"/>
      <point x="78" y="0" type="line"/>
      <point x="78" y="700" type="line"/>
      <point x="412" y="700" type="line"/>
      <point x="412" y="610" type="line"/>
      <point x="169" y="610" type="line"/>
      <point x="169" y="413" type="line"/>
      <point x="325" y="413" type="line"/>
      <point x="298" y="325" type="line"/>
      <point x="169" y="325" type="line"/>
      <point x="169" y="82" type="line"/>
      <point x="410" y="82" type="line"/>
    </contour>
    <contour>
      <point x="200" y="800" type="qcurve"/>
      <point x="212" y="788"/>
      <point x="212" y="754"/>
      <point x="188" y="731"/>
      <point x="154" y="731"/>
      <point x="131" y="754"/>
      <point x="131" y="788"/>
      <point x="154" y="812"/>
      <point x="188" y="812"/>
    </contour>
    <contour>
      <point x="341" y="743" type="qcurve"/>
      <point x="329" y="731"/>
      <point x="295" y="731"/>
      <point x="271" y="755"/>
      <point x="271" y="788"/>
      <point x="296" y="813"/>
      <point x="329" y="813"/>
      <point x="353" y="789"/>
      <point x="353" y="755"/>
    </contour>
  </outline>
</glyph>
<glyph name="Igrave" format="1">
  <advance width="316"/>
  <unicode hex="00CC"/>
  <outline>
    <contour>
      <point x="236" y="0" type="line"/>
      <point x="144" y="0" type="line"/>
      <point x="144" y="612" type="line"/>
      <point x="81" y="614" type="line"/>
      <point x="81" y="700" type="line"/>
      <point x="236" y="700" type="line"/>
    </contour>
    <contour>
      <point x="230" y="732" type="line"/>
      <point x="167" y="732" type="line"/>
      <point x="111" y="805" type="line"/>
      <point x="99" y="821"/>
      <point x="99" y="830" type="qcurve"/>
      <point x="99" y="860"/>
      <point x="123" y="870" type="qcurve"/>
      <point x="130" y="873"/>
      <point x="138" y="873" type="qcurve"/>
      <point x="170" y="873"/>
      <point x="182" y="843" type="qcurve"/>
    </contour>
  </outline>
</glyph>
<glyph name="Iacute" format="1">
  <advance width="371"/>
  <unicode hex="00CD"/>
  <outline>
    <contour>
      <point x="233" y="0" type="line"/>
      <point x="141" y="0" type="line"/>
      <point x="141" y="612" type="line"/>
      <point x="78" y="614" type="line"/>
      <point x="78" y="700" type="line"/>
      <point x="233" y="700" type="line"/>
    </contour>
    <contour>
      <point x="223" y="730" type="line"/>
      <point x="160" y="730" type="line"/>
      <point x="208" y="841" type="line"/>
      <point x="220" y="871"/>
      <point x="253" y="871" type="qcurve"/>
      <point x="260" y="871"/>
      <point x="267" y="868" type="qcurve"/>
      <point x="291" y="858"/>
      <point x="291" y="819"/>
      <point x="279" y="803" type="qcurve"/>
    </contour>
  </outline>
</glyph>
<glyph name="Icircumflex" format="1">
  <advance width="448"/>
  <unicode hex="00CE"/>
  <outline>
    <contour>
      <point x="274" y="0" type="line"/>
      <point x="182" y="0" type="line"/>
      <point x="182" y="612" type="line"/>
      <point x="119" y="614" type="line"/>
      <point x="119" y="700" type="line"/>
      <point x="274" y="700" type="line"/>
    </contour>
    <contour>
      <point x="368" y="771" type="line"/>
      <point x="311" y="732" type="line"/>
      <point x="225" y="822" type="line"/>
      <point x="134" y="732" type="line"/>
      <point x="78" y="771" type="line"/>
      <point x="226" y="912" type="line"/>
    </contour>
  </outline>
</glyph>
<glyph name="Idieresis" format="1">
  <advance width="380"/>
  <unicode hex="00CF"/>
  <outline>
    <contour>
      <point x="250" y="0" type="line"/>
      <point x="158" y="0" type="line"/>
      <point x="158" y="612" type="line"/>
      <point x="95" y="614" type="line"/>
      <point x="95" y="700" type="line"/>
      <point x="250" y="700" type="line"/>
    </contour>
    <contour>
      <point x="147" y="798" type="qcurve"/>
      <point x="159" y="786"/>
      <point x="159" y="752"/>
      <point x="135" y="729"/>
      <point x="102" y="729"/>
      <point x="78" y="752"/>
      <point x="78" y="786"/>
      <point x="101" y="810"/>
      <point x="135" y="810"/>
    </contour>
    <contour>
      <point x="288" y="741" type="qcurve"/>
      <point x="276" y="729"/>
      <point x="242" y="729"/>
      <point x="218" y="753"/>
      <point x="218" y="786"/>
      <point x="242" y="811"/>
      <point x="276" y="811"/>
      <point x="300" y="787"/>
      <point x="300" y="753"/>
    </contour>
  </outline>
</glyph>
<glyph name="Eth" format="1">
  <advance width="642"/>
  <unicode hex="00D0"/>
  <outline>
    <contour>
      <point x="335" y="0" type="qcurve"/>
      <point x="127" y="0" type="line"/>
      <point x="127" y="425" type="line"/>
      <point x="78" y="425" type="line"/>
      <point x="78" y="513" type="line"/>
      <point x="127" y="513" type="line"/>
      <point x="127" y="701" type="line"/>
      <point x="315" y="701" type="line"/>
      <point x="416" y="701"/>
      <point x="533" y="599"/>
      <point x="544" y="513" type="qcurve"/>
      <point x="605" y="513" type="line"/>
      <point x="605" y="425" type="line"/>
      <point x="547" y="425" type="line"/>
      <point x="547" y="200" type="line"/>
      <point x="547" y="0"/>
    </contour>
    <contour>
      <point x="456" y="190" type="qcurve"/>
      <point x="456" y="425" type="line"/>
      <point x="218" y="425" type="line"/>
      <point x="218" y="83" type="line"/>
      <point x="319" y="83" type="line"/>
      <point x="395" y="83"/>
      <point x="456" y="137"/>
    </contour>
    <contour>
      <point x="325" y="611" type="qcurve"/>
      <point x="218" y="611" type="line"/>
      <point x="218" y="513" type="line"/>
      <point x="454" y="513" type="line"/>
      <point x="438" y="611"/>
    </contour>
  </outline>
</glyph>
<glyph name="Ntilde" format="1">
  <advance width="650"/>
  <unicode hex="00D1"/>
  <outline>
    <contour>
      <point x="570" y="0" type="line"/>
      <point x="478" y="0" type="line"/>
      <point x="169" y="516" type="line"/>
      <point x="169" y="0" type="line"/>
      <point x="78" y="0" type="line"/>
      <point x="78" y="700" type="line"/>
      <point x="169" y="700" type="line"/>
      <point x="478" y="186" type="line"/>
      <point x="478" y="700" type="line"/>
      <point x="570" y="700" type="line"/>
    </contour>
    <contour>
      <point x="397" y="801" type="qcurve"/>
      <point x="436" y="801"/>
      <point x="467" y="836" type="qcurve"/>
      <point x="503" y="780" type="line"/>
      <point x="458" y="727"/>
      <point x="407" y="727" type="qcurve"/>
      <point x="389" y="727"/>
      <point x="343" y="746"/>
      <point x="293" y="769"/>
      <point x="268" y="769" type="qcurve"/>
      <point x="226" y="769"/>
      <point x="192" y="733" type="qcurve"/>
      <point x="158" y="789" type="line"/>
      <point x="205" y="842"/>
      <point x="258" y="842" type="qcurve"/>
      <point x="276" y="842"/>
      <point x="321" y="824"/>
      <point x="372" y="801"/>
    </contour>
  </outline>
</glyph>
<glyph name="Oacute" format="1">
  <advance width="549"/>
  <unicode hex="00D3"/>
  <outline>
    <contour>
      <point x="483" y="506" type="qcurve"/>
      <point x="483" y="185" type="line"/>
      <point x="483" y="84"/>
      <point x="360" y="-11"/>
      <point x="188" y="-11"/>
      <point x="63" y="84"/>
      <point x="63" y="185" type="qcurve"/>
      <point x="63" y="507" type="line"/>
      <point x="63" y="610"/>
      <point x="176" y="716"/>
      <point x="374" y="716"/>
      <point x="483" y="604"/>
    </contour>
    <contour>
      <point x="392" y="199" type="qcurve"/>
      <point x="392" y="486" type="line"/>
      <point x="392" y="552"/>
      <point x="337" y="620"/>
      <point x="209" y="620"/>
      <point x="154" y="553"/>
      <point x="154" y="487" type="qcurve"/>
      <point x="154" y="198" type="line"/>
      <point x="154" y="142"/>
      <point x="217" y="80"/>
      <point x="327" y="80"/>
      <point x="392" y="143"/>
    </contour>
    <contour>
      <point x="320" y="730" type="line"/>
      <point x="257" y="730" type="line"/>
      <point x="305" y="841" type="line"/>
      <point x="317" y="871"/>
      <point x="350" y="871" type="qcurve"/>
      <point x="357" y="871"/>
      <point x="364" y="868" type="qcurve"/>
      <point x="388" y="858"/>
      <point x="388" y="819"/>
      <point x="376" y="803" type="qcurve"/>
    </contour>
  </outline>
</glyph>
<glyph name="Ocircumflex" format="1">
  <advance width="549"/>
  <unicode hex="00D4"/>
  <outline>
    <contour>
      <point x="483" y="506" type="qcurve"/>
      <point x="483" y="185" type="line"/>
      <point x="483" y="84"/>
      <point x="360" y="-11"/>
      <point x="188" y="-11"/>
      <point x="63" y="84"/>
      <point x="63" y="185" type="qcurve"/>
      <point x="63" y="507" type="line"/>
      <point x="63" y="610"/>
      <point x="176" y="716"/>
      <point x="374" y="716"/>
      <point x="483" y="604"/>
    </contour>
    <contour>
      <point x="392" y="199" type="qcurve"/>
      <point x="392" y="486" type="line"/>
      <point x="392" y="552"/>
      <point x="337" y="620"/>
      <point x="209" y="620"/>
      <point x="154" y="553"/>
      <point x="154" y="487" type="qcurve"/>
      <point x="154" y="198" type="line"/>
      <point x="154" y="142"/>
      <point x="217" y="80"/>
      <point x="327" y="80"/>
      <point x="392" y="143"/>
    </contour>
    <contour>
      <point x="421" y="771" type="line"/>
      <point x="364" y="732" type="line"/>
      <point x="278" y="822" type="line"/>
      <point x="187" y="732" type="line"/>
      <point x="131" y="771" type="line"/>
      <point x="279" y="912" type="line"/>
    </contour>
  </outline>
</glyph>
<glyph name="Otilde" format="1">
  <advance width="549"/>
  <unicode hex="00D5"/>
  <outline>
    <contour>
      <point x="483" y="506" type="qcurve"/>
      <point x="483" y="185" type="line"/>
      <point x="483" y="84"/>
      <point x="360" y="-11"/>
      <point x="188" y="-11"/>
      <point x="63" y="84"/>
      <point x="63" y="185" type="qcurve"/>
      <point x="63" y="507" type="line"/>
      <point x="63" y="610"/>
      <point x="176" y="716"/>
      <point x="374" y="716"/>
      <point x="483" y="604"/>
    </contour>
    <contour>
      <point x="392" y="199" type="qcurve"/>
      <point x="392" y="486" type="line"/>
      <point x="392" y="552"/>
      <point x="337" y="620"/>
      <point x="209" y="620"/>
      <point x="154" y="553"/>
      <point x="154" y="487" type="qcurve"/>
      <point x="154" y="198" type="line"/>
      <point x="154" y="142"/>
      <point x="217" y="80"/>
      <point x="327" y="80"/>
      <point x="392" y="143"/>
    </contour>
    <contour>
      <point x="350" y="803" type="qcurve"/>
      <point x="389" y="803"/>
      <point x="420" y="838" type="qcurve"/>
      <point x="456" y="782" type="line"/>
      <point x="411" y="729"/>
      <point x="360" y="729" type="qcurve"/>
      <point x="342" y="729"/>
      <point x="296" y="748"/>
      <point x="246" y="771"/>
      <point x="221" y="771" type="qcurve"/>
      <point x="179" y="771"/>
      <point x="145" y="735" type="qcurve"/>
      <point x="111" y="791" type="line"/>
      <point x="158" y="844"/>
      <point x="211" y="844" type="qcurve"/>
      <point x="229" y="844"/>
      <point x="274" y="826"/>
      <point x="325" y="803"/>
    </contour>
  </outline>
</glyph>
<glyph name="multiply" format="1">
  <advance width="419"/>
  <unicode hex="00D7"/>
  <outline>
    <contour>
      <point x="381" y="213" type="line"/>
      <point x="321" y="161" type="line"/>
      <point x="230" y="270" type="line"/>
      <point x="139" y="160" type="line"/>
      <point x="80" y="213" type="line"/>
      <point x="178" y="333" type="line"/>
      <point x="78" y="453" type="line"/>
      <point x="138" y="504" type="line"/>
      <point x="230" y="394" type="line"/>
      <point x="321" y="505" type="line"/>
      <point x="382" y="455" type="line"/>
      <point x="281" y="333" type="line"/>
    </contour>
  </outline>
</glyph>
<glyph name="Oslash" format="1">
  <advance width="550"/>
  <unicode hex="00D8"/>
  <outline>
    <contour>
      <point x="183" y="-114" type="line"/>
      <point x="86" y="-114" type="line"/>
      <point x="140" y="41" type="line"/>
      <point x="83" y="91"/>
      <point x="83" y="185" type="qcurve"/>
      <point x="83" y="507" type="line"/>
      <point x="83" y="610"/>
      <point x="196" y="716"/>
      <point x="295" y="716" type="qcurve"/>
      <point x="335" y="716"/>
      <point x="371" y="705" type="qcurve"/>
      <point x="410" y="817" type="line"/>
      <point x="508" y="817" type="line"/>
      <point x="452" y="657" type="line"/>
      <point x="503" y="600"/>
      <point x="503" y="506" type="qcurve"/>
      <point x="503" y="185" type="line"/>
      <point x="503" y="84"/>
      <point x="380" y="-11"/>
      <point x="294" y="-11" type="qcurve"/>
      <point x="256" y="-11"/>
      <point x="222" y="-2" type="qcurve"/>
    </contour>
    <contour>
      <point x="180" y="155" type="qcurve"/>
      <point x="339" y="614" type="line"/>
      <point x="319" y="620"/>
      <point x="293" y="620" type="qcurve"/>
      <point x="229" y="620"/>
      <point x="174" y="553"/>
      <point x="174" y="487" type="qcurve"/>
      <point x="174" y="198" type="line"/>
      <point x="174" y="174"/>
    </contour>
    <contour>
      <point x="412" y="199" type="qcurve"/>
      <point x="412" y="486" type="line"/>
      <point x="412" y="503"/>
      <point x="408" y="531" type="qcurve"/>
      <point x="252" y="85" type="line"/>
      <point x="268" y="80"/>
      <point x="293" y="80" type="qcurve"/>
      <point x="347" y="80"/>
      <point x="412" y="143"/>
    </contour>
  </outline>
</glyph>
<glyph name="Ugrave" format="1">
  <advance width="566"/>
  <unicode hex="00D9"/>
  <outline>
    <contour>
      <point x="404" y="212" type="qcurve"/>
      <point x="404" y="701" type="line"/>
      <point x="495" y="701" type="line"/>
      <point x="495" y="186" type="line"/>
      <point x="495" y="133"/>
      <point x="458" y="55"/>
      <point x="395" y="13"/>
      <point x="325" y="-7"/>
      <point x="245" y="-7"/>
      <point x="174" y="13"/>
      <point x="111" y="55"/>
      <point x="74" y="133"/>
      <point x="74" y="186" type="qcurve"/>
      <point x="74" y="701" type="line"/>
      <point x="165" y="701" type="line"/>
      <point x="165" y="212" type="line"/>
      <point x="165" y="81"/>
      <point x="404" y="81"/>
    </contour>
    <contour>
      <point x="316" y="732" type="line"/>
      <point x="253" y="732" type="line"/>
      <point x="197" y="805" type="line"/>
      <point x="185" y="821"/>
      <point x="185" y="830" type="qcurve"/>
      <point x="185" y="860"/>
      <point x="209" y="870" type="qcurve"/>
      <point x="216" y="873"/>
      <point x="224" y="873" type="qcurve"/>
      <point x="256" y="873"/>
      <point x="268" y="843" type="qcurve"/>
    </contour>
  </outline>
</glyph>
<glyph name="Uacute" format="1">
  <advance width="566"/>
  <unicode hex="00DA"/>
  <outline>
    <contour>
      <point x="404" y="212" type="qcurve"/>
      <point x="404" y="701" type="line"/>
      <point x="495" y="701" type="line"/>
      <point x="495" y="186" type="line"/>
      <point x="495" y="133"/>
      <point x="458" y="55"/>
      <point x="395" y="13"/>
      <point x="325" y="-7"/>
      <point x="245" y="-7"/>
      <point x="174" y="13"/>
      <point x="111" y="55"/>
      <point x="74" y="133"/>
      <point x="74" y="186" type="qcurve"/>
      <point x="74" y="701" type="line"/>
      <point x="165" y="701" type="line"/>
      <point x="165" y="212" type="line"/>
      <point x="165" y="81"/>
      <point x="404" y="81"/>
    </contour>
    <contour>
      <point x="316" y="731" type="line"/>
      <point x="253" y="731" type="line"/>
      <point x="301" y="842" type="line"/>
      <point x="313" y="872"/>
      <point x="346" y="872" type="qcurve"/>
      <point x="353" y="872"/>
      <point x="360" y="869" type="qcurve"/>
      <point x="384" y="859"/>
      <point x="384" y="820"/>
      <point x="372" y="804" type="qcurve"/>
    </contour>
  </outline>
</glyph>
<glyph name="Ucircumflex" format="1">
  <advance width="566"/>
  <unicode hex="00DB"/>
  <outline>
    <contour>
      <point x="404" y="212" type="qcurve"/>
      <point x="404" y="701" type="line"/>
      <point x="495" y="701" type="line"/>
      <point x="495" y="186" type="line"/>
      <point x="495" y="133"/>
      <point x="458" y="55"/>
      <point x="395" y="13"/>
      <point x="325" y="-7"/>
      <point x="245" y="-7"/>
      <point x="174" y="13"/>
      <point x="111" y="55"/>
      <point x="74" y="133"/>
      <point x="74" y="186" type="qcurve"/>
      <point x="74" y="701" type="line"/>
      <point x="165" y="701" type="line"/>
      <point x="165" y="212" type="line"/>
      <point x="165" y="81"/>
      <point x="404" y="81"/>
    </contour>
    <contour>
      <point x="430" y="771" type="line"/>
      <point x="373" y="732" type="line"/>
      <point x="287" y="822" type="line"/>
      <point x="196" y="732" type="line"/>
      <point x="140" y="771" type="line"/>
      <point x="288" y="912" type="line"/>
    </contour>
  </outline>
</glyph>
<glyph name="Udieresis" format="1">
  <advance width="566"/>
  <unicode hex="00DC"/>
  <outline>
    <contour>
      <point x="404" y="212" type="qcurve"/>
      <point x="404" y="701" type="line"/>
      <point x="495" y="701" type="line"/>
      <point x="495" y="186" type="line"/>
      <point x="495" y="133"/>
      <point x="458" y="55"/>
      <point x="395" y="13"/>
      <point x="325" y="-7"/>
      <point x="245" y="-7"/>
      <point x="174" y="13"/>
      <point x="111" y="55"/>
      <point x="74" y="133"/>
      <point x="74" y="186" type="qcurve"/>
      <point x="74" y="701" type="line"/>
      <point x="165" y="701" type="line"/>
      <point x="165" y="212" type="line"/>
      <point x="165" y="81"/>
      <point x="404" y="81"/>
    </contour>
    <contour>
      <point x="241" y="800" type="qcurve"/>
      <point x="253" y="788"/>
      <point x="253" y="754"/>
      <point x="229" y="731"/>
      <point x="196" y="731"/>
      <point x="172" y="754"/>
      <point x="172" y="788"/>
      <point x="195" y="812"/>
      <point x="229" y="812"/>
    </contour>
    <contour>
      <point x="382" y="743" type="qcurve"/>
      <point x="370" y="731"/>
      <point x="336" y="731"/>
      <point x="312" y="755"/>
      <point x="312" y="788"/>
      <point x="336" y="813"/>
      <point x="370" y="813"/>
      <point x="394" y="789"/>
      <point x="394" y="755"/>
    </contour>
  </outline>
</glyph>
<glyph name="Yacute" format="1">
  <advance width="552"/>
  <unicode hex="00DD"/>
  <outline>
    <contour>
      <point x="362" y="-15" type="qcurve"/>
      <point x="335" y="53" type="line"/>
      <point x="405" y="66"/>
      <point x="405" y="160" type="qcurve"/>
      <point x="405" y="246" type="line"/>
      <point x="356" y="212"/>
      <point x="281" y="212" type="qcurve"/>
      <point x="177" y="212"/>
      <point x="52" y="326"/>
      <point x="52" y="427" type="qcurve"/>
      <point x="52" y="700" type="line"/>
      <point x="143" y="700" type="line"/>
      <point x="143" y="430" type="line"/>
      <point x="143" y="366"/>
      <point x="215" y="302"/>
      <point x="332" y="302"/>
      <point x="395" y="337"/>
      <point x="405" y="363" type="qcurve"/>
      <point x="405" y="700" type="line"/>
      <point x="496" y="700" type="line"/>
      <point x="496" y="156" type="line"/>
      <point x="496" y="0"/>
    </contour>
    <contour>
      <point x="307" y="731" type="line"/>
      <point x="244" y="731" type="line"/>
      <point x="292" y="842" type="line"/>
      <point x="304" y="872"/>
      <point x="337" y="872" type="qcurve"/>
      <point x="344" y="872"/>
      <point x="351" y="869" type="qcurve"/>
      <point x="375" y="859"/>
      <point x="375" y="820"/>
      <point x="363" y="804" type="qcurve"/>
    </contour>
  </outline>
</glyph>
<glyph name="germandbls" format="1">
  <advance width="545"/>
  <unicode hex="00DF"/>
  <outline>
    <contour>
      <point x="237" y="119" type="line"/>
      <point x="281" y="76"/>
      <point x="337" y="76" type="qcurve"/>
      <point x="381" y="76"/>
      <point x="399" y="106" type="qcurve"/>
      <point x="413" y="128"/>
      <point x="413" y="151" type="qcurve"/>
      <point x="413" y="195"/>
      <point x="365" y="243" type="qcurve"/>
      <point x="350" y="259"/>
      <point x="282" y="320"/>
      <point x="265" y="338" type="qcurve"/>
      <point x="214" y="394"/>
      <point x="214" y="440" type="qcurve"/>
      <point x="214" y="471"/>
      <point x="234" y="507" type="qcurve"/>
      <point x="268" y="507"/>
      <point x="282" y="534" type="qcurve"/>
      <point x="289" y="547"/>
      <point x="289" y="574"/>
      <point x="282" y="587" type="qcurve"/>
      <point x="269" y="614"/>
      <point x="237" y="614" type="qcurve"/>
      <point x="169" y="614"/>
      <point x="169" y="518" type="qcurve"/>
      <point x="169" y="0" type="line"/>
      <point x="78" y="0" type="line"/>
      <point x="78" y="537" type="line"/>
      <point x="78" y="612"/>
      <point x="160" y="701"/>
      <point x="304" y="701"/>
      <point x="380" y="617"/>
      <point x="380" y="509"/>
      <point x="342" y="476" type="qcurve"/>
      <point x="319" y="477" type="line"/>
      <point x="302" y="448"/>
      <point x="314" y="423" type="qcurve"/>
      <point x="328" y="396"/>
      <point x="369" y="358"/>
      <point x="384" y="346" type="qcurve"/>
      <point x="425" y="310"/>
      <point x="450" y="284" type="qcurve"/>
      <point x="508" y="222"/>
      <point x="508" y="143" type="qcurve"/>
      <point x="508" y="107"/>
      <point x="490" y="71" type="qcurve"/>
      <point x="465" y="19"/>
      <point x="408" y="0" type="qcurve"/>
      <point x="373" y="-13"/>
      <point x="344" y="-13" type="qcurve"/>
      <point x="254" y="-13"/>
      <point x="195" y="37" type="qcurve"/>
    </contour>
  </outline>
</glyph>
<glyph name="agrave" format="1">
  <advance width="500"/>
  <unicode hex="00E0"/>
  <outline>
    <contour>
      <point x="222" y="401" type="qcurve"/>
      <point x="309" y="401"/>
      <point x="372" y="361" type="qcurve"/>
      <point x="372" y="445"/>
      <point x="248" y="445" type="qcurve"/>
      <point x="255" y="509" type="line"/>
      <point x="336" y="509"/>
      <point x="375" y="490" type="qcurve"/>
      <point x="396" y="479"/>
      <point x="428" y="457"/>
      <point x="446" y="421"/>
      <point x="458" y="394"/>
      <point x="460" y="371" type="qcurve"/>
      <point x="463" y="336"/>
      <point x="463" y="298" type="qcurve"/>
      <point x="463" y="0" type="line"/>
      <point x="359" y="-10"/>
      <point x="297" y="-10" type="qcurve"/>
      <point x="78" y="-10"/>
      <point x="78" y="169" type="qcurve"/>
      <point x="78" y="252" type="line"/>
      <point x="78" y="351"/>
      <point x="147" y="385" type="qcurve"/>
      <point x="181" y="401"/>
    </contour>
    <contour>
      <point x="372" y="79" type="qcurve"/>
      <point x="372" y="270" type="line"/>
      <point x="319" y="301"/>
      <point x="250" y="309" type="qcurve"/>
      <point x="244" y="310"/>
      <point x="211" y="310"/>
      <point x="169" y="281"/>
      <point x="169" y="242" type="qcurve"/>
      <point x="169" y="176" type="line"/>
      <point x="169" y="73"/>
      <point x="299" y="73" type="qcurve"/>
      <point x="332" y="73"/>
    </contour>
    <contour>
      <point x="298" y="540" type="line"/>
      <point x="235" y="540" type="line"/>
      <point x="179" y="613" type="line"/>
      <point x="167" y="629"/>
      <point x="167" y="638" type="qcurve"/>
      <point x="167" y="668"/>
      <point x="191" y="678" type="qcurve"/>
      <point x="198" y="681"/>
      <point x="206" y="681" type="qcurve"/>
      <point x="238" y="681"/>
      <point x="250" y="651" type="qcurve"/>
    </contour>
  </outline>
</glyph>
<glyph name="aacute" format="1">
  <advance width="500"/>
  <unicode hex="00E1"/>
  <outline>
    <contour>
      <point x="222" y="401" type="qcurve"/>
      <point x="309" y="401"/>
      <point x="372" y="361" type="qcurve"/>
      <point x="372" y="445"/>
      <point x="248" y="445" type="qcurve"/>
      <point x="255" y="509" type="line"/>
      <point x="336" y="509"/>
      <point x="375" y="490" type="qcurve"/>
      <point x="396" y="479"/>
      <point x="428" y="457"/>
      <point x="446" y="421"/>
      <point x="458" y="394"/>
      <point x="460" y="371" type="qcurve"/>
      <point x="463" y="336"/>
      <point x="463" y="298" type="qcurve"/>
      <point x="463" y="0" type="line"/>
      <point x="359" y="-10"/>
      <point x="297" y="-10" type="qcurve"/>
      <point x="78" y="-10"/>
      <point x="78" y="169" type="qcurve"/>
      <point x="78" y="252" type="line"/>
      <point x="78" y="351"/>
      <point x="147" y="385" type="qcurve"/>
      <point x="181" y="401"/>
    </contour>
    <contour>
      <point x="372" y="79" type="qcurve"/>
      <point x="372" y="270" type="line"/>
      <point x="319" y="301"/>
      <point x="250" y="309" type="qcurve"/>
      <point x="244" y="310"/>
      <point x="211" y="310"/>
      <point x="169" y="281"/>
      <point x="169" y="242" type="qcurve"/>
      <point x="169" y="176" type="line"/>
      <point x="169" y="73"/>
      <point x="299" y="73" type="qcurve"/>
      <point x="332" y="73"/>
    </contour>
    <contour>
      <point x="321" y="538" type="line"/>
      <point x="258" y="538" type="line"/>
      <point x="306" y="649" type="line"/>
      <point x="318" y="679"/>
      <point x="351" y="679" type="qcurve"/>
      <point x="358" y="679"/>
      <point x="365" y="676" type="qcurve"/>
      <point x="389" y="666"/>
      <point x="389" y="627"/>
      <point x="377" y="611" type="qcurve"/>
    </contour>
  </outline>
</glyph>
<glyph name="acircumflex" format="1">
  <advance width="500"/>
  <unicode hex="00E2"/>
  <outline>
    <contour>
      <point x="222" y="401" type="qcurve"/>
      <point x="309" y="401"/>
      <point x="372" y="361" type="qcurve"/>
      <point x="372" y="445"/>
      <point x="248" y="445" type="qcurve"/>
      <point x="255" y="509" type="line"/>
      <point x="336" y="509"/>
      <point x="375" y="490" type="qcurve"/>
      <point x="396" y="479"/>
      <point x="428" y="457"/>
      <point x="446" y="421"/>
      <point x="458" y="394"/>
      <point x="460" y="371" type="qcurve"/>
      <point x="463" y="336"/>
      <point x="463" y="298" type="qcurve"/>
      <point x="463" y="0" type="line"/>
      <point x="359" y="-10"/>
      <point x="297" y="-10" type="qcurve"/>
      <point x="78" y="-10"/>
      <point x="78" y="169" type="qcurve"/>
      <point x="78" y="252" type="line"/>
      <point x="78" y="351"/>
      <point x="147" y="385" type="qcurve"/>
      <point x="181" y="401"/>
    </contour>
    <contour>
      <point x="372" y="79" type="qcurve"/>
      <point x="372" y="270" type="line"/>
      <point x="319" y="301"/>
      <point x="250" y="309" type="qcurve"/>
      <point x="244" y="310"/>
      <point x="211" y="310"/>
      <point x="169" y="281"/>
      <point x="169" y="242" type="qcurve"/>
      <point x="169" y="176" type="line"/>
      <point x="169" y="73"/>
      <point x="299" y="73" type="qcurve"/>
      <point x="332" y="73"/>
    </contour>
    <contour>
      <point x="425" y="578" type="line"/>
      <point x="368" y="539" type="line"/>
      <point x="282" y="629" type="line"/>
      <point x="191" y="539" type="line"/>
      <point x="135" y="578" type="line"/>
      <point x="283" y="719" type="line"/>
    </contour>
  </outline>
</glyph>
<glyph name="atilde" format="1">
  <advance width="500"/>
  <unicode hex="00E3"/>
  <outline>
    <contour>
      <point x="222" y="401" type="qcurve"/>
      <point x="309" y="401"/>
      <point x="372" y="361" type="qcurve"/>
      <point x="372" y="445"/>
      <point x="248" y="445" type="qcurve"/>
      <point x="255" y="509" type="line"/>
      <point x="336" y="509"/>
      <point x="375" y="490" type="qcurve"/>
      <point x="396" y="479"/>
      <point x="428" y="457"/>
      <point x="446" y="421"/>
      <point x="458" y="394"/>
      <point x="460" y="371" type="qcurve"/>
      <point x="463" y="336"/>
      <point x="463" y="298" type="qcurve"/>
      <point x="463" y="0" type="line"/>
      <point x="359" y="-10"/>
      <point x="297" y="-10" type="qcurve"/>
      <point x="78" y="-10"/>
      <point x="78" y="169" type="qcurve"/>
      <point x="78" y="252" type="line"/>
      <point x="78" y="351"/>
      <point x="147" y="385" type="qcurve"/>
      <point x="181" y="401"/>
    </contour>
    <contour>
      <point x="372" y="79" type="qcurve"/>
      <point x="372" y="270" type="line"/>
      <point x="319" y="301"/>
      <point x="250" y="309" type="qcurve"/>
      <point x="244" y="310"/>
      <point x="211" y="310"/>
      <point x="169" y="281"/>
      <point x="169" y="242" type="qcurve"/>
      <point x="169" y="176" type="line"/>
      <point x="169" y="73"/>
      <point x="299" y="73" type="qcurve"/>
      <point x="332" y="73"/>
    </contour>
    <contour>
      <point x="342" y="613" type="qcurve"/>
      <point x="381" y="613"/>
      <point x="412" y="648" type="qcurve"/>
      <point x="448" y="592" type="line"/>
      <point x="403" y="539"/>
      <point x="352" y="539" type="qcurve"/>
      <point x="334" y="539"/>
      <point x="288" y="558"/>
      <point x="238" y="581"/>
      <point x="213" y="581" type="qcurve"/>
      <point x="171" y="581"/>
      <point x="137" y="545" type="qcurve"/>
      <point x="103" y="601" type="line"/>
      <point x="150" y="654"/>
      <point x="203" y="654" type="qcurve"/>
      <point x="221" y="654"/>
      <point x="266" y="636"/>
      <point x="317" y="613"/>
    </contour>
  </outline>
</glyph>
<glyph name="aring" format="1">
  <advance width="500"/>
  <unicode hex="00E5"/>
  <outline>
    <contour>
      <point x="222" y="401" type="qcurve"/>
      <point x="309" y="401"/>
      <point x="372" y="361" type="qcurve"/>
      <point x="372" y="445"/>
      <point x="248" y="445" type="qcurve"/>
      <point x="248" y="446" type="line"/>
      <point x="207" y="451"/>
      <point x="152" y="512"/>
      <point x="152" y="599"/>
      <point x="216" y="663"/>
      <point x="306" y="663"/>
      <point x="370" y="599"/>
      <point x="370" y="523"/>
      <point x="354" y="497" type="qcurve"/>
      <point x="385" y="488"/>
      <point x="429" y="453"/>
      <point x="450" y="419"/>
      <point x="456" y="391" type="qcurve"/>
      <point x="463" y="353"/>
      <point x="463" y="298" type="qcurve"/>
      <point x="463" y="0" type="line"/>
      <point x="359" y="-10"/>
      <point x="297" y="-10" type="qcurve"/>
      <point x="78" y="-10"/>
      <point x="78" y="169" type="qcurve"/>
      <point x="78" y="252" type="line"/>
      <point x="78" y="351"/>
      <point x="147" y="385" type="qcurve"/>
      <point x="181" y="401"/>
    </contour>
    <contour>
      <point x="372" y="79" type="qcurve"/>
      <point x="372" y="270" type="line"/>
      <point x="319" y="301"/>
      <point x="250" y="309" type="qcurve"/>
      <point x="244" y="310"/>
      <point x="211" y="310"/>
      <point x="169" y="281"/>
      <point x="169" y="242" type="qcurve"/>
      <point x="169" y="176" type="line"/>
      <point x="169" y="73"/>
      <point x="299" y="73" type="qcurve"/>
      <point x="332" y="73"/>
    </contour>
    <contour>
      <point x="291" y="523" type="qcurve"/>
      <point x="304" y="536"/>
      <point x="304" y="572"/>
      <point x="279" y="597"/>
      <point x="243" y="597"/>
      <point x="218" y="572"/>
      <point x="218" y="536"/>
      <point x="243" y="511"/>
      <point x="279" y="511"/>
    </contour>
  </outline>
</glyph>
<glyph name="ae" format="1">
  <advance width="769"/>
  <unicode hex="00E6"/>
  <outline>
    <contour>
      <point x="542" y="72" type="qcurve"/>
      <point x="598" y="72"/>
      <point x="673" y="112" type="qcurve"/>
      <point x="707" y="35" type="line"/>
      <point x="629" y="-12"/>
      <point x="530" y="-12" type="qcurve"/>
      <point x="490" y="-12"/>
      <point x="458" y="0" type="qcurve"/>
      <point x="359" y="-9"/>
      <point x="298" y="-9" type="qcurve"/>
      <point x="78" y="-9"/>
      <point x="78" y="169" type="qcurve"/>
      <point x="78" y="252" type="line"/>
      <point x="78" y="351"/>
      <point x="147" y="385" type="qcurve"/>
      <point x="181" y="401"/>
      <point x="222" y="401" type="qcurve"/>
      <point x="309" y="401"/>
      <point x="372" y="361" type="qcurve"/>
      <point x="372" y="445"/>
      <point x="248" y="445" type="qcurve"/>
      <point x="255" y="509" type="line"/>
      <point x="369" y="509"/>
      <point x="419" y="462" type="qcurve"/>
      <point x="469" y="510"/>
      <point x="639" y="510"/>
      <point x="732" y="421"/>
      <point x="732" y="342" type="qcurve"/>
      <point x="732" y="198" type="line"/>
      <point x="464" y="183" type="line"/>
      <point x="464" y="144" type="line"/>
      <point x="464" y="104"/>
      <point x="511" y="72"/>
    </contour>
    <contour>
      <point x="372" y="79" type="qcurve"/>
      <point x="372" y="270" type="line"/>
      <point x="319" y="301"/>
      <point x="250" y="309" type="qcurve"/>
      <point x="244" y="310"/>
      <point x="211" y="310"/>
      <point x="169" y="281"/>
      <point x="169" y="242" type="qcurve"/>
      <point x="169" y="176" type="line"/>
      <point x="169" y="73"/>
      <point x="299" y="73" type="qcurve"/>
      <point x="332" y="73"/>
    </contour>
    <contour>
      <point x="640" y="278" type="line"/>
      <point x="640" y="343" type="line"/>
      <point x="640" y="384"/>
      <point x="588" y="423"/>
      <point x="512" y="423"/>
      <point x="464" y="376"/>
      <point x="464" y="338" type="qcurve"/>
      <point x="464" y="268" type="line"/>
    </contour>
  </outline>
</glyph>
<glyph name="ccedilla" format="1">
  <advance width="383"/>
  <unicode hex="00E7"/>
  <outline>
    <contour>
      <point x="247" y="79" type="qcurve"/>
      <point x="293" y="79"/>
      <point x="334" y="92" type="qcurve"/>
      <point x="358" y="6" type="line"/>
      <point x="293" y="-10"/>
      <point x="241" y="-10" type="qcurve"/>
      <point x="233" y="-10"/>
      <point x="225" y="-10" type="qcurve"/>
      <point x="201" y="-44" type="line"/>
      <point x="217" y="-37"/>
      <point x="270" y="-37"/>
      <point x="320" y="-82"/>
      <point x="320" y="-175"/>
      <point x="237" y="-224"/>
      <point x="142" y="-224"/>
      <point x="87" y="-204" type="qcurve"/>
      <point x="118" y="-138" type="line"/>
      <point x="155" y="-163"/>
      <point x="188" y="-163" type="qcurve"/>
      <point x="256" y="-163"/>
      <point x="256" y="-122" type="qcurve"/>
      <point x="256" y="-100"/>
      <point x="236" y="-93" type="qcurve"/>
      <point x="230" y="-91"/>
      <point x="205" y="-91"/>
      <point x="181" y="-101" type="qcurve"/>
      <point x="140" y="-120" type="line"/>
      <point x="111" y="-78" type="line"/>
      <point x="169" y="-3" type="line"/>
      <point x="162" y="-2"/>
      <point x="148" y="2" type="qcurve"/>
      <point x="89" y="22"/>
      <point x="36" y="105"/>
      <point x="36" y="180" type="qcurve"/>
      <point x="36" y="308" type="line"/>
      <point x="36" y="379"/>
      <point x="64" y="427" type="qcurve"/>
      <point x="112" y="510"/>
      <point x="222" y="510" type="qcurve"/>
      <point x="288" y="510"/>
      <point x="356" y="478" type="qcurve"/>
      <point x="331" y="402" type="line"/>
      <point x="279" y="422"/>
      <point x="208" y="422"/>
      <point x="184" y="412" type="qcurve"/>
      <point x="127" y="387"/>
      <point x="127" y="314" type="qcurve"/>
      <point x="127" y="169" type="line"/>
      <point x="127" y="79"/>
    </contour>
  </outline>
</glyph>
<glyph name="egrave" format="1">
  <advance width="475"/>
  <unicode hex="00E8"/>
  <outline>
    <contour>
      <point x="248" y="72" type="qcurve"/>
      <point x="304" y="72"/>
      <point x="379" y="112" type="qcurve"/>
      <point x="413" y="35" type="line"/>
      <point x="336" y="-12"/>
      <point x="252" y="-12" type="qcurve"/>
      <point x="78" y="-12"/>
      <point x="78" y="134" type="qcurve"/>
      <point x="78" y="339" type="line"/>
      <point x="78" y="420"/>
      <point x="179" y="510"/>
      <point x="345" y="510"/>
      <point x="438" y="421"/>
      <point x="438" y="342" type="qcurve"/>
      <point x="438" y="198" type="line"/>
      <point x="170" y="183" type="line"/>
      <point x="170" y="144" type="line"/>
      <point x="170" y="104"/>
      <point x="217" y="72"/>
    </contour>
    <contour>
      <point x="346" y="278" type="line"/>
      <point x="346" y="343" type="line"/>
      <point x="346" y="384"/>
      <point x="294" y="423"/>
      <point x="218" y="423"/>
      <point x="170" y="376"/>
      <point x="170" y="338" type="qcurve"/>
      <point x="170" y="268" type="line"/>
    </contour>
    <contour>
      <point x="290" y="540" type="line"/>
      <point x="227" y="540" type="line"/>
      <point x="171" y="613" type="line"/>
      <point x="159" y="629"/>
      <point x="159" y="638" type="qcurve"/>
      <point x="159" y="668"/>
      <point x="183" y="678" type="qcurve"/>
      <point x="190" y="681"/>
      <point x="198" y="681" type="qcurve"/>
      <point x="230" y="681"/>
      <point x="242" y="651" type="qcurve"/>
    </contour>
  </outline>
</glyph>
<glyph name="eacute" format="1">
  <advance width="475"/>
  <unicode hex="00E9"/>
  <outline>
    <contour>
      <point x="248" y="72" type="qcurve"/>
      <point x="304" y="72"/>
      <point x="379" y="112" type="qcurve"/>
      <point x="413" y="35" type="line"/>
      <point x="336" y="-12"/>
      <point x="252" y="-12" type="qcurve"/>
      <point x="78" y="-12"/>
      <point x="78" y="134" type="qcurve"/>
      <point x="78" y="339" type="line"/>
      <point x="78" y="420"/>
      <point x="179" y="510"/>
      <point x="345" y="510"/>
      <point x="438" y="421"/>
      <point x="438" y="342" type="qcurve"/>
      <point x="438" y="198" type="line"/>
      <point x="170" y="183" type="line"/>
      <point x="170" y="144" type="line"/>
      <point x="170" y="104"/>
      <point x="217" y="72"/>
    </contour>
    <contour>
      <point x="346" y="278" type="line"/>
      <point x="346" y="343" type="line"/>
      <point x="346" y="384"/>
      <point x="294" y="423"/>
      <point x="218" y="423"/>
      <point x="170" y="376"/>
      <point x="170" y="338" type="qcurve"/>
      <point x="170" y="268" type="line"/>
    </contour>
    <contour>
      <point x="303" y="538" type="line"/>
      <point x="240" y="538" type="line"/>
      <point x="288" y="649" type="line"/>
      <point x="300" y="679"/>
      <point x="333" y="679" type="qcurve"/>
      <point x="340" y="679"/>
      <point x="347" y="676" type="qcurve"/>
      <point x="371" y="666"/>
      <point x="371" y="627"/>
      <point x="359" y="611" type="qcurve"/>
    </contour>
  </outline>
</glyph>
<glyph name="edieresis" format="1">
  <advance width="537"/>
  <unicode hex="00EB"/>
  <outline>
    <contour>
      <point x="205" y="72" type="qcurve"/>
      <point x="261" y="72"/>
      <point x="336" y="112" type="qcurve"/>
      <point x="370" y="35" type="line"/>
      <point x="293" y="-12"/>
      <point x="209" y="-12" type="qcurve"/>
      <point x="35" y="-12"/>
      <point x="35" y="134" type="qcurve"/>
      <point x="35" y="339" type="line"/>
      <point x="35" y="420"/>
      <point x="136" y="510"/>
      <point x="302" y="510"/>
      <point x="395" y="421"/>
      <point x="395" y="342" type="qcurve"/>
      <point x="395" y="198" type="line"/>
      <point x="127" y="183" type="line"/>
      <point x="127" y="144" type="line"/>
      <point x="127" y="104"/>
      <point x="174" y="72"/>
    </contour>
    <contour>
      <point x="303" y="278" type="line"/>
      <point x="303" y="343" type="line"/>
      <point x="303" y="384"/>
      <point x="251" y="423"/>
      <point x="174" y="423"/>
      <point x="127" y="376"/>
      <point x="127" y="338" type="qcurve"/>
      <point x="127" y="268" type="line"/>
    </contour>
    <contour>
      <point x="174" y="608" type="qcurve"/>
      <point x="186" y="596"/>
      <point x="186" y="562"/>
      <point x="162" y="539"/>
      <point x="128" y="539"/>
      <point x="105" y="562"/>
      <point x="105" y="596"/>
      <point x="128" y="620"/>
      <point x="162" y="620"/>
    </contour>
    <contour>
      <point x="315" y="551" type="qcurve"/>
      <point x="303" y="539"/>
      <point x="269" y="539"/>
      <point x="245" y="563"/>
      <point x="245" y="596"/>
      <point x="270" y="621"/>
      <point x="303" y="621"/>
      <point x="327" y="597"/>
      <point x="327" y="563"/>
    </contour>
  </outline>
</glyph>
<glyph name="igrave" format="1">
  <advance width="264"/>
  <unicode hex="00EC"/>
  <outline>
    <contour>
      <point x="209" y="540" type="line"/>
      <point x="146" y="540" type="line"/>
      <point x="90" y="613" type="line"/>
      <point x="78" y="629"/>
      <point x="78" y="638" type="qcurve"/>
      <point x="78" y="668"/>
      <point x="102" y="678" type="qcurve"/>
      <point x="109" y="681"/>
      <point x="117" y="681" type="qcurve"/>
      <point x="149" y="681"/>
      <point x="161" y="651" type="qcurve"/>
    </contour>
    <contour>
      <point x="227" y="0" type="line"/>
      <point x="136" y="0" type="line"/>
      <point x="136" y="501" type="line"/>
      <point x="227" y="501" type="line"/>
    </contour>
  </outline>
</glyph>
<glyph name="iacute" format="1">
  <advance width="264"/>
  <unicode hex="00ED"/>
  <outline>
    <contour>
      <point x="159" y="538" type="line"/>
      <point x="96" y="538" type="line"/>
      <point x="144" y="649" type="line"/>
      <point x="156" y="679"/>
      <point x="189" y="679" type="qcurve"/>
      <point x="196" y="679"/>
      <point x="203" y="676" type="qcurve"/>
      <point x="227" y="666"/>
      <point x="227" y="627"/>
      <point x="215" y="611" type="qcurve"/>
    </contour>
    <contour>
      <point x="169" y="0" type="line"/>
      <point x="78" y="0" type="line"/>
      <point x="78" y="501" type="line"/>
      <point x="169" y="501" type="line"/>
    </contour>
  </outline>
</glyph>
<glyph name="idieresis" format="1">
  <advance width="337"/>
  <unicode hex="00EF"/>
  <outline>
    <contour>
      <point x="147" y="608" type="qcurve"/>
      <point x="159" y="596"/>
      <point x="159" y="562"/>
      <point x="135" y="539"/>
      <point x="102" y="539"/>
      <point x="78" y="562"/>
      <point x="78" y="596"/>
      <point x="101" y="620"/>
      <point x="135" y="620"/>
    </contour>
    <contour>
      <point x="288" y="551" type="qcurve"/>
      <point x="276" y="539"/>
      <point x="242" y="539"/>
      <point x="218" y="563"/>
      <point x="218" y="596"/>
      <point x="242" y="621"/>
      <point x="276" y="621"/>
      <point x="300" y="597"/>
      <point x="300" y="563"/>
    </contour>
    <contour>
      <point x="233" y="0" type="line"/>
      <point x="142" y="0" type="line"/>
      <point x="142" y="501" type="line"/>
      <point x="233" y="501" type="line"/>
    </contour>
  </outline>
</glyph>
<glyph name="ntilde" format="1">
  <advance width="484"/>
  <unicode hex="00F1"/>
  <outline>
    <contour>
      <point x="168" y="485" type="line"/>
      <point x="212" y="509"/>
      <point x="318" y="509"/>
      <point x="362" y="491" type="qcurve"/>
      <point x="447" y="452"/>
      <point x="447" y="346" type="qcurve"/>
      <point x="447" y="0" type="line"/>
      <point x="356" y="0" type="line"/>
      <point x="356" y="325" type="line"/>
      <point x="356" y="373"/>
      <point x="298" y="423"/>
      <point x="212" y="423"/>
      <point x="168" y="400" type="qcurve"/>
      <point x="168" y="0" type="line"/>
      <point x="78" y="0" type="line"/>
      <point x="78" y="501" type="line"/>
      <point x="161" y="501" type="line"/>
    </contour>
    <contour>
      <point x="331" y="614" type="qcurve"/>
      <point x="370" y="614"/>
      <point x="401" y="649" type="qcurve"/>
      <point x="437" y="593" type="line"/>
      <point x="392" y="540"/>
      <point x="341" y="540" type="qcurve"/>
      <point x="323" y="540"/>
      <point x="277" y="559"/>
      <point x="227" y="582"/>
      <point x="202" y="582" type="qcurve"/>
      <point x="160" y="582"/>
      <point x="126" y="546" type="qcurve"/>
      <point x="92" y="602" type="line"/>
      <point x="139" y="655"/>
      <point x="192" y="655" type="qcurve"/>
      <point x="210" y="655"/>
      <point x="255" y="637"/>
      <point x="306" y="614"/>
    </contour>
  </outline>
</glyph>
<glyph name="otilde" format="1">
  <advance width="489"/>
  <unicode hex="00F5"/>
  <outline>
    <contour>
      <point x="451" y="316" type="qcurve"/>
      <point x="451" y="184" type="line"/>
      <point x="451" y="100"/>
      <point x="359" y="-10"/>
      <point x="173" y="-10"/>
      <point x="78" y="101"/>
      <point x="78" y="184" type="qcurve"/>
      <point x="78" y="316" type="line"/>
      <point x="78" y="411"/>
      <point x="175" y="512"/>
      <point x="353" y="512"/>
      <point x="451" y="407"/>
    </contour>
    <contour>
      <point x="361" y="174" type="qcurve"/>
      <point x="361" y="316" type="line"/>
      <point x="361" y="422"/>
      <point x="266" y="422" type="qcurve"/>
      <point x="169" y="422"/>
      <point x="169" y="316" type="qcurve"/>
      <point x="169" y="174" type="line"/>
      <point x="169" y="127"/>
      <point x="223" y="78"/>
      <point x="309" y="78"/>
      <point x="361" y="128"/>
    </contour>
    <contour>
      <point x="340" y="597" type="qcurve"/>
      <point x="379" y="597"/>
      <point x="410" y="632" type="qcurve"/>
      <point x="446" y="576" type="line"/>
      <point x="401" y="523"/>
      <point x="350" y="523" type="qcurve"/>
      <point x="332" y="523"/>
      <point x="286" y="542"/>
      <point x="236" y="565"/>
      <point x="211" y="565" type="qcurve"/>
      <point x="169" y="565"/>
      <point x="135" y="529" type="qcurve"/>
      <point x="101" y="585" type="line"/>
      <point x="148" y="638"/>
      <point x="201" y="638" type="qcurve"/>
      <point x="219" y="638"/>
      <point x="264" y="620"/>
      <point x="315" y="597"/>
    </contour>
  </outline>
</glyph>
<glyph name="divide" format="1">
  <advance width="435"/>
  <unicode hex="00F7"/>
  <outline>
    <contour>
      <point x="398" y="346" type="line"/>
      <point x="78" y="346" type="line"/>
      <point x="78" y="423" type="line"/>
      <point x="398" y="423" type="line"/>
    </contour>
    <contour>
      <point x="273" y="472" type="qcurve"/>
      <point x="260" y="458"/>
      <point x="222" y="458"/>
      <point x="194" y="486"/>
      <point x="194" y="524"/>
      <point x="222" y="551"/>
      <point x="260" y="551"/>
      <point x="287" y="524"/>
      <point x="287" y="486"/>
    </contour>
    <contour>
      <point x="273" y="227" type="qcurve"/>
      <point x="260" y="213"/>
      <point x="222" y="213"/>
      <point x="194" y="240"/>
      <point x="194" y="279"/>
      <point x="222" y="306"/>
      <point x="260" y="306"/>
      <point x="287" y="279"/>
      <point x="287" y="241"/>
    </contour>
  </outline>
</glyph>
<glyph name="oslash" format="1">
  <advance width="498"/>
  <unicode hex="00F8"/>
  <outline>
    <contour>
      <point x="173" y="-67" type="line"/>
      <point x="85" y="-67" type="line"/>
      <point x="131" y="41" type="line"/>
      <point x="79" y="93"/>
      <point x="79" y="184" type="qcurve"/>
      <point x="79" y="316" type="line"/>
      <point x="79" y="411"/>
      <point x="176" y="512"/>
      <point x="267" y="512" type="qcurve"/>
      <point x="300" y="512"/>
      <point x="329" y="503" type="qcurve"/>
      <point x="366" y="588" type="line"/>
      <point x="456" y="588" type="line"/>
      <point x="401" y="461" type="line"/>
      <point x="452" y="408"/>
      <point x="452" y="316" type="qcurve"/>
      <point x="452" y="184" type="line"/>
      <point x="452" y="100"/>
      <point x="360" y="-10"/>
      <point x="267" y="-10" type="qcurve"/>
      <point x="231" y="-10"/>
      <point x="201" y="-1" type="qcurve"/>
    </contour>
    <contour>
      <point x="362" y="174" type="qcurve"/>
      <point x="362" y="316" type="line"/>
      <point x="362" y="339"/>
      <point x="357" y="359" type="qcurve"/>
      <point x="237" y="81" type="line"/>
      <point x="250" y="78"/>
      <point x="267" y="78" type="qcurve"/>
      <point x="310" y="78"/>
      <point x="362" y="128"/>
    </contour>
    <contour>
      <point x="174" y="141" type="qcurve"/>
      <point x="293" y="419" type="line"/>
      <point x="281" y="422"/>
      <point x="267" y="422" type="qcurve"/>
      <point x="170" y="422"/>
      <point x="170" y="316" type="qcurve"/>
      <point x="170" y="174" type="line"/>
      <point x="170" y="154"/>
    </contour>
  </outline>
</glyph>
<glyph name="ugrave" format="1">
  <advance width="488"/>
  <unicode hex="00F9"/>
  <outline>
    <contour>
      <point x="451" y="0" type="line"/>
      <point x="365" y="0" type="line"/>
      <point x="362" y="22" type="line"/>
      <point x="322" y="-11"/>
      <point x="266" y="-11" type="qcurve"/>
      <point x="78" y="-11"/>
      <point x="78" y="172" type="qcurve"/>
      <point x="78" y="501" type="line"/>
      <point x="169" y="501" type="line"/>
      <point x="169" y="180" type="line"/>
      <point x="169" y="77"/>
      <point x="266" y="77" type="qcurve"/>
      <point x="360" y="77"/>
      <point x="360" y="183" type="qcurve"/>
      <point x="360" y="501" type="line"/>
      <point x="451" y="501" type="line"/>
    </contour>
    <contour>
      <point x="296" y="540" type="line"/>
      <point x="233" y="540" type="line"/>
      <point x="177" y="613" type="line"/>
      <point x="165" y="629"/>
      <point x="165" y="638" type="qcurve"/>
      <point x="165" y="668"/>
      <point x="189" y="678" type="qcurve"/>
      <point x="196" y="681"/>
      <point x="204" y="681" type="qcurve"/>
      <point x="236" y="681"/>
      <point x="248" y="651" type="qcurve"/>
    </contour>
  </outline>
</glyph>
<glyph name="uacute" format="1">
  <advance width="488"/>
  <unicode hex="00FA"/>
  <outline>
    <contour>
      <point x="451" y="0" type="line"/>
      <point x="365" y="0" type="line"/>
      <point x="362" y="22" type="line"/>
      <point x="322" y="-11"/>
      <point x="266" y="-11" type="qcurve"/>
      <point x="78" y="-11"/>
      <point x="78" y="172" type="qcurve"/>
      <point x="78" y="501" type="line"/>
      <point x="169" y="501" type="line"/>
      <point x="169" y="180" type="line"/>
      <point x="169" y="77"/>
      <point x="266" y="77" type="qcurve"/>
      <point x="360" y="77"/>
      <point x="360" y="183" type="qcurve"/>
      <point x="360" y="501" type="line"/>
      <point x="451" y="501" type="line"/>
    </contour>
    <contour>
      <point x="302" y="538" type="line"/>
      <point x="239" y="538" type="line"/>
      <point x="287" y="649" type="line"/>
      <point x="299" y="679"/>
      <point x="332" y="679" type="qcurve"/>
      <point x="339" y="679"/>
      <point x="346" y="676" type="qcurve"/>
      <point x="370" y="666"/>
      <point x="370" y="627"/>
      <point x="358" y="611" type="qcurve"/>
    </contour>
  </outline>
</glyph>
<glyph name="ucircumflex" format="1">
  <advance width="488"/>
  <unicode hex="00FB"/>
  <outline>
    <contour>
      <point x="451" y="0" type="line"/>
      <point x="365" y="0" type="line"/>
      <point x="362" y="22" type="line"/>
      <point x="322" y="-11"/>
      <point x="266" y="-11" type="qcurve"/>
      <point x="78" y="-11"/>
      <point x="78" y="172" type="qcurve"/>
      <point x="78" y="501" type="line"/>
      <point x="169" y="501" type="line"/>
      <point x="169" y="180" type="line"/>
      <point x="169" y="77"/>
      <point x="266" y="77" type="qcurve"/>
      <point x="360" y="77"/>
      <point x="360" y="183" type="qcurve"/>
      <point x="360" y="501" type="line"/>
      <point x="451" y="501" type="line"/>
    </contour>
    <contour>
      <point x="410" y="578" type="line"/>
      <point x="353" y="539" type="line"/>
      <point x="267" y="629" type="line"/>
      <point x="176" y="539" type="line"/>
      <point x="120" y="578" type="line"/>
      <point x="268" y="719" type="line"/>
    </contour>
  </outline>
</glyph>
<glyph name="udieresis" format="1">
  <advance width="488"/>
  <unicode hex="00FC"/>
  <outline>
    <contour>
      <point x="451" y="0" type="line"/>
      <point x="365" y="0" type="line"/>
      <point x="362" y="22" type="line"/>
      <point x="322" y="-11"/>
      <point x="266" y="-11" type="qcurve"/>
      <point x="78" y="-11"/>
      <point x="78" y="172" type="qcurve"/>
      <point x="78" y="501" type="line"/>
      <point x="169" y="501" type="line"/>
      <point x="169" y="180" type="line"/>
      <point x="169" y="77"/>
      <point x="266" y="77" type="qcurve"/>
      <point x="360" y="77"/>
      <point x="360" y="183" type="qcurve"/>
      <point x="360" y="501" type="line"/>
      <point x="451" y="501" type="line"/>
    </contour>
    <contour>
      <point x="223" y="608" type="qcurve"/>
      <point x="235" y="596"/>
      <point x="235" y="562"/>
      <point x="211" y="539"/>
      <point x="178" y="539"/>
      <point x="154" y="562"/>
      <point x="154" y="596"/>
      <point x="177" y="620"/>
      <point x="211" y="620"/>
    </contour>
    <contour>
      <point x="364" y="551" type="qcurve"/>
      <point x="352" y="539"/>
      <point x="318" y="539"/>
      <point x="294" y="563"/>
      <point x="294" y="596"/>
      <point x="318" y="621"/>
      <point x="352" y="621"/>
      <point x="376" y="597"/>
      <point x="376" y="563"/>
    </contour>
  </outline>
</glyph>
<glyph name="yacute" format="1">
  <advance width="541"/>
  <unicode hex="00FD"/>
  <outline>
    <contour>
      <point x="329" y="-210" type="qcurve"/>
      <point x="296" y="-138" type="line"/>
      <point x="363" y="-127"/>
      <point x="363" y="-58" type="qcurve"/>
      <point x="363" y="18" type="line"/>
      <point x="331" y="-12"/>
      <point x="173" y="-12"/>
      <point x="78" y="83"/>
      <point x="78" y="176" type="qcurve"/>
      <point x="78" y="501" type="line"/>
      <point x="168" y="501" type="line"/>
      <point x="168" y="192" type="line"/>
      <point x="168" y="129"/>
      <point x="214" y="77"/>
      <point x="311" y="77"/>
      <point x="363" y="128"/>
      <point x="363" y="192" type="qcurve"/>
      <point x="363" y="363" type="line"/>
      <point x="363" y="418"/>
      <point x="418" y="501"/>
      <point x="472" y="510" type="qcurve"/>
      <point x="504" y="438" type="line"/>
      <point x="453" y="424"/>
      <point x="453" y="366" type="qcurve"/>
      <point x="453" y="-61" type="line"/>
      <point x="453" y="-125"/>
      <point x="397" y="-198"/>
    </contour>
    <contour>
      <point x="299" y="538" type="line"/>
      <point x="236" y="538" type="line"/>
      <point x="284" y="649" type="line"/>
      <point x="296" y="679"/>
      <point x="329" y="679" type="qcurve"/>
      <point x="336" y="679"/>
      <point x="343" y="676" type="qcurve"/>
      <point x="367" y="666"/>
      <point x="367" y="627"/>
      <point x="355" y="611" type="qcurve"/>
    </contour>
  </outline>
</glyph>
<glyph name="thorn" format="1">
  <advance width="492"/>
  <unicode hex="00FE"/>
  <outline>
    <contour>
      <point x="168" y="0" type="line"/>
      <point x="78" y="0" type="line"/>
      <point x="78" y="588" type="line"/>
      <point x="168" y="588" type="line"/>
      <point x="168" y="479" type="line"/>
      <point x="208" y="509"/>
      <point x="265" y="509" type="qcurve"/>
      <point x="358" y="509"/>
      <point x="455" y="401"/>
      <point x="455" y="221"/>
      <point x="352" y="116"/>
      <point x="269" y="116" type="qcurve"/>
      <point x="206" y="116"/>
      <point x="168" y="155" type="qcurve"/>
    </contour>
    <contour>
      <point x="271" y="423" type="qcurve"/>
      <point x="230" y="423"/>
      <point x="169" y="369"/>
      <point x="168" y="259"/>
      <point x="226" y="202"/>
      <point x="308" y="202"/>
      <point x="365" y="257"/>
      <point x="365" y="363"/>
      <point x="313" y="423"/>
    </contour>
  </outline>
</glyph>
<glyph name="ydieresis" format="1">
  <advance width="541"/>
  <unicode hex="00FF"/>
  <outline>
    <contour>
      <point x="329" y="-210" type="qcurve"/>
      <point x="296" y="-138" type="line"/>
      <point x="363" y="-127"/>
      <point x="363" y="-58" type="qcurve"/>
      <point x="363" y="18" type="line"/>
      <point x="331" y="-12"/>
      <point x="173" y="-12"/>
      <point x="78" y="83"/>
      <point x="78" y="176" type="qcurve"/>
      <point x="78" y="501" type="line"/>
      <point x="168" y="501" type="line"/>
      <point x="168" y="192" type="line"/>
      <point x="168" y="129"/>
      <point x="214" y="77"/>
      <point x="311" y="77"/>
      <point x="363" y="128"/>
      <point x="363" y="192" type="qcurve"/>
      <point x="363" y="363" type="line"/>
      <point x="363" y="418"/>
      <point x="418" y="501"/>
      <point x="472" y="510" type="qcurve"/>
      <point x="504" y="438" type="line"/>
      <point x="453" y="424"/>
      <point x="453" y="366" type="qcurve"/>
      <point x="453" y="-61" type="line"/>
      <point x="453" y="-125"/>
      <point x="397" y="-198"/>
    </contour>
    <contour>
      <point x="370" y="551" type="qcurve"/>
      <point x="358" y="539"/>
      <point x="324" y="539"/>
      <point x="300" y="563"/>
      <point x="300" y="596"/>
      <point x="324" y="621"/>
      <point x="358" y="621"/>
      <point x="382" y="597"/>
      <point x="382" y="563"/>
    </contour>
    <contour>
      <point x="229" y="608" type="qcurve"/>
      <point x="241" y="596"/>
      <point x="241" y="562"/>
      <point x="217" y="539"/>
      <point x="184" y="539"/>
      <point x="160" y="562"/>
      <point x="160" y="596"/>
      <point x="183" y="620"/>
      <point x="217" y="620"/>
    </contour>
  </outline>
</glyph>
<glyph name="Amacron" format="1">
  <advance width="527"/>
  <unicode hex="0100"/>
  <outline>
    <contour>
      <point x="517" y="0" type="line"/>
      <point x="411" y="0" type="line"/>
      <point x="356" y="205" type="line"/>
      <point x="172" y="205" type="line"/>
      <point x="119" y="0" type="line"/>
      <point x="18" y="0" type="line"/>
      <point x="203" y="700" type="line"/>
      <point x="322" y="700" type="line"/>
    </contour>
    <contour>
      <point x="334" y="300" type="line"/>
      <point x="262" y="550" type="line"/>
      <point x="194" y="300" type="line"/>
    </contour>
    <contour>
      <point x="368" y="730" type="line"/>
      <point x="151" y="730" type="line"/>
      <point x="151" y="809" type="line"/>
      <point x="368" y="809" type="line"/>
    </contour>
  </outline>
</glyph>
<glyph name="amacron" format="1">
  <advance width="500"/>
  <unicode hex="0101"/>
  <outline>
    <contour>
      <point x="222" y="401" type="qcurve"/>
      <point x="309" y="401"/>
      <point x="372" y="361" type="qcurve"/>
      <point x="372" y="445"/>
      <point x="248" y="445" type="qcurve"/>
      <point x="255" y="509" type="line"/>
      <point x="336" y="509"/>
      <point x="375" y="490" type="qcurve"/>
      <point x="396" y="479"/>
      <point x="428" y="457"/>
      <point x="446" y="421"/>
      <point x="458" y="394"/>
      <point x="460" y="371" type="qcurve"/>
      <point x="463" y="336"/>
      <point x="463" y="298" type="qcurve"/>
      <point x="463" y="0" type="line"/>
      <point x="359" y="-10"/>
      <point x="297" y="-10" type="qcurve"/>
      <point x="78" y="-10"/>
      <point x="78" y="169" type="qcurve"/>
      <point x="78" y="252" type="line"/>
      <point x="78" y="351"/>
      <point x="147" y="385" type="qcurve"/>
      <point x="181" y="401"/>
    </contour>
    <contour>
      <point x="372" y="79" type="qcurve"/>
      <point x="372" y="270" type="line"/>
      <point x="319" y="301"/>
      <point x="250" y="309" type="qcurve"/>
      <point x="244" y="310"/>
      <point x="211" y="310"/>
      <point x="169" y="281"/>
      <point x="169" y="242" type="qcurve"/>
      <point x="169" y="176" type="line"/>
      <point x="169" y="73"/>
      <point x="299" y="73" type="qcurve"/>
      <point x="332" y="73"/>
    </contour>
    <contour>
      <point x="386" y="538" type="line"/>
      <point x="169" y="538" type="line"/>
      <point x="169" y="617" type="line"/>
      <point x="386" y="617" type="line"/>
    </contour>
  </outline>
</glyph>
<glyph name="Abreve" format="1">
  <advance width="527"/>
  <unicode hex="0102"/>
  <outline>
    <contour>
      <point x="517" y="0" type="line"/>
      <point x="411" y="0" type="line"/>
      <point x="356" y="205" type="line"/>
      <point x="172" y="205" type="line"/>
      <point x="119" y="0" type="line"/>
      <point x="18" y="0" type="line"/>
      <point x="203" y="700" type="line"/>
      <point x="322" y="700" type="line"/>
    </contour>
    <contour>
      <point x="334" y="300" type="line"/>
      <point x="262" y="550" type="line"/>
      <point x="194" y="300" type="line"/>
    </contour>
    <contour>
      <point x="378" y="848" type="line"/>
      <point x="378" y="843" type="line"/>
      <point x="378" y="796"/>
      <point x="312" y="730"/>
      <point x="218" y="730"/>
      <point x="152" y="796"/>
      <point x="152" y="843" type="qcurve"/>
      <point x="152" y="848" type="line"/>
      <point x="222" y="848" type="line"/>
      <point x="222" y="843" type="line"/>
      <point x="222" y="821"/>
      <point x="246" y="796"/>
      <point x="284" y="796"/>
      <point x="309" y="822"/>
      <point x="309" y="843" type="qcurve"/>
      <point x="309" y="848" type="line"/>
    </contour>
  </outline>
</glyph>
<glyph name="Aogonek" format="1">
  <advance width="648"/>
  <unicode hex="0104"/>
  <outline>
    <contour>
      <point x="566" y="-115" type="qcurve"/>
      <point x="611" y="-163" type="line"/>
      <point x="579" y="-213"/>
      <point x="506" y="-213" type="qcurve"/>
      <point x="477" y="-213"/>
      <point x="417" y="-170"/>
      <point x="417" y="-128" type="qcurve"/>
      <point x="417" y="-125"/>
      <point x="417" y="-122" type="qcurve"/>
      <point x="417" y="-59"/>
      <point x="511" y="0" type="qcurve"/>
      <point x="471" y="0" type="line"/>
      <point x="416" y="205" type="line"/>
      <point x="232" y="205" type="line"/>
      <point x="179" y="0" type="line"/>
      <point x="78" y="0" type="line"/>
      <point x="263" y="700" type="line"/>
      <point x="382" y="700" type="line"/>
      <point x="577" y="0" type="line"/>
      <point x="576" y="0" type="line"/>
      <point x="480" y="-80"/>
      <point x="481" y="-121" type="qcurve"/>
      <point x="483" y="-152"/>
      <point x="548" y="-152"/>
    </contour>
    <contour>
      <point x="394" y="300" type="line"/>
      <point x="322" y="550" type="line"/>
      <point x="254" y="300" type="line"/>
    </contour>
  </outline>
</glyph>
<glyph name="aogonek" format="1">
  <advance width="492"/>
  <unicode hex="0105"/>
  <outline>
    <contour>
      <point x="181" y="401" type="qcurve"/>
      <point x="268" y="401"/>
      <point x="331" y="361" type="qcurve"/>
      <point x="331" y="445"/>
      <point x="207" y="445" type="qcurve"/>
      <point x="214" y="509" type="line"/>
      <point x="295" y="509"/>
      <point x="334" y="490" type="qcurve"/>
      <point x="355" y="479"/>
      <point x="387" y="457"/>
      <point x="405" y="421"/>
      <point x="417" y="394"/>
      <point x="419" y="371" type="qcurve"/>
      <point x="422" y="336"/>
      <point x="422" y="298" type="qcurve"/>
      <point x="422" y="0" type="line"/>
      <point x="421" y="0" type="line"/>
      <point x="325" y="-80"/>
      <point x="326" y="-121" type="qcurve"/>
      <point x="328" y="-152"/>
      <point x="392" y="-152"/>
      <point x="411" y="-115" type="qcurve"/>
      <point x="456" y="-163" type="line"/>
      <point x="424" y="-213"/>
      <point x="351" y="-213" type="qcurve"/>
      <point x="322" y="-213"/>
      <point x="262" y="-170"/>
      <point x="262" y="-128" type="qcurve"/>
      <point x="262" y="-125"/>
      <point x="262" y="-122" type="qcurve"/>
      <point x="262" y="-63"/>
      <point x="344" y="-7" type="qcurve"/>
      <point x="311" y="-11"/>
      <point x="256" y="-11"/>
      <point x="180" y="-5"/>
      <point x="92" y="23"/>
      <point x="37" y="104"/>
      <point x="37" y="169" type="qcurve"/>
      <point x="37" y="252" type="line"/>
      <point x="37" y="351"/>
      <point x="106" y="385" type="qcurve"/>
      <point x="140" y="401"/>
    </contour>
    <contour>
      <point x="331" y="79" type="qcurve"/>
      <point x="331" y="270" type="line"/>
      <point x="278" y="301"/>
      <point x="210" y="309" type="qcurve"/>
      <point x="203" y="310"/>
      <point x="170" y="310"/>
      <point x="128" y="281"/>
      <point x="128" y="242" type="qcurve"/>
      <point x="128" y="176" type="line"/>
      <point x="128" y="73"/>
      <point x="258" y="73" type="qcurve"/>
      <point x="291" y="73"/>
    </contour>
  </outline>
</glyph>
<glyph name="cacute" format="1">
  <advance width="437"/>
  <unicode hex="0107"/>
  <outline>
    <contour>
      <point x="289" y="79" type="qcurve"/>
      <point x="335" y="79"/>
      <point x="376" y="92" type="qcurve"/>
      <point x="400" y="6" type="line"/>
      <point x="336" y="-11"/>
      <point x="232" y="-11"/>
      <point x="182" y="5" type="qcurve"/>
      <point x="78" y="39"/>
      <point x="78" y="180" type="qcurve"/>
      <point x="78" y="308" type="line"/>
      <point x="78" y="379"/>
      <point x="106" y="427" type="qcurve"/>
      <point x="154" y="510"/>
      <point x="264" y="510" type="qcurve"/>
      <point x="330" y="510"/>
      <point x="398" y="478" type="qcurve"/>
      <point x="373" y="402" type="line"/>
      <point x="321" y="422"/>
      <point x="250" y="422"/>
      <point x="226" y="412" type="qcurve"/>
      <point x="169" y="387"/>
      <point x="169" y="314" type="qcurve"/>
      <point x="169" y="169" type="line"/>
      <point x="169" y="79"/>
    </contour>
    <contour>
      <point x="272" y="538" type="line"/>
      <point x="209" y="538" type="line"/>
      <point x="257" y="649" type="line"/>
      <point x="269" y="679"/>
      <point x="302" y="679" type="qcurve"/>
      <point x="309" y="679"/>
      <point x="316" y="676" type="qcurve"/>
      <point x="340" y="666"/>
      <point x="340" y="627"/>
      <point x="328" y="611" type="qcurve"/>
    </contour>
  </outline>
</glyph>
<glyph name="Ccircumflex" format="1">
  <advance width="432"/>
  <unicode hex="0108"/>
  <outline>
    <contour>
      <point x="402" y="771" type="line"/>
      <point x="345" y="732" type="line"/>
      <point x="259" y="822" type="line"/>
      <point x="168" y="732" type="line"/>
      <point x="112" y="771" type="line"/>
      <point x="260" y="912" type="line"/>
    </contour>
    <contour>
      <point x="412" y="107" type="qcurve"/>
      <point x="427" y="23" type="line"/>
      <point x="342" y="-10"/>
      <point x="265" y="-10" type="qcurve"/>
      <point x="249" y="-10"/>
      <point x="184" y="-4"/>
      <point x="111" y="35"/>
      <point x="66" y="120"/>
      <point x="66" y="183" type="qcurve"/>
      <point x="66" y="504" type="line"/>
      <point x="66" y="580"/>
      <point x="109" y="658"/>
      <point x="153" y="685" type="qcurve"/>
      <point x="198" y="710"/>
      <point x="260" y="710" type="qcurve"/>
      <point x="337" y="710"/>
      <point x="402" y="677" type="qcurve"/>
      <point x="376" y="599" type="line"/>
      <point x="328" y="617"/>
      <point x="225" y="617"/>
      <point x="157" y="566"/>
      <point x="157" y="513" type="qcurve"/>
      <point x="157" y="185" type="line"/>
      <point x="157" y="140"/>
      <point x="179" y="115" type="qcurve"/>
      <point x="207" y="83"/>
      <point x="331" y="83"/>
    </contour>
  </outline>
</glyph>
<glyph name="ccircumflex" format="1">
  <advance width="439"/>
  <unicode hex="0109"/>
  <outline>
    <contour>
      <point x="289" y="79" type="qcurve"/>
      <point x="335" y="79"/>
      <point x="376" y="92" type="qcurve"/>
      <point x="400" y="6" type="line"/>
      <point x="336" y="-11"/>
      <point x="232" y="-11"/>
      <point x="182" y="5" type="qcurve"/>
      <point x="78" y="39"/>
      <point x="78" y="180" type="qcurve"/>
      <point x="78" y="308" type="line"/>
      <point x="78" y="379"/>
      <point x="106" y="427" type="qcurve"/>
      <point x="154" y="510"/>
      <point x="264" y="510" type="qcurve"/>
      <point x="330" y="510"/>
      <point x="398" y="478" type="qcurve"/>
      <point x="373" y="402" type="line"/>
      <point x="321" y="422"/>
      <point x="250" y="422"/>
      <point x="226" y="412" type="qcurve"/>
      <point x="169" y="387"/>
      <point x="169" y="314" type="qcurve"/>
      <point x="169" y="169" type="line"/>
      <point x="169" y="79"/>
    </contour>
    <contour>
      <point x="402" y="579" type="line"/>
      <point x="345" y="540" type="line"/>
      <point x="259" y="630" type="line"/>
      <point x="168" y="540" type="line"/>
      <point x="112" y="579" type="line"/>
      <point x="260" y="720" type="line"/>
    </contour>
  </outline>
</glyph>
<glyph name="cdotaccent" format="1">
  <advance width="437"/>
  <unicode hex="010B"/>
  <outline>
    <contour>
      <point x="289" y="79" type="qcurve"/>
      <point x="335" y="79"/>
      <point x="376" y="92" type="qcurve"/>
      <point x="400" y="6" type="line"/>
      <point x="336" y="-11"/>
      <point x="232" y="-11"/>
      <point x="182" y="5" type="qcurve"/>
      <point x="78" y="39"/>
      <point x="78" y="180" type="qcurve"/>
      <point x="78" y="308" type="line"/>
      <point x="78" y="379"/>
      <point x="106" y="427" type="qcurve"/>
      <point x="154" y="510"/>
      <point x="264" y="510" type="qcurve"/>
      <point x="330" y="510"/>
      <point x="398" y="478" type="qcurve"/>
      <point x="373" y="402" type="line"/>
      <point x="321" y="422"/>
      <point x="250" y="422"/>
      <point x="226" y="412" type="qcurve"/>
      <point x="169" y="387"/>
      <point x="169" y="314" type="qcurve"/>
      <point x="169" y="169" type="line"/>
      <point x="169" y="79"/>
    </contour>
    <contour>
      <point x="314" y="588" type="qcurve"/>
      <point x="314" y="569"/>
      <point x="284" y="538"/>
      <point x="245" y="538"/>
      <point x="214" y="569"/>
      <point x="214" y="608"/>
      <point x="245" y="638"/>
      <point x="284" y="638"/>
      <point x="314" y="608"/>
    </contour>
  </outline>
</glyph>
<glyph name="Ccaron" format="1">
  <advance width="432"/>
  <unicode hex="010C"/>
  <outline>
    <contour>
      <point x="412" y="107" type="qcurve"/>
      <point x="427" y="23" type="line"/>
      <point x="342" y="-10"/>
      <point x="265" y="-10" type="qcurve"/>
      <point x="249" y="-10"/>
      <point x="184" y="-4"/>
      <point x="111" y="35"/>
      <point x="66" y="120"/>
      <point x="66" y="183" type="qcurve"/>
      <point x="66" y="504" type="line"/>
      <point x="66" y="580"/>
      <point x="109" y="658"/>
      <point x="153" y="685" type="qcurve"/>
      <point x="198" y="710"/>
      <point x="260" y="710" type="qcurve"/>
      <point x="337" y="710"/>
      <point x="402" y="677" type="qcurve"/>
      <point x="376" y="599" type="line"/>
      <point x="328" y="617"/>
      <point x="225" y="617"/>
      <point x="157" y="566"/>
      <point x="157" y="513" type="qcurve"/>
      <point x="157" y="185" type="line"/>
      <point x="157" y="140"/>
      <point x="179" y="115" type="qcurve"/>
      <point x="207" y="83"/>
      <point x="331" y="83"/>
    </contour>
    <contour>
      <point x="398" y="875" type="line"/>
      <point x="256" y="734" type="line"/>
      <point x="108" y="875" type="line"/>
      <point x="164" y="914" type="line"/>
      <point x="255" y="823" type="line"/>
      <point x="341" y="914" type="line"/>
    </contour>
  </outline>
</glyph>
<glyph name="ccaron" format="1">
  <advance width="438"/>
  <unicode hex="010D"/>
  <outline>
    <contour>
      <point x="289" y="79" type="qcurve"/>
      <point x="335" y="79"/>
      <point x="376" y="92" type="qcurve"/>
      <point x="400" y="6" type="line"/>
      <point x="336" y="-11"/>
      <point x="232" y="-11"/>
      <point x="182" y="5" type="qcurve"/>
      <point x="78" y="39"/>
      <point x="78" y="180" type="qcurve"/>
      <point x="78" y="308" type="line"/>
      <point x="78" y="379"/>
      <point x="106" y="427" type="qcurve"/>
      <point x="154" y="510"/>
      <point x="264" y="510" type="qcurve"/>
      <point x="330" y="510"/>
      <point x="398" y="478" type="qcurve"/>
      <point x="373" y="402" type="line"/>
      <point x="321" y="422"/>
      <point x="250" y="422"/>
      <point x="226" y="412" type="qcurve"/>
      <point x="169" y="387"/>
      <point x="169" y="314" type="qcurve"/>
      <point x="169" y="169" type="line"/>
      <point x="169" y="79"/>
    </contour>
    <contour>
      <point x="401" y="684" type="line"/>
      <point x="259" y="543" type="line"/>
      <point x="111" y="684" type="line"/>
      <point x="167" y="723" type="line"/>
      <point x="258" y="632" type="line"/>
      <point x="344" y="723" type="line"/>
    </contour>
  </outline>
</glyph>
<glyph name="Dcaron" format="1">
  <advance width="576"/>
  <unicode hex="010E"/>
  <outline>
    <contour>
      <point x="286" y="0" type="qcurve"/>
      <point x="78" y="0" type="line"/>
      <point x="78" y="701" type="line"/>
      <point x="266" y="701" type="line"/>
      <point x="379" y="701"/>
      <point x="498" y="577"/>
      <point x="498" y="474" type="qcurve"/>
      <point x="498" y="200" type="line"/>
      <point x="498" y="0"/>
    </contour>
    <contour>
      <point x="407" y="190" type="qcurve"/>
      <point x="407" y="484" type="line"/>
      <point x="407" y="549"/>
      <point x="336" y="611"/>
      <point x="276" y="611" type="qcurve"/>
      <point x="169" y="611" type="line"/>
      <point x="169" y="83" type="line"/>
      <point x="270" y="83" type="line"/>
      <point x="346" y="83"/>
      <point x="407" y="137"/>
    </contour>
    <contour>
      <point x="416" y="875" type="line"/>
      <point x="274" y="734" type="line"/>
      <point x="126" y="875" type="line"/>
      <point x="182" y="914" type="line"/>
      <point x="273" y="823" type="line"/>
      <point x="359" y="914" type="line"/>
    </contour>
  </outline>
</glyph>
<glyph name="dcaron" format="1">
  <advance width="636"/>
  <unicode hex="010F"/>
  <outline>
    <contour>
      <point x="163" y="490" type="qcurve"/>
      <point x="212" y="510"/>
      <point x="320" y="510"/>
      <point x="357" y="490" type="qcurve"/>
      <point x="357" y="700" type="line"/>
      <point x="447" y="700" type="line"/>
      <point x="447" y="0" type="line"/>
      <point x="361" y="-12"/>
      <point x="215" y="-12"/>
      <point x="156" y="18" type="qcurve"/>
      <point x="78" y="58"/>
      <point x="78" y="157" type="qcurve"/>
      <point x="78" y="346" type="line"/>
      <point x="78" y="451"/>
    </contour>
    <contour>
      <point x="357" y="397" type="line"/>
      <point x="313" y="420"/>
      <point x="230" y="420"/>
      <point x="168" y="374"/>
      <point x="168" y="319" type="qcurve"/>
      <point x="168" y="152" type="line"/>
      <point x="168" y="101"/>
      <point x="224" y="82" type="qcurve"/>
      <point x="254" y="72"/>
      <point x="321" y="72"/>
      <point x="357" y="80" type="qcurve"/>
    </contour>
    <contour>
      <point x="532" y="537" type="qcurve"/>
      <point x="473" y="566" type="line"/>
      <point x="517" y="591"/>
      <point x="542" y="618" type="qcurve"/>
      <point x="531" y="621" type="line"/>
      <point x="505" y="636"/>
      <point x="506" y="685"/>
      <point x="532" y="710"/>
      <point x="551" y="710" type="qcurve"/>
      <point x="574" y="710"/>
      <point x="598" y="674"/>
      <point x="598" y="654" type="qcurve"/>
      <point x="598" y="595"/>
    </contour>
  </outline>
</glyph>
<glyph name="Dcroat" format="1">
  <advance width="576"/>
  <unicode hex="0110"/>
  <outline>
    <contour>
      <point x="286" y="0" type="qcurve"/>
      <point x="78" y="0" type="line"/>
      <point x="78" y="701" type="line"/>
      <point x="266" y="701" type="line"/>
      <point x="379" y="701"/>
      <point x="498" y="577"/>
      <point x="498" y="474" type="qcurve"/>
      <point x="498" y="200" type="line"/>
      <point x="498" y="0"/>
    </contour>
    <contour>
      <point x="407" y="190" type="qcurve"/>
      <point x="407" y="484" type="line"/>
      <point x="407" y="549"/>
      <point x="336" y="611"/>
      <point x="276" y="611" type="qcurve"/>
      <point x="169" y="611" type="line"/>
      <point x="169" y="83" type="line"/>
      <point x="270" y="83" type="line"/>
      <point x="346" y="83"/>
      <point x="407" y="137"/>
    </contour>
    <contour>
      <point x="392" y="730" type="line"/>
      <point x="175" y="730" type="line"/>
      <point x="175" y="809" type="line"/>
      <point x="392" y="809" type="line"/>
    </contour>
  </outline>
</glyph>
<glyph name="dslash" format="1">
  <advance width="546"/>
  <unicode hex="0111"/>
  <outline>
    <contour>
      <point x="163" y="490" type="qcurve"/>
      <point x="212" y="510"/>
      <point x="320" y="510"/>
      <point x="357" y="490" type="qcurve"/>
      <point x="357" y="545" type="line"/>
      <point x="275" y="545" type="line"/>
      <point x="275" y="633" type="line"/>
      <point x="357" y="633" type="line"/>
      <point x="357" y="700" type="line"/>
      <point x="447" y="700" type="line"/>
      <point x="447" y="633" type="line"/>
      <point x="509" y="633" type="line"/>
      <point x="509" y="545" type="line"/>
      <point x="447" y="545" type="line"/>
      <point x="447" y="0" type="line"/>
      <point x="361" y="-12"/>
      <point x="215" y="-12"/>
      <point x="156" y="18" type="qcurve"/>
      <point x="78" y="58"/>
      <point x="78" y="157" type="qcurve"/>
      <point x="78" y="346" type="line"/>
      <point x="78" y="451"/>
    </contour>
    <contour>
      <point x="357" y="397" type="line"/>
      <point x="313" y="420"/>
      <point x="230" y="420"/>
      <point x="168" y="374"/>
      <point x="168" y="319" type="qcurve"/>
      <point x="168" y="152" type="line"/>
      <point x="168" y="101"/>
      <point x="224" y="82" type="qcurve"/>
      <point x="254" y="72"/>
      <point x="321" y="72"/>
      <point x="357" y="80" type="qcurve"/>
    </contour>
  </outline>
</glyph>
<glyph name="Emacron" format="1">
  <advance width="465"/>
  <unicode hex="0112"/>
  <outline>
    <contour>
      <point x="410" y="0" type="line"/>
      <point x="78" y="0" type="line"/>
      <point x="78" y="700" type="line"/>
      <point x="412" y="700" type="line"/>
      <point x="412" y="610" type="line"/>
      <point x="169" y="610" type="line"/>
      <point x="169" y="413" type="line"/>
      <point x="325" y="413" type="line"/>
      <point x="298" y="325" type="line"/>
      <point x="169" y="325" type="line"/>
      <point x="169" y="82" type="line"/>
      <point x="410" y="82" type="line"/>
    </contour>
    <contour>
      <point x="352" y="730" type="line"/>
      <point x="135" y="730" type="line"/>
      <point x="135" y="809" type="line"/>
      <point x="352" y="809" type="line"/>
    </contour>
  </outline>
</glyph>
<glyph name="Edotaccent" format="1">
  <advance width="465"/>
  <unicode hex="0116"/>
  <outline>
    <contour>
      <point x="410" y="0" type="line"/>
      <point x="78" y="0" type="line"/>
      <point x="78" y="700" type="line"/>
      <point x="412" y="700" type="line"/>
      <point x="412" y="610" type="line"/>
      <point x="169" y="610" type="line"/>
      <point x="169" y="413" type="line"/>
      <point x="325" y="413" type="line"/>
      <point x="298" y="325" type="line"/>
      <point x="169" y="325" type="line"/>
      <point x="169" y="82" type="line"/>
      <point x="410" y="82" type="line"/>
    </contour>
    <contour>
      <point x="305" y="780" type="qcurve"/>
      <point x="305" y="761"/>
      <point x="275" y="730"/>
      <point x="236" y="730"/>
      <point x="205" y="761"/>
      <point x="205" y="800"/>
      <point x="236" y="830"/>
      <point x="276" y="830"/>
      <point x="305" y="800"/>
    </contour>
  </outline>
</glyph>
<glyph name="edotaccent" format="1">
  <advance width="475"/>
  <unicode hex="0117"/>
  <outline>
    <contour>
      <point x="248" y="72" type="qcurve"/>
      <point x="304" y="72"/>
      <point x="379" y="112" type="qcurve"/>
      <point x="413" y="35" type="line"/>
      <point x="336" y="-12"/>
      <point x="252" y="-12" type="qcurve"/>
      <point x="78" y="-12"/>
      <point x="78" y="134" type="qcurve"/>
      <point x="78" y="339" type="line"/>
      <point x="78" y="420"/>
      <point x="179" y="510"/>
      <point x="345" y="510"/>
      <point x="438" y="421"/>
      <point x="438" y="342" type="qcurve"/>
      <point x="438" y="198" type="line"/>
      <point x="170" y="183" type="line"/>
      <point x="170" y="144" type="line"/>
      <point x="170" y="104"/>
      <point x="217" y="72"/>
    </contour>
    <contour>
      <point x="346" y="278" type="line"/>
      <point x="346" y="343" type="line"/>
      <point x="346" y="384"/>
      <point x="294" y="423"/>
      <point x="218" y="423"/>
      <point x="170" y="376"/>
      <point x="170" y="338" type="qcurve"/>
      <point x="170" y="268" type="line"/>
    </contour>
    <contour>
      <point x="315" y="588" type="qcurve"/>
      <point x="315" y="569"/>
      <point x="285" y="538"/>
      <point x="246" y="538"/>
      <point x="215" y="569"/>
      <point x="215" y="608"/>
      <point x="246" y="638"/>
      <point x="286" y="638"/>
      <point x="315" y="608"/>
    </contour>
  </outline>
</glyph>
<glyph name="Eogonek" format="1">
  <advance width="497"/>
  <unicode hex="0118"/>
  <outline>
    <contour>
      <point x="399" y="-115" type="qcurve"/>
      <point x="444" y="-163" type="line"/>
      <point x="412" y="-213"/>
      <point x="339" y="-213" type="qcurve"/>
      <point x="310" y="-213"/>
      <point x="250" y="-170"/>
      <point x="250" y="-128" type="qcurve"/>
      <point x="250" y="-125"/>
      <point x="250" y="-122" type="qcurve"/>
      <point x="250" y="-59"/>
      <point x="344" y="0" type="qcurve"/>
      <point x="78" y="0" type="line"/>
      <point x="78" y="700" type="line"/>
      <point x="412" y="700" type="line"/>
      <point x="412" y="610" type="line"/>
      <point x="169" y="610" type="line"/>
      <point x="169" y="413" type="line"/>
      <point x="325" y="413" type="line"/>
      <point x="298" y="325" type="line"/>
      <point x="169" y="325" type="line"/>
      <point x="169" y="82" type="line"/>
      <point x="410" y="82" type="line"/>
      <point x="410" y="0" type="line"/>
      <point x="409" y="0" type="line"/>
      <point x="313" y="-80"/>
      <point x="314" y="-121" type="qcurve"/>
      <point x="316" y="-152"/>
      <point x="380" y="-152"/>
    </contour>
  </outline>
</glyph>
<glyph name="eogonek" format="1">
  <advance width="434"/>
  <unicode hex="0119"/>
  <outline>
    <contour>
      <point x="205" y="72" type="qcurve"/>
      <point x="261" y="72"/>
      <point x="336" y="112" type="qcurve"/>
      <point x="370" y="35" type="line"/>
      <point x="322" y="5"/>
      <point x="265" y="-5" type="qcurve"/>
      <point x="176" y="-81"/>
      <point x="177" y="-121" type="qcurve"/>
      <point x="179" y="-152"/>
      <point x="244" y="-152"/>
      <point x="262" y="-115" type="qcurve"/>
      <point x="307" y="-163" type="line"/>
      <point x="275" y="-213"/>
      <point x="202" y="-213" type="qcurve"/>
      <point x="173" y="-213"/>
      <point x="113" y="-170"/>
      <point x="113" y="-128" type="qcurve"/>
      <point x="113" y="-125"/>
      <point x="113" y="-122" type="qcurve"/>
      <point x="113" y="-66"/>
      <point x="189" y="-12" type="qcurve"/>
      <point x="118" y="-10"/>
      <point x="35" y="62"/>
      <point x="35" y="134" type="qcurve"/>
      <point x="35" y="339" type="line"/>
      <point x="35" y="420"/>
      <point x="136" y="510"/>
      <point x="302" y="510"/>
      <point x="395" y="421"/>
      <point x="395" y="342" type="qcurve"/>
      <point x="395" y="198" type="line"/>
      <point x="127" y="183" type="line"/>
      <point x="127" y="144" type="line"/>
      <point x="127" y="104"/>
      <point x="174" y="72"/>
    </contour>
    <contour>
      <point x="303" y="278" type="line"/>
      <point x="303" y="343" type="line"/>
      <point x="303" y="384"/>
      <point x="251" y="423"/>
      <point x="174" y="423"/>
      <point x="127" y="376"/>
      <point x="127" y="338" type="qcurve"/>
      <point x="127" y="268" type="line"/>
    </contour>
  </outline>
</glyph>
<glyph name="Ecaron" format="1">
  <advance width="465"/>
  <unicode hex="011A"/>
  <outline>
    <contour>
      <point x="410" y="0" type="line"/>
      <point x="78" y="0" type="line"/>
      <point x="78" y="700" type="line"/>
      <point x="412" y="700" type="line"/>
      <point x="412" y="610" type="line"/>
      <point x="169" y="610" type="line"/>
      <point x="169" y="413" type="line"/>
      <point x="325" y="413" type="line"/>
      <point x="298" y="325" type="line"/>
      <point x="169" y="325" type="line"/>
      <point x="169" y="82" type="line"/>
      <point x="410" y="82" type="line"/>
    </contour>
    <contour>
      <point x="392" y="875" type="line"/>
      <point x="250" y="734" type="line"/>
      <point x="102" y="875" type="line"/>
      <point x="158" y="914" type="line"/>
      <point x="249" y="823" type="line"/>
      <point x="335" y="914" type="line"/>
    </contour>
  </outline>
</glyph>
<glyph name="ecaron" format="1">
  <advance width="475"/>
  <unicode hex="011B"/>
  <outline>
    <contour>
      <point x="248" y="72" type="qcurve"/>
      <point x="304" y="72"/>
      <point x="379" y="112" type="qcurve"/>
      <point x="413" y="35" type="line"/>
      <point x="336" y="-12"/>
      <point x="252" y="-12" type="qcurve"/>
      <point x="78" y="-12"/>
      <point x="78" y="134" type="qcurve"/>
      <point x="78" y="339" type="line"/>
      <point x="78" y="420"/>
      <point x="179" y="510"/>
      <point x="345" y="510"/>
      <point x="438" y="421"/>
      <point x="438" y="342" type="qcurve"/>
      <point x="438" y="198" type="line"/>
      <point x="170" y="183" type="line"/>
      <point x="170" y="144" type="line"/>
      <point x="170" y="104"/>
      <point x="217" y="72"/>
    </contour>
    <contour>
      <point x="346" y="278" type="line"/>
      <point x="346" y="343" type="line"/>
      <point x="346" y="384"/>
      <point x="294" y="423"/>
      <point x="218" y="423"/>
      <point x="170" y="376"/>
      <point x="170" y="338" type="qcurve"/>
      <point x="170" y="268" type="line"/>
    </contour>
    <contour>
      <point x="407" y="684" type="line"/>
      <point x="265" y="543" type="line"/>
      <point x="117" y="684" type="line"/>
      <point x="173" y="723" type="line"/>
      <point x="264" y="632" type="line"/>
      <point x="350" y="723" type="line"/>
    </contour>
  </outline>
</glyph>
<glyph name="Gcircumflex" format="1">
  <advance width="537"/>
  <unicode hex="011C"/>
  <outline>
    <contour>
      <point x="476" y="0" type="line"/>
      <point x="394" y="0" type="line"/>
      <point x="385" y="20" type="line"/>
      <point x="341" y="-10"/>
      <point x="276" y="-10" type="qcurve"/>
      <point x="188" y="-10"/>
      <point x="65" y="90"/>
      <point x="65" y="189" type="qcurve"/>
      <point x="65" y="503" type="line"/>
      <point x="65" y="631"/>
      <point x="152" y="684" type="qcurve"/>
      <point x="197" y="709"/>
      <point x="259" y="709" type="qcurve"/>
      <point x="336" y="709"/>
      <point x="401" y="676" type="qcurve"/>
      <point x="374" y="598" type="line"/>
      <point x="323" y="617"/>
      <point x="277" y="617" type="qcurve"/>
      <point x="156" y="617"/>
      <point x="156" y="512" type="qcurve"/>
      <point x="156" y="187" type="line"/>
      <point x="156" y="81"/>
      <point x="275" y="81" type="qcurve"/>
      <point x="323" y="81"/>
      <point x="386" y="133"/>
      <point x="386" y="186" type="qcurve"/>
      <point x="386" y="212" type="line"/>
      <point x="326" y="212" type="line"/>
      <point x="296" y="300" type="line"/>
      <point x="476" y="300" type="line"/>
    </contour>
    <contour>
      <point x="427" y="771" type="line"/>
      <point x="370" y="732" type="line"/>
      <point x="284" y="822" type="line"/>
      <point x="193" y="732" type="line"/>
      <point x="137" y="771" type="line"/>
      <point x="285" y="912" type="line"/>
    </contour>
  </outline>
</glyph>
